STARTFONT 2.1
FONT -DIGITAL-VT220-Bold-I-Normal-136col-80-800-75-75-c-360-iso10646-1
SIZE 80 75 75
FONTBOUNDINGBOX 62 80 -13 -16
STARTPROPERTIES 21
FOUNDRY "DIGITAL"
FAMILY_NAME "vt220"
WEIGHT_NAME "Bold"
RELATIVE_SETWIDTH 50
SLANT "I"
SETWIDTH_NAME "Normal"
ADD_STYLE_NAME "136col"
PIXEL_SIZE 80
POINT_SIZE 800
RESOLUTION_X 75
RESOLUTION_Y 75
SPACING "c"
CHARSET_REGISTRY "ISO10646"
CHARSET_ENCODING "1"
CAP_HEIGHT 56
X_HEIGHT 40
WEIGHT 10
QUAD_WIDTH 36
FONT_ASCENT 64
FONT_DESCENT 16
AVERAGE_WIDTH 360
ENDPROPERTIES
CHARS 237
STARTCHAR U+00FD
ENCODING 253
SWIDTH 1000 0
DWIDTH 36 0
BBX 62 80 -13 -16
BITMAP
0000000000000000
0000000000000000
0000000000000000
0000000000000000
0000000000000000
0000000000000000
0000000000000000
0000000000000000
0000000000000000
0000000000000000
0000000000000000
0000000000000000
0000000000000000
0000000000000000
0000000000000000
0000000000000000
0000000000000000
0000000000000000
0000000000000000
0000000000000000
0000000000000000
0000000000000000
0000000000000000
0000000000000000
0000000000000000
0000000000000000
0000000000000000
0000000000000000
0000000000000000
0000000000000000
0000000000000000
0000000000000000
0000000000000000
0000000000000000
0000000000000000
0000000000000000
0000000000000000
0000000000000000
0000000000000000
0000000000000000
0000000000000000
0000000000000000
0000000000000000
0000000000000000
0000000000000000
0000000000000000
0000000000000000
0000000000000000
0000000000000000
0000000000000000
0000000000000000
0000000000000000
0000000000000000
0000000000000000
0000000000000000
0000000000000000
0000000000000000
0000000000000000
0000000000000000
0000000000000000
0000000000000000
0000000000000000
0000000000000000
0000000000000000
0000000000000000
0000000000000000
0000000000000000
0000000000000000
0000000000000000
0000000000000000
0000000000000000
0000000000000000
0000000000000000
0000000000000000
0000000000000000
0000000000000000
0000000000000000
0000000000000000
0000000000000000
0000000000000000
ENDCHAR
STARTCHAR U+25A1
ENCODING 9633
SWIDTH 1000 0
DWIDTH 36 0
BBX 62 80 -13 -16
BITMAP
0000000000000000
0000000000000000
0000000000000000
0000000000000000
0000000000000000
0000000000000000
0000000000000000
0000000000000000
000001ffffffff00
000003fffffffe00
000003fffffffe00
000003fffffffe00
000007fffffffc00
000007fffffffc00
000007fffffffc00
00000ffffffff800
00000ff8000ff800
00000ff8000ff800
00001ff0001ff000
00001ff0001ff000
00001ff0001ff000
00003fe0003fe000
00003fe0003fe000
00003fe0003fe000
00007fc0007fc000
00007fc0007fc000
00007fc0007fc000
0000ff8000ff8000
0000ff8000ff8000
0000ff8000ff8000
0001ff0001ff0000
0001ff0001ff0000
0001ff0001ff0000
0003fe0003fe0000
0003fe0003fe0000
0003fe0003fe0000
0007fc0007fc0000
0007fc0007fc0000
0007fc0007fc0000
000ff8000ff80000
000ff8000ff80000
000ff8000ff80000
001ff0001ff00000
001ff0001ff00000
001ff0001ff00000
003fe0003fe00000
003fe0003fe00000
003fe0003fe00000
007fc0007fc00000
007fc0007fc00000
007fc0007fc00000
00ff8000ff800000
00ff8000ff800000
00ff8000ff800000
01ff0001ff000000
01ff0001ff000000
01ffffffff000000
03fffffffe000000
03fffffffe000000
03fffffffe000000
07fffffffc000000
07fffffffc000000
07fffffffc000000
0ffffffff8000000
0000000000000000
0000000000000000
0000000000000000
0000000000000000
0000000000000000
0000000000000000
0000000000000000
0000000000000000
0000000000000000
0000000000000000
0000000000000000
0000000000000000
0000000000000000
0000000000000000
0000000000000000
0000000000000000
ENDCHAR
STARTCHAR U+00FE
ENCODING 254
SWIDTH 1000 0
DWIDTH 36 0
BBX 62 80 -13 -16
BITMAP
0000000000000000
0000000000000000
0000000000000000
0000000000000000
0000000000000000
0000000000000000
0000000000000000
0000000000000000
000001ff00000000
000003fe00000000
000003fe00000000
000003fe00000000
000007fc00000000
000007fc00000000
000007fc00000000
00000ff800000000
00000ff800000000
00000ff800000000
00001ff000000000
00001ff000000000
00001ff000000000
00003fe000000000
00003fe000000000
00003fe000000000
00007ffffffc0000
00007ffffffc0000
00007ffffffc0000
0000fffffff80000
0000fffffff80000
0000fffffff80000
0001fffffff00000
0001fffffff00000
0001fff001ff0000
0003ffe003fe0000
0003ffe003fe0000
0003ffe003fe0000
0007ffc007fc0000
0007ffc007fc0000
0007ffc007fc0000
000fff800ff80000
000fff800ff80000
000fff800ff80000
001fff001ff00000
001fff001ff00000
001fff001ff00000
003ffe003fe00000
003ffe003fe00000
003ffe003fe00000
007ffffffc000000
007ffffffc000000
007ffffffc000000
00fffffff8000000
00fffffff8000000
00fffffff8000000
01fffffff0000000
01fffffff0000000
01ff000000000000
03fe000000000000
03fe000000000000
03fe000000000000
07fc000000000000
07fc000000000000
07fc000000000000
0ff8000000000000
0ff8000000000000
0ff8000000000000
1ff0000000000000
1ff0000000000000
1ff0000000000000
3fe0000000000000
3fe0000000000000
3fe0000000000000
7fc0000000000000
7fc0000000000000
7fc0000000000000
ff80000000000000
ff80000000000000
ff80000000000000
ff00000000000000
ff00000000000000
ENDCHAR
STARTCHAR U+00FF
ENCODING 255
SWIDTH 1000 0
DWIDTH 36 0
BBX 62 80 -13 -16
BITMAP
0000000000000000
0000000000000000
0000000000000000
0000000000000000
0000000000000000
0000000000000000
0000000000000000
0000000000000000
0000001ff01ff000
0000003fe03fe000
0000003fe03fe000
0000003fe03fe000
0000007fc07fc000
0000007fc07fc000
0000007fc07fc000
000000ff80ff8000
0000000000000000
0000000000000000
0000000000000000
0000000000000000
0000000000000000
0000000000000000
0000000000000000
0000000000000000
00007fc007fc0000
00007fc007fc0000
00007fc007fc0000
0000ff800ff80000
0000ff800ff80000
0000ff800ff80000
0001ff001ff00000
0001ff001ff00000
0001ff001ff00000
0003fe003fe00000
0003fe003fe00000
0003fe003fe00000
0007fc007fc00000
0007fc007fc00000
0007fc007fc00000
000ff800ff800000
000ff80fff800000
000ff80fff800000
001ff01fff000000
001ff01fff000000
001ff01fff000000
003fe03ffe000000
003fe03ffe000000
003fe03ffe000000
0007fffffc000000
0007fffffc000000
0007fffffc000000
000ffffff8000000
000ffffff8000000
000ffffff8000000
001ffffff0000000
001ffffff0000000
0000001ff0000000
0000003fe0000000
0000003fe0000000
0000003fe0000000
0000007fc0000000
0000007fc0000000
0000007fc0000000
000000ff80000000
0ff800ff80000000
0ff800ff80000000
1ff001ff00000000
1ff001ff00000000
1ff001ff00000000
3fe003fe00000000
3fe003fe00000000
3fe003fe00000000
07ffffc000000000
07ffffc000000000
07ffffc000000000
0fffff8000000000
0fffff8000000000
0fffff8000000000
1fffff0000000000
1fffff0000000000
ENDCHAR
STARTCHAR U+00FC
ENCODING 252
SWIDTH 1000 0
DWIDTH 36 0
BBX 62 80 -13 -16
BITMAP
0000000000000000
0000000000000000
0000000000000000
0000000000000000
0000000000000000
0000000000000000
0000000000000000
0000000000000000
0000001ff01ff000
0000003fe03fe000
0000003fe03fe000
0000003fe03fe000
0000007fc07fc000
0000007fc07fc000
0000007fc07fc000
000000ff80ff8000
0000000000000000
0000000000000000
0000000000000000
0000000000000000
0000000000000000
0000000000000000
0000000000000000
0000000000000000
00007fc007fc0000
00007fc007fc0000
00007fc007fc0000
0000ff800ff80000
0000ff800ff80000
0000ff800ff80000
0001ff001ff00000
0001ff001ff00000
0001ff001ff00000
0003fe003fe00000
0003fe003fe00000
0003fe003fe00000
0007fc007fc00000
0007fc007fc00000
0007fc007fc00000
000ff800ff800000
000ff800ff800000
000ff800ff800000
001ff001ff000000
001ff001ff000000
001ff001ff000000
003fe003fe000000
003fe003fe000000
003fe003fe000000
007fc007fc000000
007fc007fc000000
007fc007fc000000
00ff800ff8000000
00ff800ff8000000
00ff800ff8000000
01ff001ff0000000
01ff001ff0000000
001fffffff000000
003ffffffe000000
003ffffffe000000
003ffffffe000000
007ffffffc000000
007ffffffc000000
007ffffffc000000
00fffffff8000000
0000000000000000
0000000000000000
0000000000000000
0000000000000000
0000000000000000
0000000000000000
0000000000000000
0000000000000000
0000000000000000
0000000000000000
0000000000000000
0000000000000000
0000000000000000
0000000000000000
0000000000000000
0000000000000000
ENDCHAR
STARTCHAR U+00FB
ENCODING 251
SWIDTH 1000 0
DWIDTH 36 0
BBX 62 80 -13 -16
BITMAP
000000007fffc000
000000007fffc000
000000007fffc000
00000000ffff8000
00000000ffff8000
00000000ffff8000
00000001ffff0000
00000001ffff0000
0000001ff01ff000
0000003fe03fe000
0000003fe03fe000
0000003fe03fe000
0000007fc07fc000
0000007fc07fc000
0000007fc07fc000
000000ff80ff8000
0000000000000000
0000000000000000
0000000000000000
0000000000000000
0000000000000000
0000000000000000
0000000000000000
0000000000000000
00007fc007fc0000
00007fc007fc0000
00007fc007fc0000
0000ff800ff80000
0000ff800ff80000
0000ff800ff80000
0001ff001ff00000
0001ff001ff00000
0001ff001ff00000
0003fe003fe00000
0003fe003fe00000
0003fe003fe00000
0007fc007fc00000
0007fc007fc00000
0007fc007fc00000
000ff800ff800000
000ff800ff800000
000ff800ff800000
001ff001ff000000
001ff001ff000000
001ff001ff000000
003fe003fe000000
003fe003fe000000
003fe003fe000000
007fc007fc000000
007fc007fc000000
007fc007fc000000
00ff800ff8000000
00ff800ff8000000
00ff800ff8000000
01ff001ff0000000
01ff001ff0000000
001fffffff000000
003ffffffe000000
003ffffffe000000
003ffffffe000000
007ffffffc000000
007ffffffc000000
007ffffffc000000
00fffffff8000000
0000000000000000
0000000000000000
0000000000000000
0000000000000000
0000000000000000
0000000000000000
0000000000000000
0000000000000000
0000000000000000
0000000000000000
0000000000000000
0000000000000000
0000000000000000
0000000000000000
0000000000000000
0000000000000000
ENDCHAR
STARTCHAR U+00FA
ENCODING 250
SWIDTH 1000 0
DWIDTH 36 0
BBX 62 80 -13 -16
BITMAP
0000000000000000
0000000000000000
0000000000000000
0000000000000000
0000000000000000
0000000000000000
0000000000000000
0000000000000000
000000001fff0000
000000003ffe0000
000000003ffe0000
000000003ffe0000
000000007ffc0000
000000007ffc0000
000000007ffc0000
00000000fff80000
000000fff8000000
000000fff8000000
000001fff0000000
000001fff0000000
000001fff0000000
000003ffe0000000
000003ffe0000000
000003ffe0000000
00007fc007fc0000
00007fc007fc0000
00007fc007fc0000
0000ff800ff80000
0000ff800ff80000
0000ff800ff80000
0001ff001ff00000
0001ff001ff00000
0001ff001ff00000
0003fe003fe00000
0003fe003fe00000
0003fe003fe00000
0007fc007fc00000
0007fc007fc00000
0007fc007fc00000
000ff800ff800000
000ff800ff800000
000ff800ff800000
001ff001ff000000
001ff001ff000000
001ff001ff000000
003fe003fe000000
003fe003fe000000
003fe003fe000000
007fc007fc000000
007fc007fc000000
007fc007fc000000
00ff800ff8000000
00ff800ff8000000
00ff800ff8000000
01ff001ff0000000
01ff001ff0000000
001fffffff000000
003ffffffe000000
003ffffffe000000
003ffffffe000000
007ffffffc000000
007ffffffc000000
007ffffffc000000
00fffffff8000000
0000000000000000
0000000000000000
0000000000000000
0000000000000000
0000000000000000
0000000000000000
0000000000000000
0000000000000000
0000000000000000
0000000000000000
0000000000000000
0000000000000000
0000000000000000
0000000000000000
0000000000000000
0000000000000000
ENDCHAR
STARTCHAR U+00F9
ENCODING 249
SWIDTH 1000 0
DWIDTH 36 0
BBX 62 80 -13 -16
BITMAP
0000000000000000
0000000000000000
0000000000000000
0000000000000000
0000000000000000
0000000000000000
0000000000000000
0000000000000000
0000001fff000000
0000003ffe000000
0000003ffe000000
0000003ffe000000
0000007ffc000000
0000007ffc000000
0000007ffc000000
000000fff8000000
00000000fff80000
00000000fff80000
00000001fff00000
00000001fff00000
00000001fff00000
00000003ffe00000
00000003ffe00000
00000003ffe00000
00007fc007fc0000
00007fc007fc0000
00007fc007fc0000
0000ff800ff80000
0000ff800ff80000
0000ff800ff80000
0001ff001ff00000
0001ff001ff00000
0001ff001ff00000
0003fe003fe00000
0003fe003fe00000
0003fe003fe00000
0007fc007fc00000
0007fc007fc00000
0007fc007fc00000
000ff800ff800000
000ff800ff800000
000ff800ff800000
001ff001ff000000
001ff001ff000000
001ff001ff000000
003fe003fe000000
003fe003fe000000
003fe003fe000000
007fc007fc000000
007fc007fc000000
007fc007fc000000
00ff800ff8000000
00ff800ff8000000
00ff800ff8000000
01ff001ff0000000
01ff001ff0000000
001fffffff000000
003ffffffe000000
003ffffffe000000
003ffffffe000000
007ffffffc000000
007ffffffc000000
007ffffffc000000
00fffffff8000000
0000000000000000
0000000000000000
0000000000000000
0000000000000000
0000000000000000
0000000000000000
0000000000000000
0000000000000000
0000000000000000
0000000000000000
0000000000000000
0000000000000000
0000000000000000
0000000000000000
0000000000000000
0000000000000000
ENDCHAR
STARTCHAR U+00F8
ENCODING 248
SWIDTH 1000 0
DWIDTH 36 0
BBX 62 80 -13 -16
BITMAP
0000000000000000
0000000000000000
0000000000000000
0000000000000000
0000000000000000
0000000000000000
0000000000000000
0000000000000000
0000000000000000
0000000000000000
0000000000000000
0000000000000000
0000000000000000
0000000000000000
0000000000000000
0000000000000000
00000000000ff800
00000000000ff800
00000000001ff000
00000000001ff000
00000000001ff000
00000000003fe000
00000000003fe000
00000000003fe000
000007fffffc0000
000007fffffc0000
000007fffffc0000
00000ffffff80000
00000ffffff80000
00000ffffff80000
00001ffffff00000
00001ffffff00000
0001ff01ffff0000
0003fe03fffe0000
0003fe03fffe0000
0003fe03fffe0000
0007fc07fffc0000
0007fc07fffc0000
0007fc07fffc0000
000ff80ffff80000
000ff8ff8ff80000
000ff8ff8ff80000
001ff1ff1ff00000
001ff1ff1ff00000
001ff1ff1ff00000
003fe3fe3fe00000
003fe3fe3fe00000
003fe3fe3fe00000
007fffc07fc00000
007fffc07fc00000
007fffc07fc00000
00ffff80ff800000
00ffff80ff800000
00ffff80ff800000
01ffff01ff000000
01ffff01ff000000
001ffffff0000000
003fffffe0000000
003fffffe0000000
003fffffe0000000
007fffffc0000000
007fffffc0000000
007fffffc0000000
00ffffff80000000
0ff8000000000000
0ff8000000000000
1ff0000000000000
1ff0000000000000
1ff0000000000000
3fe0000000000000
3fe0000000000000
3fe0000000000000
0000000000000000
0000000000000000
0000000000000000
0000000000000000
0000000000000000
0000000000000000
0000000000000000
0000000000000000
ENDCHAR
STARTCHAR U+0153
ENCODING 339
SWIDTH 1000 0
DWIDTH 36 0
BBX 62 80 -13 -16
BITMAP
0000000000000000
0000000000000000
0000000000000000
0000000000000000
0000000000000000
0000000000000000
0000000000000000
0000000000000000
0000000000000000
0000000000000000
0000000000000000
0000000000000000
0000000000000000
0000000000000000
0000000000000000
0000000000000000
0000000000000000
0000000000000000
0000000000000000
0000000000000000
0000000000000000
0000000000000000
0000000000000000
0000000000000000
000007fffffc0000
000007fffffc0000
000007fffffc0000
00000ffffff80000
00000ffffff80000
00000ffffff80000
00001ffffff00000
00001ffffff00000
0001ff1ff1ff0000
0003fe3fe3fe0000
0003fe3fe3fe0000
0003fe3fe3fe0000
0007fc7fc7fc0000
0007fc7fc7fc0000
0007fc7fc7fc0000
000ff8ff8ff80000
000ff8fffff80000
000ff8fffff80000
001ff1fffff00000
001ff1fffff00000
001ff1fffff00000
003fe3ffffe00000
003fe3ffffe00000
003fe3ffffe00000
007fc7fc00000000
007fc7fc00000000
007fc7fc00000000
00ff8ff800000000
00ff8ff800000000
00ff8ff800000000
01ff1ff000000000
01ff1ff000000000
001fffffff000000
003ffffffe000000
003ffffffe000000
003ffffffe000000
007ffffffc000000
007ffffffc000000
007ffffffc000000
00fffffff8000000
0000000000000000
0000000000000000
0000000000000000
0000000000000000
0000000000000000
0000000000000000
0000000000000000
0000000000000000
0000000000000000
0000000000000000
0000000000000000
0000000000000000
0000000000000000
0000000000000000
0000000000000000
0000000000000000
ENDCHAR
STARTCHAR U+00F6
ENCODING 246
SWIDTH 1000 0
DWIDTH 36 0
BBX 62 80 -13 -16
BITMAP
0000000000000000
0000000000000000
0000000000000000
0000000000000000
0000000000000000
0000000000000000
0000000000000000
0000000000000000
0000001ff01ff000
0000003fe03fe000
0000003fe03fe000
0000003fe03fe000
0000007fc07fc000
0000007fc07fc000
0000007fc07fc000
000000ff80ff8000
0000000000000000
0000000000000000
0000000000000000
0000000000000000
0000000000000000
0000000000000000
0000000000000000
0000000000000000
000007fffffc0000
000007fffffc0000
000007fffffc0000
00000ffffff80000
00000ffffff80000
00000ffffff80000
00001ffffff00000
00001ffffff00000
0001ff0001ff0000
0003fe0003fe0000
0003fe0003fe0000
0003fe0003fe0000
0007fc0007fc0000
0007fc0007fc0000
0007fc0007fc0000
000ff8000ff80000
000ff8000ff80000
000ff8000ff80000
001ff0001ff00000
001ff0001ff00000
001ff0001ff00000
003fe0003fe00000
003fe0003fe00000
003fe0003fe00000
007fc0007fc00000
007fc0007fc00000
007fc0007fc00000
00ff8000ff800000
00ff8000ff800000
00ff8000ff800000
01ff0001ff000000
01ff0001ff000000
001ffffff0000000
003fffffe0000000
003fffffe0000000
003fffffe0000000
007fffffc0000000
007fffffc0000000
007fffffc0000000
00ffffff80000000
0000000000000000
0000000000000000
0000000000000000
0000000000000000
0000000000000000
0000000000000000
0000000000000000
0000000000000000
0000000000000000
0000000000000000
0000000000000000
0000000000000000
0000000000000000
0000000000000000
0000000000000000
0000000000000000
ENDCHAR
STARTCHAR U+00F5
ENCODING 245
SWIDTH 1000 0
DWIDTH 36 0
BBX 62 80 -13 -16
BITMAP
00000007ffc7fc00
00000007ffc7fc00
00000007ffc7fc00
0000000fff8ff800
0000000fff8ff800
0000000fff8ff800
0000001fff1ff000
0000001fff1ff000
000001ff1fff0000
000003fe3ffe0000
000003fe3ffe0000
000003fe3ffe0000
000007fc7ffc0000
000007fc7ffc0000
000007fc7ffc0000
00000ff8fff80000
0000000000000000
0000000000000000
0000000000000000
0000000000000000
0000000000000000
0000000000000000
0000000000000000
0000000000000000
000007fffffc0000
000007fffffc0000
000007fffffc0000
00000ffffff80000
00000ffffff80000
00000ffffff80000
00001ffffff00000
00001ffffff00000
0001ff0001ff0000
0003fe0003fe0000
0003fe0003fe0000
0003fe0003fe0000
0007fc0007fc0000
0007fc0007fc0000
0007fc0007fc0000
000ff8000ff80000
000ff8000ff80000
000ff8000ff80000
001ff0001ff00000
001ff0001ff00000
001ff0001ff00000
003fe0003fe00000
003fe0003fe00000
003fe0003fe00000
007fc0007fc00000
007fc0007fc00000
007fc0007fc00000
00ff8000ff800000
00ff8000ff800000
00ff8000ff800000
01ff0001ff000000
01ff0001ff000000
001ffffff0000000
003fffffe0000000
003fffffe0000000
003fffffe0000000
007fffffc0000000
007fffffc0000000
007fffffc0000000
00ffffff80000000
0000000000000000
0000000000000000
0000000000000000
0000000000000000
0000000000000000
0000000000000000
0000000000000000
0000000000000000
0000000000000000
0000000000000000
0000000000000000
0000000000000000
0000000000000000
0000000000000000
0000000000000000
0000000000000000
ENDCHAR
STARTCHAR U+00F4
ENCODING 244
SWIDTH 1000 0
DWIDTH 36 0
BBX 62 80 -13 -16
BITMAP
000000007fffc000
000000007fffc000
000000007fffc000
00000000ffff8000
00000000ffff8000
00000000ffff8000
00000001ffff0000
00000001ffff0000
0000001ff01ff000
0000003fe03fe000
0000003fe03fe000
0000003fe03fe000
0000007fc07fc000
0000007fc07fc000
0000007fc07fc000
000000ff80ff8000
0000000000000000
0000000000000000
0000000000000000
0000000000000000
0000000000000000
0000000000000000
0000000000000000
0000000000000000
000007fffffc0000
000007fffffc0000
000007fffffc0000
00000ffffff80000
00000ffffff80000
00000ffffff80000
00001ffffff00000
00001ffffff00000
0001ff0001ff0000
0003fe0003fe0000
0003fe0003fe0000
0003fe0003fe0000
0007fc0007fc0000
0007fc0007fc0000
0007fc0007fc0000
000ff8000ff80000
000ff8000ff80000
000ff8000ff80000
001ff0001ff00000
001ff0001ff00000
001ff0001ff00000
003fe0003fe00000
003fe0003fe00000
003fe0003fe00000
007fc0007fc00000
007fc0007fc00000
007fc0007fc00000
00ff8000ff800000
00ff8000ff800000
00ff8000ff800000
01ff0001ff000000
01ff0001ff000000
001ffffff0000000
003fffffe0000000
003fffffe0000000
003fffffe0000000
007fffffc0000000
007fffffc0000000
007fffffc0000000
00ffffff80000000
0000000000000000
0000000000000000
0000000000000000
0000000000000000
0000000000000000
0000000000000000
0000000000000000
0000000000000000
0000000000000000
0000000000000000
0000000000000000
0000000000000000
0000000000000000
0000000000000000
0000000000000000
0000000000000000
ENDCHAR
STARTCHAR U+00F3
ENCODING 243
SWIDTH 1000 0
DWIDTH 36 0
BBX 62 80 -13 -16
BITMAP
0000000000000000
0000000000000000
0000000000000000
0000000000000000
0000000000000000
0000000000000000
0000000000000000
0000000000000000
000000001fff0000
000000003ffe0000
000000003ffe0000
000000003ffe0000
000000007ffc0000
000000007ffc0000
000000007ffc0000
00000000fff80000
000000fff8000000
000000fff8000000
000001fff0000000
000001fff0000000
000001fff0000000
000003ffe0000000
000003ffe0000000
000003ffe0000000
000007fffffc0000
000007fffffc0000
000007fffffc0000
00000ffffff80000
00000ffffff80000
00000ffffff80000
00001ffffff00000
00001ffffff00000
0001ff0001ff0000
0003fe0003fe0000
0003fe0003fe0000
0003fe0003fe0000
0007fc0007fc0000
0007fc0007fc0000
0007fc0007fc0000
000ff8000ff80000
000ff8000ff80000
000ff8000ff80000
001ff0001ff00000
001ff0001ff00000
001ff0001ff00000
003fe0003fe00000
003fe0003fe00000
003fe0003fe00000
007fc0007fc00000
007fc0007fc00000
007fc0007fc00000
00ff8000ff800000
00ff8000ff800000
00ff8000ff800000
01ff0001ff000000
01ff0001ff000000
001ffffff0000000
003fffffe0000000
003fffffe0000000
003fffffe0000000
007fffffc0000000
007fffffc0000000
007fffffc0000000
00ffffff80000000
0000000000000000
0000000000000000
0000000000000000
0000000000000000
0000000000000000
0000000000000000
0000000000000000
0000000000000000
0000000000000000
0000000000000000
0000000000000000
0000000000000000
0000000000000000
0000000000000000
0000000000000000
0000000000000000
ENDCHAR
STARTCHAR U+00F2
ENCODING 242
SWIDTH 1000 0
DWIDTH 36 0
BBX 62 80 -13 -16
BITMAP
0000000000000000
0000000000000000
0000000000000000
0000000000000000
0000000000000000
0000000000000000
0000000000000000
0000000000000000
00000001fff00000
00000003ffe00000
00000003ffe00000
00000003ffe00000
00000007ffc00000
00000007ffc00000
00000007ffc00000
0000000fff800000
000000000fff8000
000000000fff8000
000000001fff0000
000000001fff0000
000000001fff0000
000000003ffe0000
000000003ffe0000
000000003ffe0000
000007fffffc0000
000007fffffc0000
000007fffffc0000
00000ffffff80000
00000ffffff80000
00000ffffff80000
00001ffffff00000
00001ffffff00000
0001ff0001ff0000
0003fe0003fe0000
0003fe0003fe0000
0003fe0003fe0000
0007fc0007fc0000
0007fc0007fc0000
0007fc0007fc0000
000ff8000ff80000
000ff8000ff80000
000ff8000ff80000
001ff0001ff00000
001ff0001ff00000
001ff0001ff00000
003fe0003fe00000
003fe0003fe00000
003fe0003fe00000
007fc0007fc00000
007fc0007fc00000
007fc0007fc00000
00ff8000ff800000
00ff8000ff800000
00ff8000ff800000
01ff0001ff000000
01ff0001ff000000
001ffffff0000000
003fffffe0000000
003fffffe0000000
003fffffe0000000
007fffffc0000000
007fffffc0000000
007fffffc0000000
00ffffff80000000
0000000000000000
0000000000000000
0000000000000000
0000000000000000
0000000000000000
0000000000000000
0000000000000000
0000000000000000
0000000000000000
0000000000000000
0000000000000000
0000000000000000
0000000000000000
0000000000000000
0000000000000000
0000000000000000
ENDCHAR
STARTCHAR U+00F1
ENCODING 241
SWIDTH 1000 0
DWIDTH 36 0
BBX 62 80 -13 -16
BITMAP
00000007ffc7fc00
00000007ffc7fc00
00000007ffc7fc00
0000000fff8ff800
0000000fff8ff800
0000000fff8ff800
0000001fff1ff000
0000001fff1ff000
000001ff1fff0000
000003fe3ffe0000
000003fe3ffe0000
000003fe3ffe0000
000007fc7ffc0000
000007fc7ffc0000
000007fc7ffc0000
00000ff8fff80000
0000000000000000
0000000000000000
0000000000000000
0000000000000000
0000000000000000
0000000000000000
0000000000000000
0000000000000000
00007ffffffc0000
00007ffffffc0000
00007ffffffc0000
0000fffffff80000
0000fffffff80000
0000fffffff80000
0001fffffff00000
0001fffffff00000
0001fff001ff0000
0003ffe003fe0000
0003ffe003fe0000
0003ffe003fe0000
0007ffc007fc0000
0007ffc007fc0000
0007ffc007fc0000
000fff800ff80000
000ff8000ff80000
000ff8000ff80000
001ff0001ff00000
001ff0001ff00000
001ff0001ff00000
003fe0003fe00000
003fe0003fe00000
003fe0003fe00000
007fc0007fc00000
007fc0007fc00000
007fc0007fc00000
00ff8000ff800000
00ff8000ff800000
00ff8000ff800000
01ff0001ff000000
01ff0001ff000000
01ff0001ff000000
03fe0003fe000000
03fe0003fe000000
03fe0003fe000000
07fc0007fc000000
07fc0007fc000000
07fc0007fc000000
0ff8000ff8000000
0000000000000000
0000000000000000
0000000000000000
0000000000000000
0000000000000000
0000000000000000
0000000000000000
0000000000000000
0000000000000000
0000000000000000
0000000000000000
0000000000000000
0000000000000000
0000000000000000
0000000000000000
0000000000000000
ENDCHAR
STARTCHAR U+00F0
ENCODING 240
SWIDTH 1000 0
DWIDTH 36 0
BBX 62 80 -13 -16
BITMAP
0000000007fc7fc0
0000000007fc7fc0
0000000007fc7fc0
000000000ff8ff80
000000000ff8ff80
000000000ff8ff80
000000001ff1ff00
000000001ff1ff00
0000000001fff000
0000000003ffe000
0000000003ffe000
0000000003ffe000
0000000007ffc000
0000000007ffc000
0000000007ffc000
000000000fff8000
00000000ff8ff800
00000000ff8ff800
00000001ff1ff000
00000001ff1ff000
00000001ff1ff000
00000003fe3fe000
00000003fe3fe000
00000003fe3fe000
000007ffffffc000
000007ffffffc000
000007ffffffc000
00000fffffff8000
00000fffffff8000
00000fffffff8000
00001fffffff0000
00001fffffff0000
0001ff001fff0000
0003fe003ffe0000
0003fe003ffe0000
0003fe003ffe0000
0007fc007ffc0000
0007fc007ffc0000
0007fc007ffc0000
000ff800fff80000
000ff8000ff80000
000ff8000ff80000
001ff0001ff00000
001ff0001ff00000
001ff0001ff00000
003fe0003fe00000
003fe0003fe00000
003fe0003fe00000
007fc007fc000000
007fc007fc000000
007fc007fc000000
00ff800ff8000000
00ff800ff8000000
00ff800ff8000000
01ff001ff0000000
01ff001ff0000000
001fffff00000000
003ffffe00000000
003ffffe00000000
003ffffe00000000
007ffffc00000000
007ffffc00000000
007ffffc00000000
00fffff800000000
0000000000000000
0000000000000000
0000000000000000
0000000000000000
0000000000000000
0000000000000000
0000000000000000
0000000000000000
0000000000000000
0000000000000000
0000000000000000
0000000000000000
0000000000000000
0000000000000000
0000000000000000
0000000000000000
ENDCHAR
STARTCHAR U+00EF
ENCODING 239
SWIDTH 1000 0
DWIDTH 36 0
BBX 62 80 -13 -16
BITMAP
0000000000000000
0000000000000000
0000000000000000
0000000000000000
0000000000000000
0000000000000000
0000000000000000
0000000000000000
0000001ff01ff000
0000003fe03fe000
0000003fe03fe000
0000003fe03fe000
0000007fc07fc000
0000007fc07fc000
0000007fc07fc000
000000ff80ff8000
0000000000000000
0000000000000000
0000000000000000
0000000000000000
0000000000000000
0000000000000000
0000000000000000
0000000000000000
0000007ffc000000
0000007ffc000000
0000007ffc000000
000000fff8000000
000000fff8000000
000000fff8000000
000001fff0000000
000001fff0000000
0000001ff0000000
0000003fe0000000
0000003fe0000000
0000003fe0000000
0000007fc0000000
0000007fc0000000
0000007fc0000000
000000ff80000000
000000ff80000000
000000ff80000000
000001ff00000000
000001ff00000000
000001ff00000000
000003fe00000000
000003fe00000000
000003fe00000000
000007fc00000000
000007fc00000000
000007fc00000000
00000ff800000000
00000ff800000000
00000ff800000000
00001ff000000000
00001ff000000000
001ffffff0000000
003fffffe0000000
003fffffe0000000
003fffffe0000000
007fffffc0000000
007fffffc0000000
007fffffc0000000
00ffffff80000000
0000000000000000
0000000000000000
0000000000000000
0000000000000000
0000000000000000
0000000000000000
0000000000000000
0000000000000000
0000000000000000
0000000000000000
0000000000000000
0000000000000000
0000000000000000
0000000000000000
0000000000000000
0000000000000000
ENDCHAR
STARTCHAR U+00EE
ENCODING 238
SWIDTH 1000 0
DWIDTH 36 0
BBX 62 80 -13 -16
BITMAP
000000007fffc000
000000007fffc000
000000007fffc000
00000000ffff8000
00000000ffff8000
00000000ffff8000
00000001ffff0000
00000001ffff0000
0000001ff01ff000
0000003fe03fe000
0000003fe03fe000
0000003fe03fe000
0000007fc07fc000
0000007fc07fc000
0000007fc07fc000
000000ff80ff8000
0000000000000000
0000000000000000
0000000000000000
0000000000000000
0000000000000000
0000000000000000
0000000000000000
0000000000000000
0000007ffc000000
0000007ffc000000
0000007ffc000000
000000fff8000000
000000fff8000000
000000fff8000000
000001fff0000000
000001fff0000000
0000001ff0000000
0000003fe0000000
0000003fe0000000
0000003fe0000000
0000007fc0000000
0000007fc0000000
0000007fc0000000
000000ff80000000
000000ff80000000
000000ff80000000
000001ff00000000
000001ff00000000
000001ff00000000
000003fe00000000
000003fe00000000
000003fe00000000
000007fc00000000
000007fc00000000
000007fc00000000
00000ff800000000
00000ff800000000
00000ff800000000
00001ff000000000
00001ff000000000
001ffffff0000000
003fffffe0000000
003fffffe0000000
003fffffe0000000
007fffffc0000000
007fffffc0000000
007fffffc0000000
00ffffff80000000
0000000000000000
0000000000000000
0000000000000000
0000000000000000
0000000000000000
0000000000000000
0000000000000000
0000000000000000
0000000000000000
0000000000000000
0000000000000000
0000000000000000
0000000000000000
0000000000000000
0000000000000000
0000000000000000
ENDCHAR
STARTCHAR U+00ED
ENCODING 237
SWIDTH 1000 0
DWIDTH 36 0
BBX 62 80 -13 -16
BITMAP
0000000000000000
0000000000000000
0000000000000000
0000000000000000
0000000000000000
0000000000000000
0000000000000000
0000000000000000
000000001fff0000
000000003ffe0000
000000003ffe0000
000000003ffe0000
000000007ffc0000
000000007ffc0000
000000007ffc0000
00000000fff80000
000000fff8000000
000000fff8000000
000001fff0000000
000001fff0000000
000001fff0000000
000003ffe0000000
000003ffe0000000
000003ffe0000000
0000007ffc000000
0000007ffc000000
0000007ffc000000
000000fff8000000
000000fff8000000
000000fff8000000
000001fff0000000
000001fff0000000
0000001ff0000000
0000003fe0000000
0000003fe0000000
0000003fe0000000
0000007fc0000000
0000007fc0000000
0000007fc0000000
000000ff80000000
000000ff80000000
000000ff80000000
000001ff00000000
000001ff00000000
000001ff00000000
000003fe00000000
000003fe00000000
000003fe00000000
000007fc00000000
000007fc00000000
000007fc00000000
00000ff800000000
00000ff800000000
00000ff800000000
00001ff000000000
00001ff000000000
001ffffff0000000
003fffffe0000000
003fffffe0000000
003fffffe0000000
007fffffc0000000
007fffffc0000000
007fffffc0000000
00ffffff80000000
0000000000000000
0000000000000000
0000000000000000
0000000000000000
0000000000000000
0000000000000000
0000000000000000
0000000000000000
0000000000000000
0000000000000000
0000000000000000
0000000000000000
0000000000000000
0000000000000000
0000000000000000
0000000000000000
ENDCHAR
STARTCHAR U+00EC
ENCODING 236
SWIDTH 1000 0
DWIDTH 36 0
BBX 62 80 -13 -16
BITMAP
0000000000000000
0000000000000000
0000000000000000
0000000000000000
0000000000000000
0000000000000000
0000000000000000
0000000000000000
0000001fff000000
0000003ffe000000
0000003ffe000000
0000003ffe000000
0000007ffc000000
0000007ffc000000
0000007ffc000000
000000fff8000000
00000000fff80000
00000000fff80000
00000001fff00000
00000001fff00000
00000001fff00000
00000003ffe00000
00000003ffe00000
00000003ffe00000
0000007ffc000000
0000007ffc000000
0000007ffc000000
000000fff8000000
000000fff8000000
000000fff8000000
000001fff0000000
000001fff0000000
0000001ff0000000
0000003fe0000000
0000003fe0000000
0000003fe0000000
0000007fc0000000
0000007fc0000000
0000007fc0000000
000000ff80000000
000000ff80000000
000000ff80000000
000001ff00000000
000001ff00000000
000001ff00000000
000003fe00000000
000003fe00000000
000003fe00000000
000007fc00000000
000007fc00000000
000007fc00000000
00000ff800000000
00000ff800000000
00000ff800000000
00001ff000000000
00001ff000000000
001ffffff0000000
003fffffe0000000
003fffffe0000000
003fffffe0000000
007fffffc0000000
007fffffc0000000
007fffffc0000000
00ffffff80000000
0000000000000000
0000000000000000
0000000000000000
0000000000000000
0000000000000000
0000000000000000
0000000000000000
0000000000000000
0000000000000000
0000000000000000
0000000000000000
0000000000000000
0000000000000000
0000000000000000
0000000000000000
0000000000000000
ENDCHAR
STARTCHAR U+00EB
ENCODING 235
SWIDTH 1000 0
DWIDTH 36 0
BBX 62 80 -13 -16
BITMAP
0000000000000000
0000000000000000
0000000000000000
0000000000000000
0000000000000000
0000000000000000
0000000000000000
0000000000000000
0000001ff01ff000
0000003fe03fe000
0000003fe03fe000
0000003fe03fe000
0000007fc07fc000
0000007fc07fc000
0000007fc07fc000
000000ff80ff8000
0000000000000000
0000000000000000
0000000000000000
0000000000000000
0000000000000000
0000000000000000
0000000000000000
0000000000000000
000007fffffc0000
000007fffffc0000
000007fffffc0000
00000ffffff80000
00000ffffff80000
00000ffffff80000
00001ffffff00000
00001ffffff00000
0001ff0001ff0000
0003fe0003fe0000
0003fe0003fe0000
0003fe0003fe0000
0007fc0007fc0000
0007fc0007fc0000
0007fc0007fc0000
000ff8000ff80000
000ffffffff80000
000ffffffff80000
001ffffffff00000
001ffffffff00000
001ffffffff00000
003fffffffe00000
003fffffffe00000
003fffffffe00000
007fc00000000000
007fc00000000000
007fc00000000000
00ff800000000000
00ff800000000000
00ff800000000000
01ff000000000000
01ff000000000000
001ffffff0000000
003fffffe0000000
003fffffe0000000
003fffffe0000000
007fffffc0000000
007fffffc0000000
007fffffc0000000
00ffffff80000000
0000000000000000
0000000000000000
0000000000000000
0000000000000000
0000000000000000
0000000000000000
0000000000000000
0000000000000000
0000000000000000
0000000000000000
0000000000000000
0000000000000000
0000000000000000
0000000000000000
0000000000000000
0000000000000000
ENDCHAR
STARTCHAR U+00EA
ENCODING 234
SWIDTH 1000 0
DWIDTH 36 0
BBX 62 80 -13 -16
BITMAP
000000007fffc000
000000007fffc000
000000007fffc000
00000000ffff8000
00000000ffff8000
00000000ffff8000
00000001ffff0000
00000001ffff0000
0000001ff01ff000
0000003fe03fe000
0000003fe03fe000
0000003fe03fe000
0000007fc07fc000
0000007fc07fc000
0000007fc07fc000
000000ff80ff8000
0000000000000000
0000000000000000
0000000000000000
0000000000000000
0000000000000000
0000000000000000
0000000000000000
0000000000000000
000007fffffc0000
000007fffffc0000
000007fffffc0000
00000ffffff80000
00000ffffff80000
00000ffffff80000
00001ffffff00000
00001ffffff00000
0001ff0001ff0000
0003fe0003fe0000
0003fe0003fe0000
0003fe0003fe0000
0007fc0007fc0000
0007fc0007fc0000
0007fc0007fc0000
000ff8000ff80000
000ffffffff80000
000ffffffff80000
001ffffffff00000
001ffffffff00000
001ffffffff00000
003fffffffe00000
003fffffffe00000
003fffffffe00000
007fc00000000000
007fc00000000000
007fc00000000000
00ff800000000000
00ff800000000000
00ff800000000000
01ff000000000000
01ff000000000000
001ffffff0000000
003fffffe0000000
003fffffe0000000
003fffffe0000000
007fffffc0000000
007fffffc0000000
007fffffc0000000
00ffffff80000000
0000000000000000
0000000000000000
0000000000000000
0000000000000000
0000000000000000
0000000000000000
0000000000000000
0000000000000000
0000000000000000
0000000000000000
0000000000000000
0000000000000000
0000000000000000
0000000000000000
0000000000000000
0000000000000000
ENDCHAR
STARTCHAR U+00E9
ENCODING 233
SWIDTH 1000 0
DWIDTH 36 0
BBX 62 80 -13 -16
BITMAP
0000000000000000
0000000000000000
0000000000000000
0000000000000000
0000000000000000
0000000000000000
0000000000000000
0000000000000000
000000001fff0000
000000003ffe0000
000000003ffe0000
000000003ffe0000
000000007ffc0000
000000007ffc0000
000000007ffc0000
00000000fff80000
000000fff8000000
000000fff8000000
000001fff0000000
000001fff0000000
000001fff0000000
000003ffe0000000
000003ffe0000000
000003ffe0000000
000007fffffc0000
000007fffffc0000
000007fffffc0000
00000ffffff80000
00000ffffff80000
00000ffffff80000
00001ffffff00000
00001ffffff00000
0001ff0001ff0000
0003fe0003fe0000
0003fe0003fe0000
0003fe0003fe0000
0007fc0007fc0000
0007fc0007fc0000
0007fc0007fc0000
000ff8000ff80000
000ffffffff80000
000ffffffff80000
001ffffffff00000
001ffffffff00000
001ffffffff00000
003fffffffe00000
003fffffffe00000
003fffffffe00000
007fc00000000000
007fc00000000000
007fc00000000000
00ff800000000000
00ff800000000000
00ff800000000000
01ff000000000000
01ff000000000000
001ffffff0000000
003fffffe0000000
003fffffe0000000
003fffffe0000000
007fffffc0000000
007fffffc0000000
007fffffc0000000
00ffffff80000000
0000000000000000
0000000000000000
0000000000000000
0000000000000000
0000000000000000
0000000000000000
0000000000000000
0000000000000000
0000000000000000
0000000000000000
0000000000000000
0000000000000000
0000000000000000
0000000000000000
0000000000000000
0000000000000000
ENDCHAR
STARTCHAR U+00E8
ENCODING 232
SWIDTH 1000 0
DWIDTH 36 0
BBX 62 80 -13 -16
BITMAP
0000000000000000
0000000000000000
0000000000000000
0000000000000000
0000000000000000
0000000000000000
0000000000000000
0000000000000000
00000001fff00000
00000003ffe00000
00000003ffe00000
00000003ffe00000
00000007ffc00000
00000007ffc00000
00000007ffc00000
0000000fff800000
000000000fff8000
000000000fff8000
000000001fff0000
000000001fff0000
000000001fff0000
000000003ffe0000
000000003ffe0000
000000003ffe0000
000007fffffc0000
000007fffffc0000
000007fffffc0000
00000ffffff80000
00000ffffff80000
00000ffffff80000
00001ffffff00000
00001ffffff00000
0001ff0001ff0000
0003fe0003fe0000
0003fe0003fe0000
0003fe0003fe0000
0007fc0007fc0000
0007fc0007fc0000
0007fc0007fc0000
000ff8000ff80000
000ffffffff80000
000ffffffff80000
001ffffffff00000
001ffffffff00000
001ffffffff00000
003fffffffe00000
003fffffffe00000
003fffffffe00000
007fc00000000000
007fc00000000000
007fc00000000000
00ff800000000000
00ff800000000000
00ff800000000000
01ff000000000000
01ff000000000000
001ffffff0000000
003fffffe0000000
003fffffe0000000
003fffffe0000000
007fffffc0000000
007fffffc0000000
007fffffc0000000
00ffffff80000000
0000000000000000
0000000000000000
0000000000000000
0000000000000000
0000000000000000
0000000000000000
0000000000000000
0000000000000000
0000000000000000
0000000000000000
0000000000000000
0000000000000000
0000000000000000
0000000000000000
0000000000000000
0000000000000000
ENDCHAR
STARTCHAR U+00E7
ENCODING 231
SWIDTH 1000 0
DWIDTH 36 0
BBX 62 80 -13 -16
BITMAP
0000000000000000
0000000000000000
0000000000000000
0000000000000000
0000000000000000
0000000000000000
0000000000000000
0000000000000000
0000000000000000
0000000000000000
0000000000000000
0000000000000000
0000000000000000
0000000000000000
0000000000000000
0000000000000000
0000000000000000
0000000000000000
0000000000000000
0000000000000000
0000000000000000
0000000000000000
0000000000000000
0000000000000000
000007fffffc0000
000007fffffc0000
000007fffffc0000
00000ffffff80000
00000ffffff80000
00000ffffff80000
00001ffffff00000
00001ffffff00000
0001ff0001ff0000
0003fe0003fe0000
0003fe0003fe0000
0003fe0003fe0000
0007fc0007fc0000
0007fc0007fc0000
0007fc0007fc0000
000ff8000ff80000
000ff80000000000
000ff80000000000
001ff00000000000
001ff00000000000
001ff00000000000
003fe00000000000
003fe00000000000
003fe00000000000
007fc0007fc00000
007fc0007fc00000
007fc0007fc00000
00ff8000ff800000
00ff8000ff800000
00ff8000ff800000
01ff0001ff000000
01ff0001ff000000
001ffffff0000000
003fffffe0000000
003fffffe0000000
003fffffe0000000
007fffffc0000000
007fffffc0000000
007fffffc0000000
00ffffff80000000
00000ff800000000
00000ff800000000
00001ff000000000
00001ff000000000
00001ff000000000
00003fe000000000
00003fe000000000
00003fe000000000
007fffc000000000
007fffc000000000
007fffc000000000
00ffff8000000000
00ffff8000000000
00ffff8000000000
01ffff0000000000
01ffff0000000000
ENDCHAR
STARTCHAR U+00E6
ENCODING 230
SWIDTH 1000 0
DWIDTH 36 0
BBX 62 80 -13 -16
BITMAP
0000000000000000
0000000000000000
0000000000000000
0000000000000000
0000000000000000
0000000000000000
0000000000000000
0000000000000000
0000000000000000
0000000000000000
0000000000000000
0000000000000000
0000000000000000
0000000000000000
0000000000000000
0000000000000000
0000000000000000
0000000000000000
0000000000000000
0000000000000000
0000000000000000
0000000000000000
0000000000000000
0000000000000000
000007fffffc0000
000007fffffc0000
000007fffffc0000
00000ffffff80000
00000ffffff80000
00000ffffff80000
00001ffffff00000
00001ffffff00000
0000001ff1ff0000
0000003fe3fe0000
0000003fe3fe0000
0000003fe3fe0000
0000007fc7fc0000
0000007fc7fc0000
0000007fc7fc0000
000000ff8ff80000
0000fffffff80000
0000fffffff80000
0001fffffff00000
0001fffffff00000
0001fffffff00000
0003ffffffe00000
0003ffffffe00000
0003ffffffe00000
007fc7fc00000000
007fc7fc00000000
007fc7fc00000000
00ff8ff800000000
00ff8ff800000000
00ff8ff800000000
01ff1ff000000000
01ff1ff000000000
001fffffff000000
003ffffffe000000
003ffffffe000000
003ffffffe000000
007ffffffc000000
007ffffffc000000
007ffffffc000000
00fffffff8000000
0000000000000000
0000000000000000
0000000000000000
0000000000000000
0000000000000000
0000000000000000
0000000000000000
0000000000000000
0000000000000000
0000000000000000
0000000000000000
0000000000000000
0000000000000000
0000000000000000
0000000000000000
0000000000000000
ENDCHAR
STARTCHAR U+00E5
ENCODING 229
SWIDTH 1000 0
DWIDTH 36 0
BBX 62 80 -13 -16
BITMAP
000000007fffc000
000000007fffc000
000000007fffc000
00000000ffff8000
00000000ffff8000
00000000ffff8000
00000001ffff0000
00000001ffff0000
0000001ff01ff000
0000003fe03fe000
0000003fe03fe000
0000003fe03fe000
0000007fc07fc000
0000007fc07fc000
0000007fc07fc000
000000ff80ff8000
0000000ffff80000
0000000ffff80000
0000001ffff00000
0000001ffff00000
0000001ffff00000
0000003fffe00000
0000003fffe00000
0000003fffe00000
000007fffffc0000
000007fffffc0000
000007fffffc0000
00000ffffff80000
00000ffffff80000
00000ffffff80000
00001ffffff00000
00001ffffff00000
0000000001ff0000
0000000003fe0000
0000000003fe0000
0000000003fe0000
0000000007fc0000
0000000007fc0000
0000000007fc0000
000000000ff80000
0000fffffff80000
0000fffffff80000
0001fffffff00000
0001fffffff00000
0001fffffff00000
0003ffffffe00000
0003ffffffe00000
0003ffffffe00000
007fc007ffc00000
007fc007ffc00000
007fc007ffc00000
00ff800fff800000
00ff800fff800000
00ff800fff800000
01ff001fff000000
01ff001fff000000
001fffffff000000
003ffffffe000000
003ffffffe000000
003ffffffe000000
007ffffffc000000
007ffffffc000000
007ffffffc000000
00fffffff8000000
0000000000000000
0000000000000000
0000000000000000
0000000000000000
0000000000000000
0000000000000000
0000000000000000
0000000000000000
0000000000000000
0000000000000000
0000000000000000
0000000000000000
0000000000000000
0000000000000000
0000000000000000
0000000000000000
ENDCHAR
STARTCHAR U+00E4
ENCODING 228
SWIDTH 1000 0
DWIDTH 36 0
BBX 62 80 -13 -16
BITMAP
0000000000000000
0000000000000000
0000000000000000
0000000000000000
0000000000000000
0000000000000000
0000000000000000
0000000000000000
0000001ff01ff000
0000003fe03fe000
0000003fe03fe000
0000003fe03fe000
0000007fc07fc000
0000007fc07fc000
0000007fc07fc000
000000ff80ff8000
0000000000000000
0000000000000000
0000000000000000
0000000000000000
0000000000000000
0000000000000000
0000000000000000
0000000000000000
000007fffffc0000
000007fffffc0000
000007fffffc0000
00000ffffff80000
00000ffffff80000
00000ffffff80000
00001ffffff00000
00001ffffff00000
0000000001ff0000
0000000003fe0000
0000000003fe0000
0000000003fe0000
0000000007fc0000
0000000007fc0000
0000000007fc0000
000000000ff80000
0000fffffff80000
0000fffffff80000
0001fffffff00000
0001fffffff00000
0001fffffff00000
0003ffffffe00000
0003ffffffe00000
0003ffffffe00000
007fc007ffc00000
007fc007ffc00000
007fc007ffc00000
00ff800fff800000
00ff800fff800000
00ff800fff800000
01ff001fff000000
01ff001fff000000
001fffffff000000
003ffffffe000000
003ffffffe000000
003ffffffe000000
007ffffffc000000
007ffffffc000000
007ffffffc000000
00fffffff8000000
0000000000000000
0000000000000000
0000000000000000
0000000000000000
0000000000000000
0000000000000000
0000000000000000
0000000000000000
0000000000000000
0000000000000000
0000000000000000
0000000000000000
0000000000000000
0000000000000000
0000000000000000
0000000000000000
ENDCHAR
STARTCHAR U+00E3
ENCODING 227
SWIDTH 1000 0
DWIDTH 36 0
BBX 62 80 -13 -16
BITMAP
000000007ffc7fc0
000000007ffc7fc0
000000007ffc7fc0
00000000fff8ff80
00000000fff8ff80
00000000fff8ff80
00000001fff1ff00
00000001fff1ff00
0000001ff1fff000
0000003fe3ffe000
0000003fe3ffe000
0000003fe3ffe000
0000007fc7ffc000
0000007fc7ffc000
0000007fc7ffc000
000000ff8fff8000
0000000000000000
0000000000000000
0000000000000000
0000000000000000
0000000000000000
0000000000000000
0000000000000000
0000000000000000
000007fffffc0000
000007fffffc0000
000007fffffc0000
00000ffffff80000
00000ffffff80000
00000ffffff80000
00001ffffff00000
00001ffffff00000
0000000001ff0000
0000000003fe0000
0000000003fe0000
0000000003fe0000
0000000007fc0000
0000000007fc0000
0000000007fc0000
000000000ff80000
0000fffffff80000
0000fffffff80000
0001fffffff00000
0001fffffff00000
0001fffffff00000
0003ffffffe00000
0003ffffffe00000
0003ffffffe00000
007fc007ffc00000
007fc007ffc00000
007fc007ffc00000
00ff800fff800000
00ff800fff800000
00ff800fff800000
01ff001fff000000
01ff001fff000000
001fffffff000000
003ffffffe000000
003ffffffe000000
003ffffffe000000
007ffffffc000000
007ffffffc000000
007ffffffc000000
00fffffff8000000
0000000000000000
0000000000000000
0000000000000000
0000000000000000
0000000000000000
0000000000000000
0000000000000000
0000000000000000
0000000000000000
0000000000000000
0000000000000000
0000000000000000
0000000000000000
0000000000000000
0000000000000000
0000000000000000
ENDCHAR
STARTCHAR U+00E2
ENCODING 226
SWIDTH 1000 0
DWIDTH 36 0
BBX 62 80 -13 -16
BITMAP
000000007fffc000
000000007fffc000
000000007fffc000
00000000ffff8000
00000000ffff8000
00000000ffff8000
00000001ffff0000
00000001ffff0000
0000001ff01ff000
0000003fe03fe000
0000003fe03fe000
0000003fe03fe000
0000007fc07fc000
0000007fc07fc000
0000007fc07fc000
000000ff80ff8000
0000000000000000
0000000000000000
0000000000000000
0000000000000000
0000000000000000
0000000000000000
0000000000000000
0000000000000000
000007fffffc0000
000007fffffc0000
000007fffffc0000
00000ffffff80000
00000ffffff80000
00000ffffff80000
00001ffffff00000
00001ffffff00000
0000000001ff0000
0000000003fe0000
0000000003fe0000
0000000003fe0000
0000000007fc0000
0000000007fc0000
0000000007fc0000
000000000ff80000
0000fffffff80000
0000fffffff80000
0001fffffff00000
0001fffffff00000
0001fffffff00000
0003ffffffe00000
0003ffffffe00000
0003ffffffe00000
007fc007ffc00000
007fc007ffc00000
007fc007ffc00000
00ff800fff800000
00ff800fff800000
00ff800fff800000
01ff001fff000000
01ff001fff000000
001fffffff000000
003ffffffe000000
003ffffffe000000
003ffffffe000000
007ffffffc000000
007ffffffc000000
007ffffffc000000
00fffffff8000000
0000000000000000
0000000000000000
0000000000000000
0000000000000000
0000000000000000
0000000000000000
0000000000000000
0000000000000000
0000000000000000
0000000000000000
0000000000000000
0000000000000000
0000000000000000
0000000000000000
0000000000000000
0000000000000000
ENDCHAR
STARTCHAR U+00E1
ENCODING 225
SWIDTH 1000 0
DWIDTH 36 0
BBX 62 80 -13 -16
BITMAP
0000000000000000
0000000000000000
0000000000000000
0000000000000000
0000000000000000
0000000000000000
0000000000000000
0000000000000000
000000001fff0000
000000003ffe0000
000000003ffe0000
000000003ffe0000
000000007ffc0000
000000007ffc0000
000000007ffc0000
00000000fff80000
000000fff8000000
000000fff8000000
000001fff0000000
000001fff0000000
000001fff0000000
000003ffe0000000
000003ffe0000000
000003ffe0000000
000007fffffc0000
000007fffffc0000
000007fffffc0000
00000ffffff80000
00000ffffff80000
00000ffffff80000
00001ffffff00000
00001ffffff00000
0000000001ff0000
0000000003fe0000
0000000003fe0000
0000000003fe0000
0000000007fc0000
0000000007fc0000
0000000007fc0000
000000000ff80000
0000fffffff80000
0000fffffff80000
0001fffffff00000
0001fffffff00000
0001fffffff00000
0003ffffffe00000
0003ffffffe00000
0003ffffffe00000
007fc007ffc00000
007fc007ffc00000
007fc007ffc00000
00ff800fff800000
00ff800fff800000
00ff800fff800000
01ff001fff000000
01ff001fff000000
001fffffff000000
003ffffffe000000
003ffffffe000000
003ffffffe000000
007ffffffc000000
007ffffffc000000
007ffffffc000000
00fffffff8000000
0000000000000000
0000000000000000
0000000000000000
0000000000000000
0000000000000000
0000000000000000
0000000000000000
0000000000000000
0000000000000000
0000000000000000
0000000000000000
0000000000000000
0000000000000000
0000000000000000
0000000000000000
0000000000000000
ENDCHAR
STARTCHAR U+00E0
ENCODING 224
SWIDTH 1000 0
DWIDTH 36 0
BBX 62 80 -13 -16
BITMAP
0000000000000000
0000000000000000
0000000000000000
0000000000000000
0000000000000000
0000000000000000
0000000000000000
0000000000000000
00000001fff00000
00000003ffe00000
00000003ffe00000
00000003ffe00000
00000007ffc00000
00000007ffc00000
00000007ffc00000
0000000fff800000
000000000fff8000
000000000fff8000
000000001fff0000
000000001fff0000
000000001fff0000
000000003ffe0000
000000003ffe0000
000000003ffe0000
000007fffffc0000
000007fffffc0000
000007fffffc0000
00000ffffff80000
00000ffffff80000
00000ffffff80000
00001ffffff00000
00001ffffff00000
0000000001ff0000
0000000003fe0000
0000000003fe0000
0000000003fe0000
0000000007fc0000
0000000007fc0000
0000000007fc0000
000000000ff80000
0000fffffff80000
0000fffffff80000
0001fffffff00000
0001fffffff00000
0001fffffff00000
0003ffffffe00000
0003ffffffe00000
0003ffffffe00000
007fc007ffc00000
007fc007ffc00000
007fc007ffc00000
00ff800fff800000
00ff800fff800000
00ff800fff800000
01ff001fff000000
01ff001fff000000
001fffffff000000
003ffffffe000000
003ffffffe000000
003ffffffe000000
007ffffffc000000
007ffffffc000000
007ffffffc000000
00fffffff8000000
0000000000000000
0000000000000000
0000000000000000
0000000000000000
0000000000000000
0000000000000000
0000000000000000
0000000000000000
0000000000000000
0000000000000000
0000000000000000
0000000000000000
0000000000000000
0000000000000000
0000000000000000
0000000000000000
ENDCHAR
STARTCHAR U+00DF
ENCODING 223
SWIDTH 1000 0
DWIDTH 36 0
BBX 62 80 -13 -16
BITMAP
0000000000000000
0000000000000000
0000000000000000
0000000000000000
0000000000000000
0000000000000000
0000000000000000
0000000000000000
00000001ffff0000
00000003fffe0000
00000003fffe0000
00000003fffe0000
00000007fffc0000
00000007fffc0000
00000007fffc0000
0000000ffff80000
000000ff80ff8000
000000ff80ff8000
000001ff01ff0000
000001ff01ff0000
000001ff01ff0000
000003fe03fe0000
000003fe03fe0000
000003fe03fe0000
00007fc007fc0000
00007fc007fc0000
00007fc007fc0000
0000ff800ff80000
0000ff800ff80000
0000ff800ff80000
0001ff001ff00000
0001ff001ff00000
0001ffffff000000
0003fffffe000000
0003fffffe000000
0003fffffe000000
0007fffffc000000
0007fffffc000000
0007fffffc000000
000ffffff8000000
000ff800ff800000
000ff800ff800000
001ff001ff000000
001ff001ff000000
001ff001ff000000
003fe003fe000000
003fe003fe000000
003fe003fe000000
007fffc07fc00000
007fffc07fc00000
007fffc07fc00000
00ffff80ff800000
00ffff80ff800000
00ffff80ff800000
01ffff01ff000000
01ffff01ff000000
01ff1ffff0000000
03fe3fffe0000000
03fe3fffe0000000
03fe3fffe0000000
07fc7fffc0000000
07fc7fffc0000000
07fc7fffc0000000
0ff8ffff80000000
0ff8000000000000
0ff8000000000000
1ff0000000000000
1ff0000000000000
1ff0000000000000
3fe0000000000000
3fe0000000000000
3fe0000000000000
0000000000000000
0000000000000000
0000000000000000
0000000000000000
0000000000000000
0000000000000000
0000000000000000
0000000000000000
ENDCHAR
STARTCHAR U+00DE
ENCODING 222
SWIDTH 1000 0
DWIDTH 36 0
BBX 62 80 -13 -16
BITMAP
0000000000000000
0000000000000000
0000000000000000
0000000000000000
0000000000000000
0000000000000000
0000000000000000
0000000000000000
000001fff0000000
000003ffe0000000
000003ffe0000000
000003ffe0000000
000007ffc0000000
000007ffc0000000
000007ffc0000000
00000fff80000000
000000ffffff8000
000000ffffff8000
000001ffffff0000
000001ffffff0000
000001ffffff0000
000003fffffe0000
000003fffffe0000
000003fffffe0000
000007fc007fc000
000007fc007fc000
000007fc007fc000
00000ff800ff8000
00000ff800ff8000
00000ff800ff8000
00001ff001ff0000
00001ff001ff0000
00001ff001ff0000
00003fe003fe0000
00003fe003fe0000
00003fe003fe0000
00007fc007fc0000
00007fc007fc0000
00007fc007fc0000
0000ff800ff80000
0000ff800ff80000
0000ff800ff80000
0001ff001ff00000
0001ff001ff00000
0001ff001ff00000
0003fe003fe00000
0003fe003fe00000
0003fe003fe00000
0007fffffc000000
0007fffffc000000
0007fffffc000000
000ffffff8000000
000ffffff8000000
000ffffff8000000
001ffffff0000000
001ffffff0000000
01fff00000000000
03ffe00000000000
03ffe00000000000
03ffe00000000000
07ffc00000000000
07ffc00000000000
07ffc00000000000
0fff800000000000
0000000000000000
0000000000000000
0000000000000000
0000000000000000
0000000000000000
0000000000000000
0000000000000000
0000000000000000
0000000000000000
0000000000000000
0000000000000000
0000000000000000
0000000000000000
0000000000000000
0000000000000000
0000000000000000
ENDCHAR
STARTCHAR U+0178
ENCODING 376
SWIDTH 1000 0
DWIDTH 36 0
BBX 62 80 -13 -16
BITMAP
00000007fc07fc00
00000007fc07fc00
00000007fc07fc00
0000000ff80ff800
0000000ff80ff800
0000000ff80ff800
0000001ff01ff000
0000001ff01ff000
0000000000000000
0000000000000000
0000000000000000
0000000000000000
0000000000000000
0000000000000000
0000000000000000
0000000000000000
00000ff8000ff800
00000ff8000ff800
00001ff0001ff000
00001ff0001ff000
00001ff0001ff000
00003fe0003fe000
00003fe0003fe000
00003fe0003fe000
000007fc07fc0000
000007fc07fc0000
000007fc07fc0000
00000ff80ff80000
00000ff80ff80000
00000ff80ff80000
00001ff01ff00000
00001ff01ff00000
000001ffff000000
000003fffe000000
000003fffe000000
000003fffe000000
000007fffc000000
000007fffc000000
000007fffc000000
00000ffff8000000
000000ff80000000
000000ff80000000
000001ff00000000
000001ff00000000
000001ff00000000
000003fe00000000
000003fe00000000
000003fe00000000
000007fc00000000
000007fc00000000
000007fc00000000
00000ff800000000
00000ff800000000
00000ff800000000
00001ff000000000
00001ff000000000
00001ff000000000
00003fe000000000
00003fe000000000
00003fe000000000
00007fc000000000
00007fc000000000
00007fc000000000
0000ff8000000000
0000000000000000
0000000000000000
0000000000000000
0000000000000000
0000000000000000
0000000000000000
0000000000000000
0000000000000000
0000000000000000
0000000000000000
0000000000000000
0000000000000000
0000000000000000
0000000000000000
0000000000000000
0000000000000000
ENDCHAR
STARTCHAR U+00DC
ENCODING 220
SWIDTH 1000 0
DWIDTH 36 0
BBX 62 80 -13 -16
BITMAP
00000007fc07fc00
00000007fc07fc00
00000007fc07fc00
0000000ff80ff800
0000000ff80ff800
0000000ff80ff800
0000001ff01ff000
0000001ff01ff000
0000000000000000
0000000000000000
0000000000000000
0000000000000000
0000000000000000
0000000000000000
0000000000000000
0000000000000000
00000ff8000ff800
00000ff8000ff800
00001ff0001ff000
00001ff0001ff000
00001ff0001ff000
00003fe0003fe000
00003fe0003fe000
00003fe0003fe000
00007fc0007fc000
00007fc0007fc000
00007fc0007fc000
0000ff8000ff8000
0000ff8000ff8000
0000ff8000ff8000
0001ff0001ff0000
0001ff0001ff0000
0001ff0001ff0000
0003fe0003fe0000
0003fe0003fe0000
0003fe0003fe0000
0007fc0007fc0000
0007fc0007fc0000
0007fc0007fc0000
000ff8000ff80000
000ff8000ff80000
000ff8000ff80000
001ff0001ff00000
001ff0001ff00000
001ff0001ff00000
003fe0003fe00000
003fe0003fe00000
003fe0003fe00000
007fc0007fc00000
007fc0007fc00000
007fc0007fc00000
00ff8000ff800000
00ff8000ff800000
00ff8000ff800000
01ff0001ff000000
01ff0001ff000000
001ffffff0000000
003fffffe0000000
003fffffe0000000
003fffffe0000000
007fffffc0000000
007fffffc0000000
007fffffc0000000
00ffffff80000000
0000000000000000
0000000000000000
0000000000000000
0000000000000000
0000000000000000
0000000000000000
0000000000000000
0000000000000000
0000000000000000
0000000000000000
0000000000000000
0000000000000000
0000000000000000
0000000000000000
0000000000000000
0000000000000000
ENDCHAR
STARTCHAR U+00DB
ENCODING 219
SWIDTH 1000 0
DWIDTH 36 0
BBX 62 80 -13 -16
BITMAP
0000000007fc0000
0000000007fc0000
0000000007fc0000
000000000ff80000
000000000ff80000
000000000ff80000
000000001ff00000
000000001ff00000
00000001ffff0000
00000003fffe0000
00000003fffe0000
00000003fffe0000
00000007fffc0000
00000007fffc0000
0000000dfffc0000
0000000ffff40000
00000ff8000ff800
00000ff8000ff800
00001ff0001ff000
00001ff0001ff000
00001ff0001ff000
00003fe0003fe000
00003fe0003fe000
00003fe0003fe000
00007fc0007fc000
00007fc0007fc000
00007fc0007fc000
0000ff8000ff8000
0000ff8000ff8000
0000ff8000ff8000
0001ff0001ff0000
0001ff0001ff0000
0001ff0001ff0000
0003fe0003fe0000
0003fe0003fe0000
0003fe0003fe0000
0007fc0007fc0000
0007fc0007fc0000
0007fc0007fc0000
000ff8000ff80000
000ff8000ff80000
000ff8000ff80000
001ff0001ff00000
001ff0001ff00000
001ff0001ff00000
003fe0003fe00000
003fe0003fe00000
003fe0003fe00000
007fc0007fc00000
007fc0007fc00000
007fc0007fc00000
00ff8000ff800000
00ff8000ff800000
00ff8000ff800000
01ff0001ff000000
01ff0001ff000000
001ffffff0000000
003fffffe0000000
003fffffe0000000
003fffffe0000000
007fffffc0000000
007fffffc0000000
007fffffc0000000
00ffffff80000000
0000000000000000
0000000000000000
0000000000000000
0000000000000000
0000000000000000
0000000000000000
0000000000000000
0000000000000000
0000000000000000
0000000000000000
0000000000000000
0000000000000000
0000000000000000
0000000000000000
0000000000000000
0000000000000000
ENDCHAR
STARTCHAR U+00DA
ENCODING 218
SWIDTH 1000 0
DWIDTH 36 0
BBX 62 80 -13 -16
BITMAP
00000000007ffc00
00000000007ffc00
00000000007ffc00
0000000000fff800
0000000000fff800
0000000000fff800
0000000001fff000
0000000001fff000
00000001fff00000
00000003ffe00000
00000003ffe00000
00000003ffe00000
00000007ffc00000
00000007ffc00000
0000000dffc00000
0000000fff800000
00000ff8000ff800
00000ff8000ff800
00001ff0001ff000
00001ff0001ff000
00001ff0001ff000
00003fe0003fe000
00003fe0003fe000
00003fe0003fe000
00007fc0007fc000
00007fc0007fc000
00007fc0007fc000
0000ff8000ff8000
0000ff8000ff8000
0000ff8000ff8000
0001ff0001ff0000
0001ff0001ff0000
0001ff0001ff0000
0003fe0003fe0000
0003fe0003fe0000
0003fe0003fe0000
0007fc0007fc0000
0007fc0007fc0000
0007fc0007fc0000
000ff8000ff80000
000ff8000ff80000
000ff8000ff80000
001ff0001ff00000
001ff0001ff00000
001ff0001ff00000
003fe0003fe00000
003fe0003fe00000
003fe0003fe00000
007fc0007fc00000
007fc0007fc00000
007fc0007fc00000
00ff8000ff800000
00ff8000ff800000
00ff8000ff800000
01ff0001ff000000
01ff0001ff000000
001ffffff0000000
003fffffe0000000
003fffffe0000000
003fffffe0000000
007fffffc0000000
007fffffc0000000
007fffffc0000000
00ffffff80000000
0000000000000000
0000000000000000
0000000000000000
0000000000000000
0000000000000000
0000000000000000
0000000000000000
0000000000000000
0000000000000000
0000000000000000
0000000000000000
0000000000000000
0000000000000000
0000000000000000
0000000000000000
0000000000000000
ENDCHAR
STARTCHAR U+00D9
ENCODING 217
SWIDTH 1000 0
DWIDTH 36 0
BBX 62 80 -13 -16
BITMAP
00000007ffc00000
00000007ffc00000
00000007ffc00000
0000000fff800000
0000000fff800000
0000000fff800000
0000001fff000000
0000001fff000000
000000001fff0000
000000003ffe0000
000000003ffe0000
000000003ffe0000
000000007ffc0000
000000007ffc0000
000000007ffc0000
00000000fff40000
00000ff8000ff800
00000ff8000ff800
00001ff0001ff000
00001ff0001ff000
00001ff0001ff000
00003fe0003fe000
00003fe0003fe000
00003fe0003fe000
00007fc0007fc000
00007fc0007fc000
00007fc0007fc000
0000ff8000ff8000
0000ff8000ff8000
0000ff8000ff8000
0001ff0001ff0000
0001ff0001ff0000
0001ff0001ff0000
0003fe0003fe0000
0003fe0003fe0000
0003fe0003fe0000
0007fc0007fc0000
0007fc0007fc0000
0007fc0007fc0000
000ff8000ff80000
000ff8000ff80000
000ff8000ff80000
001ff0001ff00000
001ff0001ff00000
001ff0001ff00000
003fe0003fe00000
003fe0003fe00000
003fe0003fe00000
007fc0007fc00000
007fc0007fc00000
007fc0007fc00000
00ff8000ff800000
00ff8000ff800000
00ff8000ff800000
01ff0001ff000000
01ff0001ff000000
001ffffff0000000
003fffffe0000000
003fffffe0000000
003fffffe0000000
007fffffc0000000
007fffffc0000000
007fffffc0000000
00ffffff80000000
0000000000000000
0000000000000000
0000000000000000
0000000000000000
0000000000000000
0000000000000000
0000000000000000
0000000000000000
0000000000000000
0000000000000000
0000000000000000
0000000000000000
0000000000000000
0000000000000000
0000000000000000
0000000000000000
ENDCHAR
STARTCHAR U+00D8
ENCODING 216
SWIDTH 1000 0
DWIDTH 36 0
BBX 62 80 -13 -16
BITMAP
0000000000007fc0
0000000000007fc0
0000000000007fc0
000000000000ff80
000000000000ff80
000000000000ff80
000000000001ff00
000000000001ff00
0000001ffffff000
0000003fffffe000
0000003fffffe000
0000003fffffe000
0000007fffffc000
0000007fffffc000
0000007fffffc000
000000ffffff8000
00000ff800fff800
00000ff800fff800
00001ff001fff000
00001ff001fff000
00001ff001fff000
00003fe003ffe000
00003fe003ffe000
00003fe003ffe000
00007fc07fffc000
00007fc07fffc000
00007fc07fffc000
0000ff80ffff8000
0000ff80ffff8000
0000ff80ffff8000
0001ff01ffff0000
0001ff01ffff0000
0001ff1ff1ff0000
0003fe3fe3fe0000
0003fe3fe3fe0000
0003fe3fe3fe0000
0007fc7fc7fc0000
0007fc7fc7fc0000
0007fc7fc7fc0000
000ff8ff8ff80000
000ffff80ff80000
000ffff80ff80000
001ffff01ff00000
001ffff01ff00000
001ffff01ff00000
003fffe03fe00000
003fffe03fe00000
003fffe03fe00000
007ffc007fc00000
007ffc007fc00000
007ffc007fc00000
00fff800ff800000
00fff800ff800000
00fff800ff800000
01fff001ff000000
01fff001ff000000
001ffffff0000000
003fffffe0000000
003fffffe0000000
003fffffe0000000
007fffffc0000000
007fffffc0000000
007fffffc0000000
00ffffff80000000
0ff8000000000000
0ff8000000000000
1ff0000000000000
1ff0000000000000
1ff0000000000000
3fe0000000000000
3fe0000000000000
3fe0000000000000
0000000000000000
0000000000000000
0000000000000000
0000000000000000
0000000000000000
0000000000000000
0000000000000000
0000000000000000
ENDCHAR
STARTCHAR U+0152
ENCODING 338
SWIDTH 1000 0
DWIDTH 36 0
BBX 62 80 -13 -16
BITMAP
0000000000000000
0000000000000000
0000000000000000
0000000000000000
0000000000000000
0000000000000000
0000000000000000
0000000000000000
0000001fffffff00
0000003ffffffe00
0000003ffffffe00
0000003ffffffe00
0000007ffffffc00
0000007ffffffc00
0000007ffffffc00
000000fffffff800
00000ff8ff800000
00000ff8ff800000
00001ff1ff000000
00001ff1ff000000
00001ff1ff000000
00003fe3fe000000
00003fe3fe000000
00003fe3fe000000
00007fc7fc000000
00007fc7fc000000
00007fc7fc000000
0000ff8ff8000000
0000ff8ff8000000
0000ff8ff8000000
0001ff1ff0000000
0001ff1ff0000000
0001ff1ffff00000
0003fe3fffe00000
0003fe3fffe00000
0003fe3fffe00000
0007fc7fffc00000
0007fc7fffc00000
0007fc7fffc00000
000ff8ffff800000
000ff8ff80000000
000ff8ff80000000
001ff1ff00000000
001ff1ff00000000
001ff1ff00000000
003fe3fe00000000
003fe3fe00000000
003fe3fe00000000
007fc7fc00000000
007fc7fc00000000
007fc7fc00000000
00ff8ff800000000
00ff8ff800000000
00ff8ff800000000
01ff1ff000000000
01ff1ff000000000
001fffffff000000
003ffffffe000000
003ffffffe000000
003ffffffe000000
007ffffffc000000
007ffffffc000000
007ffffffc000000
00fffffff8000000
0000000000000000
0000000000000000
0000000000000000
0000000000000000
0000000000000000
0000000000000000
0000000000000000
0000000000000000
0000000000000000
0000000000000000
0000000000000000
0000000000000000
0000000000000000
0000000000000000
0000000000000000
0000000000000000
ENDCHAR
STARTCHAR U+00D6
ENCODING 214
SWIDTH 1000 0
DWIDTH 36 0
BBX 62 80 -13 -16
BITMAP
00000007fc07fc00
00000007fc07fc00
00000007fc07fc00
0000000ff80ff800
0000000ff80ff800
0000000ff80ff800
0000001ff01ff000
0000001ff01ff000
0000000000000000
0000000000000000
0000000000000000
0000000000000000
0000000000000000
0000000000000000
0000000000000000
0000000000000000
000000ffffff8000
000000ffffff8000
000001ffffff0000
000001ffffff0000
000001ffffff0000
000003fffffe0000
000003fffffe0000
000003fffffe0000
00007fc0007fc000
00007fc0007fc000
00007fc0007fc000
0000ff8000ff8000
0000ff8000ff8000
0000ff8000ff8000
0001ff0001ff0000
0001ff0001ff0000
0001ff0001ff0000
0003fe0003fe0000
0003fe0003fe0000
0003fe0003fe0000
0007fc0007fc0000
0007fc0007fc0000
0007fc0007fc0000
000ff8000ff80000
000ff8000ff80000
000ff8000ff80000
001ff0001ff00000
001ff0001ff00000
001ff0001ff00000
003fe0003fe00000
003fe0003fe00000
003fe0003fe00000
007fc0007fc00000
007fc0007fc00000
007fc0007fc00000
00ff8000ff800000
00ff8000ff800000
00ff8000ff800000
01ff0001ff000000
01ff0001ff000000
001ffffff0000000
003fffffe0000000
003fffffe0000000
003fffffe0000000
007fffffc0000000
007fffffc0000000
007fffffc0000000
00ffffff80000000
0000000000000000
0000000000000000
0000000000000000
0000000000000000
0000000000000000
0000000000000000
0000000000000000
0000000000000000
0000000000000000
0000000000000000
0000000000000000
0000000000000000
0000000000000000
0000000000000000
0000000000000000
0000000000000000
ENDCHAR
STARTCHAR U+00D5
ENCODING 213
SWIDTH 1000 0
DWIDTH 36 0
BBX 62 80 -13 -16
BITMAP
00000007ffc7fc00
00000007ffc7fc00
00000007ffc7fc00
0000000fff8ff800
0000000fff8ff800
0000000fff8ff800
0000001fff1ff000
0000001fff1ff000
000001ff1fff0000
000003fe3ffe0000
000003fe3ffe0000
000003fe3ffe0000
000007fc7ffc0000
000007fc7ffc0000
000007fc7ffc0000
00000ff8fff80000
000000ffffff8000
000000ffffff8000
000001ffffff0000
000001ffffff0000
000001ffffff0000
000003fffffe0000
000003fffffe0000
000003fffffe0000
00007fc0007fc000
00007fc0007fc000
00007fc0007fc000
0000ff8000ff8000
0000ff8000ff8000
0000ff8000ff8000
0001ff0001ff0000
0001ff0001ff0000
0001ff0001ff0000
0003fe0003fe0000
0003fe0003fe0000
0003fe0003fe0000
0007fc0007fc0000
0007fc0007fc0000
0007fc0007fc0000
000ff8000ff80000
000ff8000ff80000
000ff8000ff80000
001ff0001ff00000
001ff0001ff00000
001ff0001ff00000
003fe0003fe00000
003fe0003fe00000
003fe0003fe00000
007fc0007fc00000
007fc0007fc00000
007fc0007fc00000
00ff8000ff800000
00ff8000ff800000
00ff8000ff800000
01ff0001ff000000
01ff0001ff000000
001ffffff0000000
003fffffe0000000
003fffffe0000000
003fffffe0000000
007fffffc0000000
007fffffc0000000
007fffffc0000000
00ffffff80000000
0000000000000000
0000000000000000
0000000000000000
0000000000000000
0000000000000000
0000000000000000
0000000000000000
0000000000000000
0000000000000000
0000000000000000
0000000000000000
0000000000000000
0000000000000000
0000000000000000
0000000000000000
0000000000000000
ENDCHAR
STARTCHAR U+00D4
ENCODING 212
SWIDTH 1000 0
DWIDTH 36 0
BBX 62 80 -13 -16
BITMAP
000000007fffc000
000000007fffc000
000000007fffc000
00000000ffff8000
00000000ffff8000
00000000ffff8000
00000001ffff0000
00000001ffff0000
0000001ff01ff000
0000003fe03fe000
0000003fe03fe000
0000003fe03fe000
0000007fc07fc000
0000007fc07fc000
0000007fc07fc000
000000ff80ff8000
000000ffffff8000
000000ffffff8000
000001ffffff0000
000001ffffff0000
000001ffffff0000
000003fffffe0000
000003fffffe0000
000003fffffe0000
00007fc0007fc000
00007fc0007fc000
00007fc0007fc000
0000ff8000ff8000
0000ff8000ff8000
0000ff8000ff8000
0001ff0001ff0000
0001ff0001ff0000
0001ff0001ff0000
0003fe0003fe0000
0003fe0003fe0000
0003fe0003fe0000
0007fc0007fc0000
0007fc0007fc0000
0007fc0007fc0000
000ff8000ff80000
000ff8000ff80000
000ff8000ff80000
001ff0001ff00000
001ff0001ff00000
001ff0001ff00000
003fe0003fe00000
003fe0003fe00000
003fe0003fe00000
007fc0007fc00000
007fc0007fc00000
007fc0007fc00000
00ff8000ff800000
00ff8000ff800000
00ff8000ff800000
01ff0001ff000000
01ff0001ff000000
001ffffff0000000
003fffffe0000000
003fffffe0000000
003fffffe0000000
007fffffc0000000
007fffffc0000000
007fffffc0000000
00ffffff80000000
0000000000000000
0000000000000000
0000000000000000
0000000000000000
0000000000000000
0000000000000000
0000000000000000
0000000000000000
0000000000000000
0000000000000000
0000000000000000
0000000000000000
0000000000000000
0000000000000000
0000000000000000
0000000000000000
ENDCHAR
STARTCHAR U+00D3
ENCODING 211
SWIDTH 1000 0
DWIDTH 36 0
BBX 62 80 -13 -16
BITMAP
0000000007ffc000
0000000007ffc000
0000000007ffc000
000000000fff8000
000000000fff8000
000000000fff8000
000000001fff0000
000000001fff0000
0000001fff000000
0000003ffe000000
0000003ffe000000
0000003ffe000000
0000007ffc000000
0000007ffc000000
0000007ffc000000
000000fff8000000
000000ffffff8000
000000ffffff8000
000001ffffff0000
000001ffffff0000
000001ffffff0000
000003fffffe0000
000003fffffe0000
000003fffffe0000
00007fc0007fc000
00007fc0007fc000
00007fc0007fc000
0000ff8000ff8000
0000ff8000ff8000
0000ff8000ff8000
0001ff0001ff0000
0001ff0001ff0000
0001ff0001ff0000
0003fe0003fe0000
0003fe0003fe0000
0003fe0003fe0000
0007fc0007fc0000
0007fc0007fc0000
0007fc0007fc0000
000ff8000ff80000
000ff8000ff80000
000ff8000ff80000
001ff0001ff00000
001ff0001ff00000
001ff0001ff00000
003fe0003fe00000
003fe0003fe00000
003fe0003fe00000
007fc0007fc00000
007fc0007fc00000
007fc0007fc00000
00ff8000ff800000
00ff8000ff800000
00ff8000ff800000
01ff0001ff000000
01ff0001ff000000
001ffffff0000000
003fffffe0000000
003fffffe0000000
003fffffe0000000
007fffffc0000000
007fffffc0000000
007fffffc0000000
00ffffff80000000
0000000000000000
0000000000000000
0000000000000000
0000000000000000
0000000000000000
0000000000000000
0000000000000000
0000000000000000
0000000000000000
0000000000000000
0000000000000000
0000000000000000
0000000000000000
0000000000000000
0000000000000000
0000000000000000
ENDCHAR
STARTCHAR U+00D2
ENCODING 210
SWIDTH 1000 0
DWIDTH 36 0
BBX 62 80 -13 -16
BITMAP
000000007ffc0000
000000007ffc0000
000000007ffc0000
00000000fff80000
00000000fff80000
00000000fff80000
00000001fff00000
00000001fff00000
0000000001fff000
0000000003ffe000
0000000003ffe000
0000000003ffe000
0000000007ffc000
0000000007ffc000
0000000007ffc000
000000000fff8000
000000ffffff8000
000000ffffff8000
000001ffffff0000
000001ffffff0000
000001ffffff0000
000003fffffe0000
000003fffffe0000
000003fffffe0000
00007fc0007fc000
00007fc0007fc000
00007fc0007fc000
0000ff8000ff8000
0000ff8000ff8000
0000ff8000ff8000
0001ff0001ff0000
0001ff0001ff0000
0001ff0001ff0000
0003fe0003fe0000
0003fe0003fe0000
0003fe0003fe0000
0007fc0007fc0000
0007fc0007fc0000
0007fc0007fc0000
000ff8000ff80000
000ff8000ff80000
000ff8000ff80000
001ff0001ff00000
001ff0001ff00000
001ff0001ff00000
003fe0003fe00000
003fe0003fe00000
003fe0003fe00000
007fc0007fc00000
007fc0007fc00000
007fc0007fc00000
00ff8000ff800000
00ff8000ff800000
00ff8000ff800000
01ff0001ff000000
01ff0001ff000000
001ffffff0000000
003fffffe0000000
003fffffe0000000
003fffffe0000000
007fffffc0000000
007fffffc0000000
007fffffc0000000
00ffffff80000000
0000000000000000
0000000000000000
0000000000000000
0000000000000000
0000000000000000
0000000000000000
0000000000000000
0000000000000000
0000000000000000
0000000000000000
0000000000000000
0000000000000000
0000000000000000
0000000000000000
0000000000000000
0000000000000000
ENDCHAR
STARTCHAR U+00D1
ENCODING 209
SWIDTH 1000 0
DWIDTH 36 0
BBX 62 80 -13 -16
BITMAP
000000007ffc7fc0
000000007ffc7fc0
000000007ffc7fc0
00000000fff8ff80
00000000fff8ff80
00000000fff8ff80
00000001fff1ff00
00000001fff1ff00
0000001ff1fff000
0000003fe3ffe000
0000003fe3ffe000
0000003fe3ffe000
0000007fc7ffc000
0000007fc7ffc000
0000007fc7ffc000
000000ff8fff8000
00000fff800ff800
00000fff800ff800
00001fff001ff000
00001fff001ff000
00001fff001ff000
00003ffe003fe000
00003ffe003fe000
00003ffe003fe000
00007fffc07fc000
00007fffc07fc000
00007fffc07fc000
0000ffff80ff8000
0000ffff80ff8000
0000ffff80ff8000
0001ffff01ff0000
0001ffff01ff0000
0001ff1ff1ff0000
0003fe3fe3fe0000
0003fe3fe3fe0000
0003fe3fe3fe0000
0007fc7fc7fc0000
0007fc7fc7fc0000
0007fc7fc7fc0000
000ff8ff8ff80000
000ff80ffff80000
000ff80ffff80000
001ff01ffff00000
001ff01ffff00000
001ff01ffff00000
003fe03fffe00000
003fe03fffe00000
003fe03fffe00000
007fc007ffc00000
007fc007ffc00000
007fc007ffc00000
00ff800fff800000
00ff800fff800000
00ff800fff800000
01ff001fff000000
01ff001fff000000
01ff0001ff000000
03fe0003fe000000
03fe0003fe000000
03fe0003fe000000
07fc0007fc000000
07fc0007fc000000
07fc0007fc000000
0ff8000ff8000000
0000000000000000
0000000000000000
0000000000000000
0000000000000000
0000000000000000
0000000000000000
0000000000000000
0000000000000000
0000000000000000
0000000000000000
0000000000000000
0000000000000000
0000000000000000
0000000000000000
0000000000000000
0000000000000000
ENDCHAR
STARTCHAR U+00D0
ENCODING 208
SWIDTH 1000 0
DWIDTH 36 0
BBX 62 80 -13 -16
BITMAP
0000000000000000
0000000000000000
0000000000000000
0000000000000000
0000000000000000
0000000000000000
0000000000000000
0000000000000000
000001ffffff0000
000003fffffe0000
000003fffffe0000
000003fffffe0000
000007fffffc0000
000007fffffc0000
000007fffffc0000
00000ffffff80000
000000ff80ff8000
000000ff80ff8000
000001ff01ff0000
000001ff01ff0000
000001ff01ff0000
000003fe03fe0000
000003fe03fe0000
000003fe03fe0000
000007fc007fc000
000007fc007fc000
000007fc007fc000
00000ff800ff8000
00000ff800ff8000
00000ff800ff8000
00001ff001ff0000
00001ff001ff0000
0001fffff1ff0000
0003ffffe3fe0000
0003ffffe3fe0000
0003ffffe3fe0000
0007ffffc7fc0000
0007ffffc7fc0000
0007ffffc7fc0000
000fffff8ff80000
0000ff800ff80000
0000ff800ff80000
0001ff001ff00000
0001ff001ff00000
0001ff001ff00000
0003fe003fe00000
0003fe003fe00000
0003fe003fe00000
0007fc07fc000000
0007fc07fc000000
0007fc07fc000000
000ff80ff8000000
000ff80ff8000000
000ff80ff8000000
001ff01ff0000000
001ff01ff0000000
01ffffff00000000
03fffffe00000000
03fffffe00000000
03fffffe00000000
07fffffc00000000
07fffffc00000000
07fffffc00000000
0ffffff800000000
0000000000000000
0000000000000000
0000000000000000
0000000000000000
0000000000000000
0000000000000000
0000000000000000
0000000000000000
0000000000000000
0000000000000000
0000000000000000
0000000000000000
0000000000000000
0000000000000000
0000000000000000
0000000000000000
ENDCHAR
STARTCHAR U+00CF
ENCODING 207
SWIDTH 1000 0
DWIDTH 36 0
BBX 62 80 -13 -16
BITMAP
00000007fc07fc00
00000007fc07fc00
00000007fc07fc00
0000000ff80ff800
0000000ff80ff800
0000000ff80ff800
0000001ff01ff000
0000001ff01ff000
0000000000000000
0000000000000000
0000000000000000
0000000000000000
0000000000000000
0000000000000000
0000000000000000
0000000000000000
000000ffffff8000
000000ffffff8000
000001ffffff0000
000001ffffff0000
000001ffffff0000
000003fffffe0000
000003fffffe0000
000003fffffe0000
00000007fc000000
00000007fc000000
00000007fc000000
0000000ff8000000
0000000ff8000000
0000000ff8000000
0000001ff0000000
0000001ff0000000
0000001ff0000000
0000003fe0000000
0000003fe0000000
0000003fe0000000
0000007fc0000000
0000007fc0000000
0000007fc0000000
000000ff80000000
000000ff80000000
000000ff80000000
000001ff00000000
000001ff00000000
000001ff00000000
000003fe00000000
000003fe00000000
000003fe00000000
000007fc00000000
000007fc00000000
000007fc00000000
00000ff800000000
00000ff800000000
00000ff800000000
00001ff000000000
00001ff000000000
001ffffff0000000
003fffffe0000000
003fffffe0000000
003fffffe0000000
007fffffc0000000
007fffffc0000000
007fffffc0000000
00ffffff80000000
0000000000000000
0000000000000000
0000000000000000
0000000000000000
0000000000000000
0000000000000000
0000000000000000
0000000000000000
0000000000000000
0000000000000000
0000000000000000
0000000000000000
0000000000000000
0000000000000000
0000000000000000
0000000000000000
ENDCHAR
STARTCHAR U+00CE
ENCODING 206
SWIDTH 1000 0
DWIDTH 36 0
BBX 62 80 -13 -16
BITMAP
000000007fffc000
000000007fffc000
000000007fffc000
00000000ffff8000
00000000ffff8000
00000000ffff8000
00000001ffff0000
00000001ffff0000
0000001ff01ff000
0000003fe03fe000
0000003fe03fe000
0000003fe03fe000
0000007fc07fc000
0000007fc07fc000
0000007fc07fc000
000000ff80ff8000
000000ffffff8000
000000ffffff8000
000001ffffff0000
000001ffffff0000
000001ffffff0000
000003fffffe0000
000003fffffe0000
000003fffffe0000
00000007fc000000
00000007fc000000
00000007fc000000
0000000ff8000000
0000000ff8000000
0000000ff8000000
0000001ff0000000
0000001ff0000000
0000001ff0000000
0000003fe0000000
0000003fe0000000
0000003fe0000000
0000007fc0000000
0000007fc0000000
0000007fc0000000
000000ff80000000
000000ff80000000
000000ff80000000
000001ff00000000
000001ff00000000
000001ff00000000
000003fe00000000
000003fe00000000
000003fe00000000
000007fc00000000
000007fc00000000
000007fc00000000
00000ff800000000
00000ff800000000
00000ff800000000
00001ff000000000
00001ff000000000
001ffffff0000000
003fffffe0000000
003fffffe0000000
003fffffe0000000
007fffffc0000000
007fffffc0000000
007fffffc0000000
00ffffff80000000
0000000000000000
0000000000000000
0000000000000000
0000000000000000
0000000000000000
0000000000000000
0000000000000000
0000000000000000
0000000000000000
0000000000000000
0000000000000000
0000000000000000
0000000000000000
0000000000000000
0000000000000000
0000000000000000
ENDCHAR
STARTCHAR U+00CD
ENCODING 205
SWIDTH 1000 0
DWIDTH 36 0
BBX 62 80 -13 -16
BITMAP
0000000007ffc000
0000000007ffc000
0000000007ffc000
000000000fff8000
000000000fff8000
000000000fff8000
000000001fff0000
000000001fff0000
0000001fff000000
0000003ffe000000
0000003ffe000000
0000003ffe000000
0000007ffc000000
0000007ffc000000
0000007ffc000000
000000fff8000000
000000ffffff8000
000000ffffff8000
000001ffffff0000
000001ffffff0000
000001ffffff0000
000003fffffe0000
000003fffffe0000
000003fffffe0000
00000007fc000000
00000007fc000000
00000007fc000000
0000000ff8000000
0000000ff8000000
0000000ff8000000
0000001ff0000000
0000001ff0000000
0000001ff0000000
0000003fe0000000
0000003fe0000000
0000003fe0000000
0000007fc0000000
0000007fc0000000
0000007fc0000000
000000ff80000000
000000ff80000000
000000ff80000000
000001ff00000000
000001ff00000000
000001ff00000000
000003fe00000000
000003fe00000000
000003fe00000000
000007fc00000000
000007fc00000000
000007fc00000000
00000ff800000000
00000ff800000000
00000ff800000000
00001ff000000000
00001ff000000000
001ffffff0000000
003fffffe0000000
003fffffe0000000
003fffffe0000000
007fffffc0000000
007fffffc0000000
007fffffc0000000
00ffffff80000000
0000000000000000
0000000000000000
0000000000000000
0000000000000000
0000000000000000
0000000000000000
0000000000000000
0000000000000000
0000000000000000
0000000000000000
0000000000000000
0000000000000000
0000000000000000
0000000000000000
0000000000000000
0000000000000000
ENDCHAR
STARTCHAR U+00CC
ENCODING 204
SWIDTH 1000 0
DWIDTH 36 0
BBX 62 80 -13 -16
BITMAP
000000007ffc0000
000000007ffc0000
000000007ffc0000
00000000fff80000
00000000fff80000
00000000fff80000
00000001fff00000
00000001fff00000
0000000001fff000
0000000003ffe000
0000000003ffe000
0000000003ffe000
0000000007ffc000
0000000007ffc000
0000000007ffc000
000000000fff8000
000000ffffff8000
000000ffffff8000
000001ffffff0000
000001ffffff0000
000001ffffff0000
000003fffffe0000
000003fffffe0000
000003fffffe0000
00000007fc000000
00000007fc000000
00000007fc000000
0000000ff8000000
0000000ff8000000
0000000ff8000000
0000001ff0000000
0000001ff0000000
0000001ff0000000
0000003fe0000000
0000003fe0000000
0000003fe0000000
0000007fc0000000
0000007fc0000000
0000007fc0000000
000000ff80000000
000000ff80000000
000000ff80000000
000001ff00000000
000001ff00000000
000001ff00000000
000003fe00000000
000003fe00000000
000003fe00000000
000007fc00000000
000007fc00000000
000007fc00000000
00000ff800000000
00000ff800000000
00000ff800000000
00001ff000000000
00001ff000000000
001ffffff0000000
003fffffe0000000
003fffffe0000000
003fffffe0000000
007fffffc0000000
007fffffc0000000
007fffffc0000000
00ffffff80000000
0000000000000000
0000000000000000
0000000000000000
0000000000000000
0000000000000000
0000000000000000
0000000000000000
0000000000000000
0000000000000000
0000000000000000
0000000000000000
0000000000000000
0000000000000000
0000000000000000
0000000000000000
0000000000000000
ENDCHAR
STARTCHAR U+00CB
ENCODING 203
SWIDTH 1000 0
DWIDTH 36 0
BBX 62 80 -13 -16
BITMAP
00000007fc07fc00
00000007fc07fc00
00000007fc07fc00
0000000ff80ff800
0000000ff80ff800
0000000ff80ff800
0000001ff01ff000
0000001ff01ff000
0000000000000000
0000000000000000
0000000000000000
0000000000000000
0000000000000000
0000000000000000
0000000000000000
0000000000000000
00000ffffffff800
00000ffffffff800
00001ffffffff000
00001ffffffff000
00001ffffffff000
00003fffffffe000
00003fffffffe000
00003fffffffe000
00007fc000000000
00007fc000000000
00007fc000000000
0000ff8000000000
0000ff8000000000
0000ff8000000000
0001ff0000000000
0001ff0000000000
0001ffffff000000
0003fffffe000000
0003fffffe000000
0003fffffe000000
0007fffffc000000
0007fffffc000000
0007fffffc000000
000ffffff8000000
000ff80000000000
000ff80000000000
001ff00000000000
001ff00000000000
001ff00000000000
003fe00000000000
003fe00000000000
003fe00000000000
007fc00000000000
007fc00000000000
007fc00000000000
00ff800000000000
00ff800000000000
00ff800000000000
01ff000000000000
01ff000000000000
01ffffffff000000
03fffffffe000000
03fffffffe000000
03fffffffe000000
07fffffffc000000
07fffffffc000000
07fffffffc000000
0ffffffff8000000
0000000000000000
0000000000000000
0000000000000000
0000000000000000
0000000000000000
0000000000000000
0000000000000000
0000000000000000
0000000000000000
0000000000000000
0000000000000000
0000000000000000
0000000000000000
0000000000000000
0000000000000000
0000000000000000
ENDCHAR
STARTCHAR U+00CA
ENCODING 202
SWIDTH 1000 0
DWIDTH 36 0
BBX 62 80 -13 -16
BITMAP
000000007fffc000
000000007fffc000
000000007fffc000
00000000ffff8000
00000000ffff8000
00000000ffff8000
00000001ffff0000
00000001ffff0000
0000001ff01ff000
0000003fe03fe000
0000003fe03fe000
0000003fe03fe000
0000007fc07fc000
0000007fc07fc000
0000007fc07fc000
000000ff80ff8000
00000ffffffff800
00000ffffffff800
00001ffffffff000
00001ffffffff000
00001ffffffff000
00003fffffffe000
00003fffffffe000
00003fffffffe000
00007fc000000000
00007fc000000000
00007fc000000000
0000ff8000000000
0000ff8000000000
0000ff8000000000
0001ff0000000000
0001ff0000000000
0001fffff0000000
0003ffffe0000000
0003ffffe0000000
0003ffffe0000000
0007ffffc0000000
0007ffffc0000000
0007ffffc0000000
000fffff80000000
000ff80000000000
000ff80000000000
001ff00000000000
001ff00000000000
001ff00000000000
003fe00000000000
003fe00000000000
003fe00000000000
007fc00000000000
007fc00000000000
007fc00000000000
00ff800000000000
00ff800000000000
00ff800000000000
01ff000000000000
01ff000000000000
01ffffffff000000
03fffffffe000000
03fffffffe000000
03fffffffe000000
07fffffffc000000
07fffffffc000000
07fffffffc000000
0ffffffff8000000
0000000000000000
0000000000000000
0000000000000000
0000000000000000
0000000000000000
0000000000000000
0000000000000000
0000000000000000
0000000000000000
0000000000000000
0000000000000000
0000000000000000
0000000000000000
0000000000000000
0000000000000000
0000000000000000
ENDCHAR
STARTCHAR U+00C9
ENCODING 201
SWIDTH 1000 0
DWIDTH 36 0
BBX 62 80 -13 -16
BITMAP
00000000007ffc00
00000000007ffc00
00000000007ffc00
0000000000fff800
0000000000fff800
0000000000fff800
0000000001fff000
0000000001fff000
00000001fff00000
00000003ffe00000
00000003ffe00000
00000003ffe00000
00000007ffc00000
00000007ffc00000
00000007ffc00000
0000000fff800000
00000ffffffff800
00000ffffffff800
00001ffffffff000
00001ffffffff000
00001ffffffff000
00003fffffffe000
00003fffffffe000
00003fffffffe000
00007fc000000000
00007fc000000000
00007fc000000000
0000ff8000000000
0000ff8000000000
0000ff8000000000
0001ff0000000000
0001ff0000000000
0001ffffff000000
0003fffffe000000
0003fffffe000000
0003fffffe000000
0007fffffc000000
0007fffffc000000
0007fffffc000000
000ffffff8000000
000ff80000000000
000ff80000000000
001ff00000000000
001ff00000000000
001ff00000000000
003fe00000000000
003fe00000000000
003fe00000000000
007fc00000000000
007fc00000000000
007fc00000000000
00ff800000000000
00ff800000000000
00ff800000000000
01ff000000000000
01ff000000000000
01ffffffff000000
03fffffffe000000
03fffffffe000000
03fffffffe000000
07fffffffc000000
07fffffffc000000
07fffffffc000000
0ffffffff8000000
0000000000000000
0000000000000000
0000000000000000
0000000000000000
0000000000000000
0000000000000000
0000000000000000
0000000000000000
0000000000000000
0000000000000000
0000000000000000
0000000000000000
0000000000000000
0000000000000000
0000000000000000
0000000000000000
ENDCHAR
STARTCHAR U+00C8
ENCODING 200
SWIDTH 1000 0
DWIDTH 36 0
BBX 62 80 -13 -16
BITMAP
00000007ffc00000
00000007ffc00000
00000007ffc00000
0000000fff800000
0000000fff800000
0000000fff800000
0000001fff000000
0000001fff000000
000000001fff0000
000000003ffe0000
000000003ffe0000
000000003ffe0000
000000007ffc0000
000000007ffc0000
000000007ffc0000
00000000fff80000
00000ffffffff800
00000ffffffff800
00001ffffffff000
00001ffffffff000
00001ffffffff000
00003fffffffe000
00003fffffffe000
00003fffffffe000
00007fc000000000
00007fc000000000
00007fc000000000
0000ff8000000000
0000ff8000000000
0000ff8000000000
0001ff0000000000
0001ff0000000000
0001ffffff000000
0003fffffe000000
0003fffffe000000
0003fffffe000000
0007fffffc000000
0007fffffc000000
0007fffffc000000
000ffffff8000000
000ff80000000000
000ff80000000000
001ff00000000000
001ff00000000000
001ff00000000000
003fe00000000000
003fe00000000000
003fe00000000000
007fc00000000000
007fc00000000000
007fc00000000000
00ff800000000000
00ff800000000000
00ff800000000000
01ff000000000000
01ff000000000000
01ffffffff000000
03fffffffe000000
03fffffffe000000
03fffffffe000000
07fffffffc000000
07fffffffc000000
07fffffffc000000
0ffffffff8000000
0000000000000000
0000000000000000
0000000000000000
0000000000000000
0000000000000000
0000000000000000
0000000000000000
0000000000000000
0000000000000000
0000000000000000
0000000000000000
0000000000000000
0000000000000000
0000000000000000
0000000000000000
0000000000000000
ENDCHAR
STARTCHAR U+00C7
ENCODING 199
SWIDTH 1000 0
DWIDTH 36 0
BBX 62 80 -13 -16
BITMAP
0000000000000000
0000000000000000
0000000000000000
0000000000000000
0000000000000000
0000000000000000
0000000000000000
0000000000000000
00000001fffff000
00000003ffffe000
00000003ffffe000
00000003ffffe000
00000007ffffc000
00000007ffffc000
00000007ffffc000
0000000fffff8000
000000ff800ff800
000000ff800ff800
000001ff001ff000
000001ff001ff000
000001ff001ff000
000003fe003fe000
000003fe003fe000
000003fe003fe000
00007fc000000000
00007fc000000000
00007fc000000000
0000ff8000000000
0000ff8000000000
0000ff8000000000
0001ff0000000000
0001ff0000000000
0001ff0000000000
0003fe0000000000
0003fe0000000000
0003fe0000000000
0007fc0000000000
0007fc0000000000
0007fc0000000000
000ff80000000000
000ff80000000000
000ff80000000000
001ff00000000000
001ff00000000000
001ff00000000000
003fe00000000000
003fe00000000000
003fe00000000000
0007fc007fc00000
0007fc007fc00000
0007fc007fc00000
000ff800ff800000
000ff800ff800000
000ff800ff800000
001ff001ff000000
001ff001ff000000
0001fffff0000000
0003ffffe0000000
0003ffffe0000000
0003ffffe0000000
0007ffffc0000000
0007ffffc0000000
0007ffffc0000000
000fffff80000000
00000ff800000000
00000ff800000000
00001ff000000000
00001ff000000000
00001ff000000000
00003fe000000000
00003fe000000000
00003fe000000000
007fffc000000000
007fffc000000000
007fffc000000000
00ffff8000000000
00ffff8000000000
00ffff8000000000
01ffff0000000000
01ffff0000000000
ENDCHAR
STARTCHAR U+00C6
ENCODING 198
SWIDTH 1000 0
DWIDTH 36 0
BBX 62 80 -13 -16
BITMAP
0000000000000000
0000000000000000
0000000000000000
0000000000000000
0000000000000000
0000000000000000
0000000000000000
0000000000000000
00000001ffffff00
00000003fffffe00
00000003fffffe00
00000003fffffe00
00000007fffffc00
00000007fffffc00
00000007fffffc00
0000000ffffff800
000000ffff800000
000000ffff800000
000001ffff000000
000001ffff000000
000001ffff000000
000003fffe000000
000003fffe000000
000003fffe000000
00007fc7fc000000
00007fc7fc000000
00007fc7fc000000
0000ff8ff8000000
0000ff8ff8000000
0000ff8ff8000000
0001ff1ff0000000
0001ff1ff0000000
0001ff1ffff00000
0003fe3fffe00000
0003fe3fffe00000
0003fe3fffe00000
0007fc7fffc00000
0007fc7fffc00000
0007fc7fffc00000
000ff8ffff800000
000fffff80000000
000fffff80000000
001fffff00000000
001fffff00000000
001fffff00000000
003ffffe00000000
003ffffe00000000
003ffffe00000000
007fc7fc00000000
007fc7fc00000000
007fc7fc00000000
00ff8ff800000000
00ff8ff800000000
00ff8ff800000000
01ff1ff000000000
01ff1ff000000000
01ff1fffff000000
03fe3ffffe000000
03fe3ffffe000000
03fe3ffffe000000
07fc7ffffc000000
07fc7ffffc000000
07fc7ffffc000000
0ff8fffff8000000
0000000000000000
0000000000000000
0000000000000000
0000000000000000
0000000000000000
0000000000000000
0000000000000000
0000000000000000
0000000000000000
0000000000000000
0000000000000000
0000000000000000
0000000000000000
0000000000000000
0000000000000000
0000000000000000
ENDCHAR
STARTCHAR U+00C5
ENCODING 197
SWIDTH 1000 0
DWIDTH 36 0
BBX 62 80 -13 -16
BITMAP
000000007fffc000
000000007fffc000
000000007fffc000
00000000ffff8000
00000000ffff8000
00000000ffff8000
00000001ffff0000
00000001ffff0000
0000001ff01ff000
0000003fe03fe000
0000003fe03fe000
0000003fe03fe000
0000007fc07fc000
0000007fc07fc000
0000007fc07fc000
000000ff80ff8000
0000000ffff80000
0000000ffff80000
0000001ffff00000
0000001ffff00000
0000001ffff00000
0000003fffe00000
0000003fffe00000
0000003fffe00000
0000007fffc00000
0000007fffc00000
0000007fffc00000
000000ffff800000
000000ffff800000
000000ffff800000
000001ffff000000
000001ffff000000
00001ff01ff00000
00003fe03fe00000
00003fe03fe00000
00003fe03fe00000
00007fc07fc00000
00007fc07fc00000
00007fc07fc00000
0000ff80ff800000
000ffffffff80000
000ffffffff80000
001ffffffff00000
001ffffffff00000
001ffffffff00000
003fffffffe00000
003fffffffe00000
003fffffffe00000
007fc0007fc00000
007fc0007fc00000
007fc0007fc00000
00ff8000ff800000
00ff8000ff800000
00ff8000ff800000
01ff0001ff000000
01ff0001ff000000
01ff0001ff000000
03fe0003fe000000
03fe0003fe000000
03fe0003fe000000
07fc0007fc000000
07fc0007fc000000
07fc0007fc000000
0ff8000ff8000000
0000000000000000
0000000000000000
0000000000000000
0000000000000000
0000000000000000
0000000000000000
0000000000000000
0000000000000000
0000000000000000
0000000000000000
0000000000000000
0000000000000000
0000000000000000
0000000000000000
0000000000000000
0000000000000000
ENDCHAR
STARTCHAR U+00C4
ENCODING 196
SWIDTH 1000 0
DWIDTH 36 0
BBX 62 80 -13 -16
BITMAP
00000007fc07fc00
00000007fc07fc00
00000007fc07fc00
0000000ff80ff800
0000000ff80ff800
0000000ff80ff800
0000001ff01ff000
0000001ff01ff000
0000000000000000
0000000000000000
0000000000000000
0000000000000000
0000000000000000
0000000000000000
0000000000000000
0000000000000000
00000000ff800000
00000000ff800000
00000001ff000000
00000001ff000000
00000001ff000000
00000003fe000000
00000003fe000000
00000003fe000000
0000007fffc00000
0000007fffc00000
0000007fffc00000
000000ffff800000
000000ffff800000
000000ffff800000
000001ffff000000
000001ffff000000
00001ff01ff00000
00003fe03fe00000
00003fe03fe00000
00003fe03fe00000
00007fc07fc00000
00007fc07fc00000
00007fc07fc00000
0000ff80ff800000
000ffffffff80000
000ffffffff80000
001ffffffff00000
001ffffffff00000
001ffffffff00000
003fffffffe00000
003fffffffe00000
003fffffffe00000
007fc0007fc00000
007fc0007fc00000
007fc0007fc00000
00ff8000ff800000
00ff8000ff800000
00ff8000ff800000
01ff0001ff000000
01ff0001ff000000
01ff0001ff000000
03fe0003fe000000
03fe0003fe000000
03fe0003fe000000
07fc0007fc000000
07fc0007fc000000
07fc0007fc000000
0ff8000ff8000000
0000000000000000
0000000000000000
0000000000000000
0000000000000000
0000000000000000
0000000000000000
0000000000000000
0000000000000000
0000000000000000
0000000000000000
0000000000000000
0000000000000000
0000000000000000
0000000000000000
0000000000000000
0000000000000000
ENDCHAR
STARTCHAR U+00C3
ENCODING 195
SWIDTH 1000 0
DWIDTH 36 0
BBX 62 80 -13 -16
BITMAP
000000007ffc7fc0
000000007ffc7fc0
000000007ffc7fc0
00000000fff8ff80
00000000fff8ff80
00000000fff8ff80
00000001fff1ff00
00000001fff1ff00
0000001ff1fff000
0000003fe3ffe000
0000003fe3ffe000
0000003fe3ffe000
0000007fc7ffc000
0000007fc7ffc000
0000007fc7ffc000
000000ff4fff8000
00000000ff800000
00000000ff800000
00000001ff000000
00000001ff000000
00000001ff000000
00000003fe000000
00000003fe000000
00000003fe000000
0000007fffc00000
0000007fffc00000
0000007fffc00000
000000ffff800000
000000ffff800000
000000ffff800000
000001ffff000000
000001ffff000000
00001ff01ff00000
00003fe03fe00000
00003fe03fe00000
00003fe03fe00000
00007fc07fc00000
00007fc07fc00000
00007fc07fc00000
0000ff80ff800000
000ffffffff80000
000ffffffff80000
001ffffffff00000
001ffffffff00000
001ffffffff00000
003fffffffe00000
003fffffffe00000
003fffffffe00000
007fc0007fc00000
007fc0007fc00000
007fc0007fc00000
00ff8000ff800000
00ff8000ff800000
00ff8000ff800000
01ff0001ff000000
01ff0001ff000000
01ff0001ff000000
03fe0003fe000000
03fe0003fe000000
03fe0003fe000000
07fc0007fc000000
07fc0007fc000000
07fc0007fc000000
0ff8000ff8000000
0000000000000000
0000000000000000
0000000000000000
0000000000000000
0000000000000000
0000000000000000
0000000000000000
0000000000000000
0000000000000000
0000000000000000
0000000000000000
0000000000000000
0000000000000000
0000000000000000
0000000000000000
0000000000000000
ENDCHAR
STARTCHAR U+00C2
ENCODING 194
SWIDTH 1000 0
DWIDTH 36 0
BBX 62 80 -13 -16
BITMAP
000000007fffc000
000000007fffc000
000000007fffc000
00000000ffff8000
00000000ffff8000
00000000ffff8000
00000001ffff0000
00000001ffff0000
0000001ff01ff000
0000003fe03fe000
0000003fe03fe000
0000003fe03fe000
0000007fc07fc000
0000007fc07fc000
0000007fc0dfc000
000000ff40ff8000
00000000ff800000
00000000ff800000
00000001ff000000
00000001ff000000
00000001ff000000
00000003fe000000
00000003fe000000
00000003fe000000
0000007fffc00000
0000007fffc00000
0000007fffc00000
000000ffff800000
000000ffff800000
000000ffff800000
000001ffff000000
000001ffff000000
00001ff01ff00000
00003fe03fe00000
00003fe03fe00000
00003fe03fe00000
00007fc07fc00000
00007fc07fc00000
00007fc07fc00000
0000ff80ff800000
000ffffffff80000
000ffffffff80000
001ffffffff00000
001ffffffff00000
001ffffffff00000
003fffffffe00000
003fffffffe00000
003fffffffe00000
007fc0007fc00000
007fc0007fc00000
007fc0007fc00000
00ff8000ff800000
00ff8000ff800000
00ff8000ff800000
01ff0001ff000000
01ff0001ff000000
01ff0001ff000000
03fe0003fe000000
03fe0003fe000000
03fe0003fe000000
07fc0007fc000000
07fc0007fc000000
07fc0007fc000000
0ff8000ff8000000
0000000000000000
0000000000000000
0000000000000000
0000000000000000
0000000000000000
0000000000000000
0000000000000000
0000000000000000
0000000000000000
0000000000000000
0000000000000000
0000000000000000
0000000000000000
0000000000000000
0000000000000000
0000000000000000
ENDCHAR
STARTCHAR U+00C1
ENCODING 193
SWIDTH 1000 0
DWIDTH 36 0
BBX 62 80 -13 -16
BITMAP
0000000007ffc000
0000000007ffc000
0000000007ffc000
000000000fff8000
000000000fff8000
000000000fff8000
000000001fff0000
000000001fff0000
0000001fff000000
0000003ffe000000
0000003ffe000000
0000003ffe000000
0000007ffc000000
0000007ffc000000
0000007ffc000000
000000fff8000000
00000000ff800000
00000000ff800000
00000001ff000000
00000001ff000000
00000001ff000000
00000003fe000000
00000003fe000000
00000003fe000000
0000007fffc00000
0000007fffc00000
0000007fffc00000
000000ffff800000
000000ffff800000
000000ffff800000
000001ffff000000
000001ffff000000
00001ff01ff00000
00003fe03fe00000
00003fe03fe00000
00003fe03fe00000
00007fc07fc00000
00007fc07fc00000
00007fc07fc00000
0000ff80ff800000
000ffffffff80000
000ffffffff80000
001ffffffff00000
001ffffffff00000
001ffffffff00000
003fffffffe00000
003fffffffe00000
003fffffffe00000
007fc0007fc00000
007fc0007fc00000
007fc0007fc00000
00ff8000ff800000
00ff8000ff800000
00ff8000ff800000
01ff0001ff000000
01ff0001ff000000
01ff0001ff000000
03fe0003fe000000
03fe0003fe000000
03fe0003fe000000
07fc0007fc000000
07fc0007fc000000
07fc0007fc000000
0ff8000ff8000000
0000000000000000
0000000000000000
0000000000000000
0000000000000000
0000000000000000
0000000000000000
0000000000000000
0000000000000000
0000000000000000
0000000000000000
0000000000000000
0000000000000000
0000000000000000
0000000000000000
0000000000000000
0000000000000000
ENDCHAR
STARTCHAR U+00C0
ENCODING 192
SWIDTH 1000 0
DWIDTH 36 0
BBX 62 80 -13 -16
BITMAP
000000007ffc0000
000000007ffc0000
000000007ffc0000
00000000fff80000
00000000fff80000
00000000fff80000
00000001fff00000
00000001fff00000
0000000001fff000
0000000003ffe000
0000000003ffe000
0000000003ffe000
0000000007ffc000
0000000007ffc000
0000000007ffc000
000000000fff8000
00000000ff800000
00000000ff800000
00000001ff000000
00000001ff000000
00000001ff000000
00000003fe000000
00000003fe000000
00000003fe000000
0000007fffc00000
0000007fffc00000
0000007fffc00000
000000ffff800000
000000ffff800000
000000ffff800000
000001ffff000000
000001ffff000000
00001ff01ff00000
00003fe03fe00000
00003fe03fe00000
00003fe03fe00000
00007fc07fc00000
00007fc07fc00000
00007fc07fc00000
0000ff80ff800000
000ffffffff80000
000ffffffff80000
001ffffffff00000
001ffffffff00000
001ffffffff00000
003fffffffe00000
003fffffffe00000
003fffffffe00000
007fc0007fc00000
007fc0007fc00000
007fc0007fc00000
00ff8000ff800000
00ff8000ff800000
00ff8000ff800000
01ff0001ff000000
01ff0001ff000000
01ff0001ff000000
03fe0003fe000000
03fe0003fe000000
03fe0003fe000000
07fc0007fc000000
07fc0007fc000000
07fc0007fc000000
0ff8000ff8000000
0000000000000000
0000000000000000
0000000000000000
0000000000000000
0000000000000000
0000000000000000
0000000000000000
0000000000000000
0000000000000000
0000000000000000
0000000000000000
0000000000000000
0000000000000000
0000000000000000
0000000000000000
0000000000000000
ENDCHAR
STARTCHAR U+00BF
ENCODING 191
SWIDTH 1000 0
DWIDTH 36 0
BBX 62 80 -13 -16
BITMAP
0000000000000000
0000000000000000
0000000000000000
0000000000000000
0000000000000000
0000000000000000
0000000000000000
0000000000000000
000000001ff00000
000000003fe00000
000000003fe00000
000000003fe00000
000000007fc00000
000000007fc00000
000000007fc00000
00000000ff800000
0000000000000000
0000000000000000
0000000000000000
0000000000000000
0000000000000000
0000000000000000
0000000000000000
0000000000000000
00000007fc000000
00000007fc000000
00000007fc000000
0000000ff8000000
0000000ff8000000
0000000ff8000000
0000001ff0000000
0000001ff0000000
0000001ff0000000
0000003fe0000000
0000003fe0000000
0000003fe0000000
0000007fc0000000
0000007fc0000000
0000007fc0000000
000000ff80000000
0000fff800000000
0000fff800000000
0001fff000000000
0001fff000000000
0001fff000000000
0003ffe000000000
0003ffe000000000
0003ffe000000000
007fc0007fc00000
007fc0007fc00000
007fc0007fc00000
00ff8000ff800000
00ff8000ff800000
00ff8000ff800000
01ff0001ff000000
01ff0001ff000000
001ffffff0000000
003fffffe0000000
003fffffe0000000
003fffffe0000000
007fffffc0000000
007fffffc0000000
007fffffc0000000
00ffffff80000000
0000000000000000
0000000000000000
0000000000000000
0000000000000000
0000000000000000
0000000000000000
0000000000000000
0000000000000000
0000000000000000
0000000000000000
0000000000000000
0000000000000000
0000000000000000
0000000000000000
0000000000000000
0000000000000000
ENDCHAR
STARTCHAR U+00BE
ENCODING 190
SWIDTH 1000 0
DWIDTH 36 0
BBX 62 80 -13 -16
BITMAP
0000007ffffc0000
0000007ffffc0000
0000007ffffc0000
000000fffff80000
000000fffff80000
000000fffff80000
000001fffff00000
000001fffff00000
000000001ff00000
000000003fe00000
000000003fe00000
000000003fe00000
000000007fc00000
000000007fc00000
000000007fc00000
00000000ff400000
000000fff8ff8000
000000fff8ff8000
000001fff1ff0000
000001fff1ff0000
000001fff1ff0000
000003ffe3fe0000
000003ffe3fe0000
000003ffe3fe0000
00000007ffc00000
00000007ffc00000
00000007ffc00000
0000000fff800000
0000000fff800000
0000000fff800000
0000001fff000000
0000001fff000000
0001fffff0000000
0003ffffe0000000
0003ffffe0000000
0003ffffe0000000
0007ffffc0000000
0007ffffc0000000
0007ffffc0000000
000fffff40000000
00000ff8ff800000
00000ff8ff800000
00001ff1ff000000
00001ff1ff000000
00001ff1ff000000
00003fe3fe000000
00003fe3fe000000
00003fe3fe000000
0007fc7ffc000000
0007fc7ffc000000
0007fc7ffc000000
000ff8fff8000000
000ff8fff8000000
000ff8fff8000000
001ff1fff0000000
001ff1fff0000000
01ff37fff0000000
03fe3fffe0000000
03fe3fffe0000000
03fe3fffe0000000
07fc7fffc0000000
07fc7fffc0000000
07fc7fffc0000000
0ff4ffff80000000
000ffffff8000000
000ffffff8000000
001ffffff0000000
001ffffff0000000
001ffffff0000000
003fffffe0000000
003fffffe0000000
003fffffe0000000
000007fc00000000
000007fc00000000
000007fc00000000
00000ff800000000
00000ff800000000
00000ff800000000
00001ff000000000
00001ff000000000
ENDCHAR
STARTCHAR U+00BD
ENCODING 189
SWIDTH 1000 0
DWIDTH 36 0
BBX 62 80 -13 -16
BITMAP
0000000000000000
0000000000000000
0000000000000000
0000000000000000
0000000000000000
0000000000000000
0000000000000000
0000000000000000
0000001ff0000000
0000003fe0000000
0000003fe0000000
0000003fe0000000
0000007fc0000000
0000007fc0000000
0000007fc0000000
000000ff80000000
00000fff80ff8000
00000fff80ff8000
00001fff01ff0000
00001fff01ff0000
00001fff01ff0000
00003ffe03fe0000
00003ffe03fe0000
00003ffe03fe0000
000007fc7fc00000
000007fc7fc00000
000007fc7fc00000
00000ff8ff800000
00000ff8ff800000
00000ff8ff800000
00001ff1ff000000
00001ff1ff000000
00001ffff0000000
00003fffe0000000
00003fffe0000000
00003fffe0000000
00007fffc0000000
00007fffc0000000
00007fffc0000000
0000ffff80000000
00000fffff800000
00000fffff800000
00001fffff000000
00001fffff000000
00001fffff000000
00003ffffe000000
00003ffffe000000
00003ffffe000000
0007fffc7fc00000
0007fffc7fc00000
0007fffc7fc00000
000ffff8ff800000
000ffff8ff800000
000ffff8ff800000
001ffff1ff000000
001ffff1ff000000
01ff0037f0000000
03fe003fe0000000
03fe003fe0000000
03fe003fe0000000
07fc007fc0000000
07fc007fc0000000
07fc007fc0000000
0ff800ff80000000
00000ff800000000
00000ff800000000
00001ff000000000
00001ff000000000
00001ff000000000
00003fe000000000
00003fe000000000
00003fe000000000
0007ffffc0000000
0007ffffc0000000
0007ffffc0000000
000fffff80000000
000fffff80000000
000fffff80000000
001fffff00000000
001fffff00000000
ENDCHAR
STARTCHAR U+00BC
ENCODING 188
SWIDTH 1000 0
DWIDTH 36 0
BBX 62 80 -13 -16
BITMAP
0000000000000000
0000000000000000
0000000000000000
0000000000000000
0000000000000000
0000000000000000
0000000000000000
0000000000000000
0000001ff0000000
0000003fe0000000
0000003fe0000000
0000003fe0000000
0000007fc0000000
0000007fc0000000
0000007fc0000000
000000ff80000000
00000fff80ff8000
00000fff80ff8000
00001fff01ff0000
00001fff01ff0000
00001fff01ff0000
00003ffe03fe0000
00003ffe03fe0000
00003ffe03fe0000
000007fc7fc00000
000007fc7fc00000
000007fc7fc00000
00000ff8ff800000
00000ff8ff800000
00000ff8ff800000
00001ff1ff000000
00001ff1ff000000
00001ffff0000000
00003fffe0000000
00003fffe0000000
00003fffe0000000
00007fffc0000000
00007fffc0000000
00007fffc0000000
0000ffff40000000
00000ff8ff800000
00000ff8ff800000
00001ff1ff000000
00001ff1ff000000
00001ff1ff000000
00003fe3fe000000
00003fe3fe000000
00003fe3fe000000
0007fc7ffc000000
0007fc7ffc000000
0007fc7ffc000000
000ff8fff8000000
000ff8fff8000000
000ff8fff8000000
001ff1fff0000000
001ff1fff0000000
01ff37fff0000000
03fe3fffe0000000
03fe3fffe0000000
03fe3fffe0000000
07fc7fffc0000000
07fc7fffc0000000
07fc7fffc0000000
0ff4ffff80000000
000ffffff8000000
000ffffff8000000
001ffffff0000000
001ffffff0000000
001ffffff0000000
003fffffe0000000
003fffffe0000000
003fffffe0000000
000007fc00000000
000007fc00000000
000007fc00000000
00000ff800000000
00000ff800000000
00000ff800000000
00001ff000000000
00001ff000000000
ENDCHAR
STARTCHAR U+00BB
ENCODING 187
SWIDTH 1000 0
DWIDTH 36 0
BBX 62 80 -13 -16
BITMAP
0000000000000000
0000000000000000
0000000000000000
0000000000000000
0000000000000000
0000000000000000
0000000000000000
0000000000000000
000001ff1ff00000
000003fe3fe00000
000003fe3fe00000
000003fe3fe00000
000007fc7fc00000
000007fc7fc00000
000007fcdfc00000
00000ff8ff800000
000000ff8ff80000
000000ff8ff80000
000001ff1ff00000
000001ff1ff00000
000001ff1ff00000
000003fe3fe00000
000003fe3fe00000
000003fe7fe00000
0000007fc7fc0000
0000007fc7fc0000
0000007fc7fc0000
000000ff8ff80000
000000ff8ff80000
000000ff8ff80000
000001ff1ff00000
000001ff1ff00000
0000001ff1ff0000
0000003fe3fe0000
0000003fe3fe0000
0000003fe3fe0000
0000007fc7fc0000
0000007fc7fc0000
0000007fc7fc0000
000000ff4ff80000
00000ff8ff800000
00000ff8ff800000
00001ff1ff000000
00001ff1ff000000
00001ff1ff000000
00003fe3fe000000
00003fe3fe000000
00003fe3fe000000
0007fc7fc0000000
0007fc7fc0000000
0007fc7fc0000000
000ff8ff80000000
000ff8ff80000000
000ff8ff80000000
001ff1ff00000000
001ff1ff00000000
01ff37f000000000
03fe3fe000000000
03fe3fe000000000
03fe3fe000000000
07fc7fc000000000
07fc7fc000000000
07fc7fc000000000
0ff8ff8000000000
0000000000000000
0000000000000000
0000000000000000
0000000000000000
0000000000000000
0000000000000000
0000000000000000
0000000000000000
0000000000000000
0000000000000000
0000000000000000
0000000000000000
0000000000000000
0000000000000000
0000000000000000
0000000000000000
ENDCHAR
STARTCHAR U+00BA
ENCODING 186
SWIDTH 1000 0
DWIDTH 36 0
BBX 62 80 -13 -16
BITMAP
0000000000000000
0000000000000000
0000000000000000
0000000000000000
0000000000000000
0000000000000000
0000000000000000
0000000000000000
0000001ffffff000
0000003fffffe000
0000003fffffe000
0000003fffffe000
0000007fffffc000
0000007fffffc000
0000007fffffc000
000000ffffff8000
00000ff8000ff800
00000ff8000ff800
00001ff0001ff000
00001ff0001ff000
00001ff0001ff000
00003fe0003fe000
00003fe0003fe000
00003fe0003fe000
00007fc0007fc000
00007fc0007fc000
00007fc0007fc000
0000ff8000ff8000
0000ff8000ff8000
0000ff8000ff8000
0001ff0001ff0000
0001ff0001ff0000
0001ff0001ff0000
0003fe0003fe0000
0003fe0003fe0000
0003fe0003fe0000
0007fc0007fc0000
0007fc0007fc0000
0007fc0007fc0000
000ff8000ff80000
0000ffffff800000
0000ffffff800000
0001ffffff000000
0001ffffff000000
0001ffffff000000
0003fffffe000000
0003fffffe000000
0003fffffe000000
0000000000000000
0000000000000000
0000000000000000
0000000000000000
0000000000000000
0000000000000000
0000000000000000
0000000000000000
01ffffffff000000
03fffffffe000000
03fffffffe000000
03fffffffe000000
07fffffffc000000
07fffffffc000000
07fffffffc000000
0ffffffff8000000
0000000000000000
0000000000000000
0000000000000000
0000000000000000
0000000000000000
0000000000000000
0000000000000000
0000000000000000
0000000000000000
0000000000000000
0000000000000000
0000000000000000
0000000000000000
0000000000000000
0000000000000000
0000000000000000
ENDCHAR
STARTCHAR U+00B9
ENCODING 185
SWIDTH 1000 0
DWIDTH 36 0
BBX 62 80 -13 -16
BITMAP
0000000007fc0000
0000000007fc0000
0000000007fc0000
000000000ff80000
000000000ff80000
000000000ff80000
000000001ff00000
000000001ff00000
00000001fff00000
00000003ffe00000
00000003ffe00000
00000003ffe00000
00000007ffc00000
00000007ffc00000
00000007ffc00000
0000000fff800000
00000000ff800000
00000000ff800000
00000001ff000000
00000001ff000000
00000001ff000000
00000003fe000000
00000003fe000000
00000003fe000000
00000007fc000000
00000007fc000000
00000007fc000000
0000000ff8000000
0000000ff8000000
0000000ff8000000
0000001ff0000000
0000001ff0000000
000001ffff000000
000003fffe000000
000003fffe000000
000003fffe000000
000007fffc000000
000007fffc000000
000007fffc000000
00000ffff8000000
0000000000000000
0000000000000000
0000000000000000
0000000000000000
0000000000000000
0000000000000000
0000000000000000
0000000000000000
0000000000000000
0000000000000000
0000000000000000
0000000000000000
0000000000000000
0000000000000000
0000000000000000
0000000000000000
0000000000000000
0000000000000000
0000000000000000
0000000000000000
0000000000000000
0000000000000000
0000000000000000
0000000000000000
0000000000000000
0000000000000000
0000000000000000
0000000000000000
0000000000000000
0000000000000000
0000000000000000
0000000000000000
0000000000000000
0000000000000000
0000000000000000
0000000000000000
0000000000000000
0000000000000000
0000000000000000
0000000000000000
ENDCHAR
STARTCHAR U+00B8
ENCODING 184
SWIDTH 1000 0
DWIDTH 36 0
BBX 62 80 -13 -16
BITMAP
0000000000000000
0000000000000000
0000000000000000
0000000000000000
0000000000000000
0000000000000000
0000000000000000
0000000000000000
0000000000000000
0000000000000000
0000000000000000
0000000000000000
0000000000000000
0000000000000000
0000000000000000
0000000000000000
0000000000000000
0000000000000000
0000000000000000
0000000000000000
0000000000000000
0000000000000000
0000000000000000
0000000000000000
0000000000000000
0000000000000000
0000000000000000
0000000000000000
0000000000000000
0000000000000000
0000000000000000
0000000000000000
0000000000000000
0000000000000000
0000000000000000
0000000000000000
0000000000000000
0000000000000000
0000000000000000
0000000000000000
0000000000000000
0000000000000000
0000000000000000
0000000000000000
0000000000000000
0000000000000000
0000000000000000
0000000000000000
0000000000000000
0000000000000000
0000000000000000
0000000000000000
0000000000000000
0000000000000000
0000000000000000
0000000000000000
0000000000000000
0000000000000000
0000000000000000
0000000000000000
0000000000000000
0000000000000000
0000000000000000
0000000000000000
00000ff800000000
00000ff800000000
00001ff000000000
00001ff000000000
00001ff000000000
00003fe000000000
00003fe000000000
00003fe000000000
007fffc000000000
007fffc000000000
007fffc000000000
00ffff8000000000
00ffff8000000000
00ffff8000000000
01ffff0000000000
01ffff0000000000
ENDCHAR
STARTCHAR U+2022
ENCODING 8226
SWIDTH 1000 0
DWIDTH 36 0
BBX 62 80 -13 -16
BITMAP
0000000000000000
0000000000000000
0000000000000000
0000000000000000
0000000000000000
0000000000000000
0000000000000000
0000000000000000
0000000000000000
0000000000000000
0000000000000000
0000000000000000
0000000000000000
0000000000000000
0000000000000000
0000000000000000
0000000000000000
0000000000000000
0000000000000000
0000000000000000
0000000000000000
0000000000000000
0000000000000000
0000000000000000
0000007ffc000000
0000007ffc000000
0000007ffc000000
000000fff8000000
000000fff8000000
000000fff8000000
000001fff0000000
000001fff0000000
000001fff0000000
000003ffe0000000
000003ffe0000000
000003ffe0000000
000007ffc0000000
000007ffc0000000
000007ffc0000000
00000fff80000000
0000000000000000
0000000000000000
0000000000000000
0000000000000000
0000000000000000
0000000000000000
0000000000000000
0000000000000000
0000000000000000
0000000000000000
0000000000000000
0000000000000000
0000000000000000
0000000000000000
0000000000000000
0000000000000000
0000000000000000
0000000000000000
0000000000000000
0000000000000000
0000000000000000
0000000000000000
0000000000000000
0000000000000000
0000000000000000
0000000000000000
0000000000000000
0000000000000000
0000000000000000
0000000000000000
0000000000000000
0000000000000000
0000000000000000
0000000000000000
0000000000000000
0000000000000000
0000000000000000
0000000000000000
0000000000000000
0000000000000000
ENDCHAR
STARTCHAR U+00B6
ENCODING 182
SWIDTH 1000 0
DWIDTH 36 0
BBX 62 80 -13 -16
BITMAP
0000000000000000
0000000000000000
0000000000000000
0000000000000000
0000000000000000
0000000000000000
0000000000000000
0000000000000000
0000001fffffff00
0000003ffffffe00
0000003ffffffe00
0000003ffffffe00
0000007ffffffc00
0000007ffffffc00
0000007ffffffc00
000000fffffff800
00000fff8ffff800
00000fff8ffff800
00001fff1ffff000
00001fff1ffff000
00001fff1ffff000
00003ffe3fffe000
00003ffe3fffe000
00003ffe3fffe000
00007ffc7fffc000
00007ffc7fffc000
00007ffc7fffc000
0000fff8ffff8000
0000fff8ffff8000
0000fff8ffff8000
0001fff1ffff0000
0001fff1ffff0000
00001fffffff0000
00003ffffffe0000
00003ffffffe0000
00003ffffffe0000
00007ffffffc0000
00007ffffffc0000
00007ffffffc0000
0000fffffff80000
0000000ffff80000
0000000ffff80000
0000001ffff00000
0000001ffff00000
0000001ffff00000
0000003fffe00000
0000003fffe00000
0000003fffe00000
0000007fffc00000
0000007fffc00000
0000007fffc00000
000000ffff800000
000000ffff800000
000000ffff800000
000001ffff000000
000001ffff000000
000001ffff000000
000003fffe000000
000003fffe000000
000003fffe000000
000007fffc000000
000007fffc000000
000007fffc000000
00000ffff8000000
0000000000000000
0000000000000000
0000000000000000
0000000000000000
0000000000000000
0000000000000000
0000000000000000
0000000000000000
0000000000000000
0000000000000000
0000000000000000
0000000000000000
0000000000000000
0000000000000000
0000000000000000
0000000000000000
ENDCHAR
STARTCHAR U+00B5
ENCODING 181
SWIDTH 1000 0
DWIDTH 36 0
BBX 62 80 -13 -16
BITMAP
0000000000000000
0000000000000000
0000000000000000
0000000000000000
0000000000000000
0000000000000000
0000000000000000
0000000000000000
0000000000000000
0000000000000000
0000000000000000
0000000000000000
0000000000000000
0000000000000000
0000000000000000
0000000000000000
0000000000000000
0000000000000000
0000000000000000
0000000000000000
0000000000000000
0000000000000000
0000000000000000
0000000000000000
000007fc007fc000
000007fc007fc000
000007fc007fc000
00000ff800ff8000
00000ff800ff8000
00000ff800ff8000
00001ff001ff0000
00001ff001ff0000
00001ff001ff0000
00003fe003fe0000
00003fe003fe0000
00003fe003fe0000
00007fc007fc0000
00007fc007fc0000
00007fc007fc0000
0000ff800ff80000
0000ff800ff80000
0000ff800ff80000
0001ff001ff00000
0001ff001ff00000
0001ff001ff00000
0003fe003fe00000
0003fe003fe00000
0003fe003fe00000
0007ffc7ffc00000
0007ffc7ffc00000
0007ffc7ffc00000
000fff8fff800000
000fff8fff800000
000fff8fff800000
001fff1fff000000
001fff1fff000000
001fffffff000000
003ffffffe000000
003ffffffe000000
003ffffffe000000
007ffffffc000000
007ffffffc000000
007ffffffc000000
00fffffff8000000
00ff800000000000
00ff800000000000
01ff000000000000
01ff000000000000
01ff000000000000
03fe000000000000
03fe000000000000
03fe000000000000
7fc0000000000000
7fc0000000000000
7fc0000000000000
ff80000000000000
ff80000000000000
ff80000000000000
ff00000000000000
ff00000000000000
ENDCHAR
STARTCHAR U+00B4
ENCODING 180
SWIDTH 1000 0
DWIDTH 36 0
BBX 62 80 -13 -16
BITMAP
0000000000000000
0000000000000000
0000000000000000
0000000000000000
0000000000000000
0000000000000000
0000000000000000
0000000000000000
0000000001fff000
0000000003ffe000
0000000003ffe000
0000000003ffe000
0000000007ffc000
0000000007ffc000
0000000007ffc000
000000000fff8000
000000000ff80000
000000000ff80000
000000001ff00000
000000001ff00000
000000001ff00000
000000003fe00000
000000003fe00000
000000003fe00000
00000007fc000000
00000007fc000000
00000007fc000000
0000000ff8000000
0000000ff8000000
0000000ff8000000
0000001ff0000000
0000001ff0000000
0000000000000000
0000000000000000
0000000000000000
0000000000000000
0000000000000000
0000000000000000
0000000000000000
0000000000000000
0000000000000000
0000000000000000
0000000000000000
0000000000000000
0000000000000000
0000000000000000
0000000000000000
0000000000000000
0000000000000000
0000000000000000
0000000000000000
0000000000000000
0000000000000000
0000000000000000
0000000000000000
0000000000000000
0000000000000000
0000000000000000
0000000000000000
0000000000000000
0000000000000000
0000000000000000
0000000000000000
0000000000000000
0000000000000000
0000000000000000
0000000000000000
0000000000000000
0000000000000000
0000000000000000
0000000000000000
0000000000000000
0000000000000000
0000000000000000
0000000000000000
0000000000000000
0000000000000000
0000000000000000
0000000000000000
0000000000000000
ENDCHAR
STARTCHAR U+00B3
ENCODING 179
SWIDTH 1000 0
DWIDTH 36 0
BBX 62 80 -13 -16
BITMAP
00000007fffffc00
00000007fffffc00
00000007fffffc00
0000000ffffff800
0000000ffffff800
0000000ffffff800
0000001ffffff000
0000001ffffff000
00000000001ff000
00000000003fe000
00000000003fe000
00000000003fe000
00000000007fc000
00000000007fc000
00000000007fc000
0000000000ff8000
00000000fff80000
00000000fff80000
00000001fff00000
00000001fff00000
00000001fff00000
00000003ffe00000
00000003ffe00000
00000003ffe00000
0000000007fc0000
0000000007fc0000
0000000007fc0000
000000000ff80000
000000000ff80000
000000000ff80000
000000001ff00000
000000001ff00000
00001fffff000000
00003ffffe000000
00003ffffe000000
00003ffffe000000
00007ffffc000000
00007ffffc000000
00007ffffc000000
0000fffff8000000
0000000000000000
0000000000000000
0000000000000000
0000000000000000
0000000000000000
0000000000000000
0000000000000000
0000000000000000
0000000000000000
0000000000000000
0000000000000000
0000000000000000
0000000000000000
0000000000000000
0000000000000000
0000000000000000
0000000000000000
0000000000000000
0000000000000000
0000000000000000
0000000000000000
0000000000000000
0000000000000000
0000000000000000
0000000000000000
0000000000000000
0000000000000000
0000000000000000
0000000000000000
0000000000000000
0000000000000000
0000000000000000
0000000000000000
0000000000000000
0000000000000000
0000000000000000
0000000000000000
0000000000000000
0000000000000000
0000000000000000
ENDCHAR
STARTCHAR U+00B2
ENCODING 178
SWIDTH 1000 0
DWIDTH 36 0
BBX 62 80 -13 -16
BITMAP
000000007fffc000
000000007fffc000
000000007fffc000
00000000ffff8000
00000000ffff8000
00000000ffff8000
00000001ffff0000
00000001ffff0000
0000001ff01ff000
0000003fe03fe000
0000003fe03fe000
0000003fe03fe000
0000007fc07fc000
0000007fc07fc000
0000007fc07fc000
000000ff40ff8000
00000000fff80000
00000000fff80000
00000001fff00000
00000001fff00000
00000001fff00000
00000003ffe00000
00000003ffe00000
00000003ffe00000
0000007fc0000000
0000007fc0000000
0000007fc0000000
000000ff80000000
000000ff80000000
000000ff80000000
000001ff00000000
000001ff00000000
00001ffffff00000
00003fffffe00000
00003fffffe00000
00003fffffe00000
00007fffffc00000
00007fffffc00000
00007fffffc00000
0000ffffff800000
0000000000000000
0000000000000000
0000000000000000
0000000000000000
0000000000000000
0000000000000000
0000000000000000
0000000000000000
0000000000000000
0000000000000000
0000000000000000
0000000000000000
0000000000000000
0000000000000000
0000000000000000
0000000000000000
0000000000000000
0000000000000000
0000000000000000
0000000000000000
0000000000000000
0000000000000000
0000000000000000
0000000000000000
0000000000000000
0000000000000000
0000000000000000
0000000000000000
0000000000000000
0000000000000000
0000000000000000
0000000000000000
0000000000000000
0000000000000000
0000000000000000
0000000000000000
0000000000000000
0000000000000000
0000000000000000
0000000000000000
ENDCHAR
STARTCHAR U+00AF
ENCODING 175
SWIDTH 1000 0
DWIDTH 36 0
BBX 62 80 -13 -16
BITMAP
00000007fffffc00
00000007fffffc00
00000007fffffc00
0000000ffffff800
0000000ffffff800
0000000ffffff800
0000001ffffff000
0000001ffffff000
0000000000000000
0000000000000000
0000000000000000
0000000000000000
0000000000000000
0000000000000000
0000000000000000
0000000000000000
0000000000000000
0000000000000000
0000000000000000
0000000000000000
0000000000000000
0000000000000000
0000000000000000
0000000000000000
0000000000000000
0000000000000000
0000000000000000
0000000000000000
0000000000000000
0000000000000000
0000000000000000
0000000000000000
0000000000000000
0000000000000000
0000000000000000
0000000000000000
0000000000000000
0000000000000000
0000000000000000
0000000000000000
0000000000000000
0000000000000000
0000000000000000
0000000000000000
0000000000000000
0000000000000000
0000000000000000
0000000000000000
0000000000000000
0000000000000000
0000000000000000
0000000000000000
0000000000000000
0000000000000000
0000000000000000
0000000000000000
0000000000000000
0000000000000000
0000000000000000
0000000000000000
0000000000000000
0000000000000000
0000000000000000
0000000000000000
0000000000000000
0000000000000000
0000000000000000
0000000000000000
0000000000000000
0000000000000000
0000000000000000
0000000000000000
0000000000000000
0000000000000000
0000000000000000
0000000000000000
0000000000000000
0000000000000000
0000000000000000
0000000000000000
ENDCHAR
STARTCHAR U+00AE
ENCODING 174
SWIDTH 1000 0
DWIDTH 36 0
BBX 62 80 -13 -16
BITMAP
0000000000000000
0000000000000000
0000000000000000
0000000000000000
0000000000000000
0000000000000000
0000000000000000
0000000000000000
00000001ffff0000
00000003fffe0000
00000003fffe0000
00000003fffe0000
00000007fffc0000
00000007fffc0000
00000007fffc0000
0000000ffff80000
000000ff80ff8000
000000ff80ff8000
000001ff01ff0000
000001ff01ff0000
000001ff01ff0000
000003fe03fe0000
000003fe03fe0000
000003fe03fe0000
00007fffffffc000
00007fffffffc000
00007fffffffc000
0000ffffffff8000
0000ffffffff8000
0000ffffffff8000
0001ffffffff0000
0001ffffffff0000
0001ffff1fff0000
0003fffe3ffe0000
0003fffe3ffe0000
0003fffe3ffe0000
0007fffc7ffc0000
0007fffc7ffc0000
0007fffc7ffc0000
000ffff8fff80000
000ffffffff80000
000ffffffff80000
001ffffffff00000
001ffffffff00000
001ffffffff00000
003fffffffe00000
003fffffffe00000
003fffffffe00000
007ffffc7fc00000
007ffffc7fc00000
007ffffc7fc00000
00fffff8ff800000
00fffff8ff800000
00fffff8ff800000
01fffff1ff000000
01fffff1ff000000
001ffffff0000000
003fffffe0000000
003fffffe0000000
003fffffe0000000
007fffffc0000000
007fffffc0000000
007fffffc0000000
00ffffff80000000
000ffff800000000
000ffff800000000
001ffff000000000
001ffff000000000
001ffff000000000
003fffe000000000
003fffe000000000
003fffe000000000
0000000000000000
0000000000000000
0000000000000000
0000000000000000
0000000000000000
0000000000000000
0000000000000000
0000000000000000
ENDCHAR
STARTCHAR U+00D7
ENCODING 215
SWIDTH 1000 0
DWIDTH 36 0
BBX 62 80 -13 -16
BITMAP
0000000000000000
0000000000000000
0000000000000000
0000000000000000
0000000000000000
0000000000000000
0000000000000000
0000000000000000
0000000000000000
0000000000000000
0000000000000000
0000000000000000
0000000000000000
0000000000000000
0000000000000000
0000000000000000
000000ff80ff8000
000000ff80ff8000
000001ff01ff0000
000001ff01ff0000
000001ff01ff0000
000003fe03fe0000
000003fe03fe0000
000003fe03fe0000
0000007fffc00000
0000007fffc00000
0000007fffc00000
000000ffff800000
000000ffff800000
000000ffff800000
000001ffff000000
000001ffff000000
0000001ff0000000
0000003fe0000000
0000003fe0000000
0000003fe0000000
0000007fc0000000
0000007fc0000000
0000007fc0000000
000000ff80000000
00000ffff8000000
00000ffff8000000
00001ffff0000000
00001ffff0000000
00001ffff0000000
00003fffe0000000
00003fffe0000000
00003fffe0000000
0007fc07fc000000
0007fc07fc000000
0007fc07fc000000
000ff80ff8000000
000ff80ff8000000
000ff80ff8000000
001ff01ff0000000
001ff01ff0000000
0000000000000000
0000000000000000
0000000000000000
0000000000000000
0000000000000000
0000000000000000
0000000000000000
0000000000000000
0000000000000000
0000000000000000
0000000000000000
0000000000000000
0000000000000000
0000000000000000
0000000000000000
0000000000000000
0000000000000000
0000000000000000
0000000000000000
0000000000000000
0000000000000000
0000000000000000
0000000000000000
0000000000000000
ENDCHAR
STARTCHAR U+00AC
ENCODING 172
SWIDTH 1000 0
DWIDTH 36 0
BBX 62 80 -13 -16
BITMAP
0000000000000000
0000000000000000
0000000000000000
0000000000000000
0000000000000000
0000000000000000
0000000000000000
0000000000000000
0000000000000000
0000000000000000
0000000000000000
0000000000000000
0000000000000000
0000000000000000
0000000000000000
0000000000000000
0000000000000000
0000000000000000
0000000000000000
0000000000000000
0000000000000000
0000000000000000
0000000000000000
0000000000000000
0000000000000000
0000000000000000
0000000000000000
0000000000000000
0000000000000000
0000000000000000
0000000000000000
0000000000000000
0000000000000000
0000000000000000
0000000000000000
0000000000000000
0000000000000000
0000000000000000
0000000000000000
0000000000000000
000ffffffff80000
000ffffffff80000
001ffffffff00000
001ffffffff00000
001ffffffff00000
003fffffffe00000
003fffffffe00000
003fffffffe00000
000000007fc00000
000000007fc00000
000000007fc00000
00000000ff800000
00000000ff800000
00000000ff800000
00000001ff000000
00000001ff000000
00000001ff000000
00000003fe000000
00000003fe000000
00000003fe000000
00000007fc000000
00000007fc000000
00000007fc000000
0000000ff8000000
0000000000000000
0000000000000000
0000000000000000
0000000000000000
0000000000000000
0000000000000000
0000000000000000
0000000000000000
0000000000000000
0000000000000000
0000000000000000
0000000000000000
0000000000000000
0000000000000000
0000000000000000
0000000000000000
ENDCHAR
STARTCHAR U+00AB
ENCODING 171
SWIDTH 1000 0
DWIDTH 36 0
BBX 62 80 -13 -16
BITMAP
0000000000000000
0000000000000000
0000000000000000
0000000000000000
0000000000000000
0000000000000000
0000000000000000
0000000000000000
000000001ff1ff00
000000003fe3fe00
000000003fe3fe00
000000003fe3fe00
000000007fc7fc00
000000007fc7fc00
000000007fc7fc00
00000000ff4ff800
0000000ff8ff8000
0000000ff8ff8000
0000001ff1ff0000
0000001ff1ff0000
0000001ff1ff0000
0000003fe3fe0000
0000003fe3fe0000
0000003fe3fe0000
000007fc7fc00000
000007fc7fc00000
000007fc7fc00000
00000ff8ff800000
00000ff8ff800000
00000ff8ff800000
00001ff1ff000000
00001ff1ff000000
0001ff37f0000000
0003fe3fe0000000
0003fe3fe0000000
0003fe3fe0000000
0007fc7fc0000000
0007fc7fc0000000
0007fcdfc0000000
000ff8ff80000000
0000ff8ff8000000
0000ff8ff8000000
0001ff1ff0000000
0001ff1ff0000000
0001ff1ff0000000
0003fe3fe0000000
0003fe3fe0000000
0003fe7fe0000000
00007fc7fc000000
00007fc7fc000000
00007fc7fc000000
0000ff8ff8000000
0000ff8ff8000000
0000ff8ff8000000
0001ff1ff0000000
0001ff1ff0000000
00001ff1ff000000
00003fe3fe000000
00003fe3fe000000
00003fe3fe000000
00007fc7fc000000
00007fc7fc000000
00007fc7fc000000
0000ff8ff8000000
0000000000000000
0000000000000000
0000000000000000
0000000000000000
0000000000000000
0000000000000000
0000000000000000
0000000000000000
0000000000000000
0000000000000000
0000000000000000
0000000000000000
0000000000000000
0000000000000000
0000000000000000
0000000000000000
ENDCHAR
STARTCHAR U+00AA
ENCODING 170
SWIDTH 1000 0
DWIDTH 36 0
BBX 62 80 -13 -16
BITMAP
0000000000000000
0000000000000000
0000000000000000
0000000000000000
0000000000000000
0000000000000000
0000000000000000
0000000000000000
0000001ffffff000
0000003fffffe000
0000003fffffe000
0000003fffffe000
0000007fffffc000
0000007fffffc000
0000007fffffc000
000000ffffff8000
00000000000ff800
00000000000ff800
00000000001ff000
00000000001ff000
00000000001ff000
00000000003fe000
00000000003fe000
00000000003fe000
000007ffffffc000
000007ffffffc000
000007ffffffc000
00000fffffff8000
00000fffffff8000
00000fffffff8000
00001fffffff0000
00001fffffff0000
0001ff001fff0000
0003fe003ffe0000
0003fe003ffe0000
0003fe003ffe0000
0007fc007ffc0000
0007fc007ffc0000
0007fc007ffc0000
000ff800fff80000
0000fffffff80000
0000fffffff80000
0001fffffff00000
0001fffffff00000
0001fffffff00000
0003ffffffe00000
0003ffffffe00000
0003ffffffe00000
0000000000000000
0000000000000000
0000000000000000
0000000000000000
0000000000000000
0000000000000000
0000000000000000
0000000000000000
01ffffffff000000
03fffffffe000000
03fffffffe000000
03fffffffe000000
07fffffffc000000
07fffffffc000000
07fffffffc000000
0ffffffff8000000
0000000000000000
0000000000000000
0000000000000000
0000000000000000
0000000000000000
0000000000000000
0000000000000000
0000000000000000
0000000000000000
0000000000000000
0000000000000000
0000000000000000
0000000000000000
0000000000000000
0000000000000000
0000000000000000
ENDCHAR
STARTCHAR U+00A9
ENCODING 169
SWIDTH 1000 0
DWIDTH 36 0
BBX 62 80 -13 -16
BITMAP
0000000000000000
0000000000000000
0000000000000000
0000000000000000
0000000000000000
0000000000000000
0000000000000000
0000000000000000
00000001ffff0000
00000003fffe0000
00000003fffe0000
00000003fffe0000
00000007fffc0000
00000007fffc0000
00000007fffc0000
0000000ffff80000
000000ff80ff8000
000000ff80ff8000
000001ff01ff0000
000001ff01ff0000
000001ff01ff0000
000003fe03fe0000
000003fe03fe0000
000003fe03fe0000
00007fc7ffffc000
00007fc7ffffc000
00007fc7ffffc000
0000ff8fffff8000
0000ff8fffff8000
0000ff8fffff8000
0001ff1fffff0000
0001ff1fffff0000
0001ffff01ff0000
0003fffe03fe0000
0003fffe03fe0000
0003fffe03fe0000
0007fffc07fc0000
0007fffc07fc0000
0007fffc07fc0000
000ffff80ff80000
000ffff80ff80000
000ffff80ff80000
001ffff01ff00000
001ffff01ff00000
001ffff01ff00000
003fffe03fe00000
003fffe03fe00000
003fffe03fe00000
007fc7ffffc00000
007fc7ffffc00000
007fc7ffffc00000
00ff8fffff800000
00ff8fffff800000
00ff8fffff800000
01ff1fffff000000
01ff1fffff000000
001ff01ff0000000
003fe03fe0000000
003fe03fe0000000
003fe03fe0000000
007fc07fc0000000
007fc07fc0000000
007fc07fc0000000
00ff80ff80000000
000ffff800000000
000ffff800000000
001ffff000000000
001ffff000000000
001ffff000000000
003fffe000000000
003fffe000000000
003fffe000000000
0000000000000000
0000000000000000
0000000000000000
0000000000000000
0000000000000000
0000000000000000
0000000000000000
0000000000000000
ENDCHAR
STARTCHAR U+00A4
ENCODING 164
SWIDTH 1000 0
DWIDTH 36 0
BBX 62 80 -13 -16
BITMAP
0000000000000000
0000000000000000
0000000000000000
0000000000000000
0000000000000000
0000000000000000
0000000000000000
0000000000000000
0000000000000000
0000000000000000
0000000000000000
0000000000000000
0000000000000000
0000000000000000
0000000000000000
0000000000000000
00000ff8000ff800
00000ff8000ff800
00001ff0001ff000
00001ff0001ff000
00001ff0001ff000
00003fe0003fe000
00003fe0003fe000
00003fe0003fe000
000007fffffc0000
000007fffffc0000
000007fffffc0000
00000ffffff80000
00000ffffff80000
00000ffffff80000
00001ffffff00000
00001ffffff00000
00001ff01ff00000
00003fe03fe00000
00003fe03fe00000
00003fe03fe00000
00007fc07fc00000
00007fc07fc00000
00007fc07fc00000
0000ff80ff800000
0000ffffff800000
0000ffffff800000
0001ffffff000000
0001ffffff000000
0001ffffff000000
0003fffffe000000
0003fffffe000000
0003fffffe000000
007fc0007fc00000
007fc0007fc00000
007fc0007fc00000
00ff8000ff800000
00ff8000ff800000
00ff8000ff800000
01ff0001ff000000
01ff0001ff000000
0000000000000000
0000000000000000
0000000000000000
0000000000000000
0000000000000000
0000000000000000
0000000000000000
0000000000000000
0000000000000000
0000000000000000
0000000000000000
0000000000000000
0000000000000000
0000000000000000
0000000000000000
0000000000000000
0000000000000000
0000000000000000
0000000000000000
0000000000000000
0000000000000000
0000000000000000
0000000000000000
0000000000000000
ENDCHAR
STARTCHAR U+00A7
ENCODING 167
SWIDTH 1000 0
DWIDTH 36 0
BBX 62 80 -13 -16
BITMAP
0000000000000000
0000000000000000
0000000000000000
0000000000000000
0000000000000000
0000000000000000
0000000000000000
0000000000000000
00000001fffff000
00000003ffffe000
00000003ffffe000
00000003ffffe000
00000007ffffc000
00000007ffffc000
00000007ffffc000
0000000fffff8000
000000ff80000000
000000ff80000000
000001ff00000000
000001ff00000000
000001ff00000000
000003fe00000000
000003fe00000000
000003fe00000000
0000007fffc00000
0000007fffc00000
0000007fffc00000
000000ffff800000
000000ffff800000
000000ffff800000
000001ffff000000
000001ffff000000
00001ff01ff00000
00003fe03fe00000
00003fe03fe00000
00003fe03fe00000
00007fc07fc00000
00007fc07fc00000
00007fc07fc00000
0000ff80ff800000
00000ffff8000000
00000ffff8000000
00001ffff0000000
00001ffff0000000
00001ffff0000000
00003fffe0000000
00003fffe0000000
00003fffe0000000
00000007fc000000
00000007fc000000
00000007fc000000
0000000ff8000000
0000000ff8000000
0000000ff8000000
0000001ff0000000
0000001ff0000000
001fffff00000000
003ffffe00000000
003ffffe00000000
003ffffe00000000
007ffffc00000000
007ffffc00000000
007ffffc00000000
00fffff800000000
0000000000000000
0000000000000000
0000000000000000
0000000000000000
0000000000000000
0000000000000000
0000000000000000
0000000000000000
0000000000000000
0000000000000000
0000000000000000
0000000000000000
0000000000000000
0000000000000000
0000000000000000
0000000000000000
ENDCHAR
STARTCHAR U+00A6
ENCODING 166
SWIDTH 1000 0
DWIDTH 36 0
BBX 62 80 -13 -16
BITMAP
0000000000000000
0000000000000000
0000000000000000
0000000000000000
0000000000000000
0000000000000000
0000000000000000
0000000000000000
000000001ff00000
000000003fe00000
000000003fe00000
000000003fe00000
000000007fc00000
000000007fc00000
000000007fc00000
00000000ff800000
00000000ff800000
00000000ff800000
00000001ff000000
00000001ff000000
00000001ff000000
00000003fe000000
00000003fe000000
00000003fe000000
00000007fc000000
00000007fc000000
00000007fc000000
0000000ff8000000
0000000ff8000000
0000000ff8000000
0000001ff0000000
0000001ff0000000
0000000000000000
0000000000000000
0000000000000000
0000000000000000
0000000000000000
0000000000000000
0000000000000000
0000000000000000
000000ff80000000
000000ff80000000
000001ff00000000
000001ff00000000
000001ff00000000
000003fe00000000
000003fe00000000
000003fe00000000
000007fc00000000
000007fc00000000
000007fc00000000
00000ff800000000
00000ff800000000
00000ff800000000
00001ff000000000
00001ff000000000
00001ff000000000
00003fe000000000
00003fe000000000
00003fe000000000
00007fc000000000
00007fc000000000
00007fc000000000
0000ff8000000000
0000000000000000
0000000000000000
0000000000000000
0000000000000000
0000000000000000
0000000000000000
0000000000000000
0000000000000000
0000000000000000
0000000000000000
0000000000000000
0000000000000000
0000000000000000
0000000000000000
0000000000000000
0000000000000000
ENDCHAR
STARTCHAR U+00A5
ENCODING 165
SWIDTH 1000 0
DWIDTH 36 0
BBX 62 80 -13 -16
BITMAP
0000000000000000
0000000000000000
0000000000000000
0000000000000000
0000000000000000
0000000000000000
0000000000000000
0000000000000000
000001ff0001ff00
000003fe0003fe00
000003fe0003fe00
000003fe0003fe00
000007fc0007fc00
000007fc0007fc00
000007fc0007fc00
00000ff8000ff800
000000ff80ff8000
000000ff80ff8000
000001ff01ff0000
000001ff01ff0000
000001ff01ff0000
000003fe03fe0000
000003fe03fe0000
000003fe03fe0000
0000007fffc00000
0000007fffc00000
0000007fffc00000
000000ffff800000
000000ffff800000
000000ffff800000
000001ffff000000
000001ffff000000
0000001ff0000000
0000003fe0000000
0000003fe0000000
0000003fe0000000
0000007fc0000000
0000007fc0000000
0000007fc0000000
000000ff80000000
000ffffffff80000
000ffffffff80000
001ffffffff00000
001ffffffff00000
001ffffffff00000
003fffffffe00000
003fffffffe00000
003fffffffe00000
000007fc00000000
000007fc00000000
000007fc00000000
00000ff800000000
00000ff800000000
00000ff800000000
00001ff000000000
00001ff000000000
00001ff000000000
00003fe000000000
00003fe000000000
00003fe000000000
00007fc000000000
00007fc000000000
00007fc000000000
0000ff8000000000
0000000000000000
0000000000000000
0000000000000000
0000000000000000
0000000000000000
0000000000000000
0000000000000000
0000000000000000
0000000000000000
0000000000000000
0000000000000000
0000000000000000
0000000000000000
0000000000000000
0000000000000000
0000000000000000
ENDCHAR
STARTCHAR U+00A8
ENCODING 168
SWIDTH 1000 0
DWIDTH 36 0
BBX 62 80 -13 -16
BITMAP
00000007fc07fc00
00000007fc07fc00
00000007fc07fc00
0000000ff80ff800
0000000ff80ff800
0000000ff80ff800
0000001ff01ff000
0000001ff01ff000
0000000000000000
0000000000000000
0000000000000000
0000000000000000
0000000000000000
0000000000000000
0000000000000000
0000000000000000
0000000000000000
0000000000000000
0000000000000000
0000000000000000
0000000000000000
0000000000000000
0000000000000000
0000000000000000
0000000000000000
0000000000000000
0000000000000000
0000000000000000
0000000000000000
0000000000000000
0000000000000000
0000000000000000
0000000000000000
0000000000000000
0000000000000000
0000000000000000
0000000000000000
0000000000000000
0000000000000000
0000000000000000
0000000000000000
0000000000000000
0000000000000000
0000000000000000
0000000000000000
0000000000000000
0000000000000000
0000000000000000
0000000000000000
0000000000000000
0000000000000000
0000000000000000
0000000000000000
0000000000000000
0000000000000000
0000000000000000
0000000000000000
0000000000000000
0000000000000000
0000000000000000
0000000000000000
0000000000000000
0000000000000000
0000000000000000
0000000000000000
0000000000000000
0000000000000000
0000000000000000
0000000000000000
0000000000000000
0000000000000000
0000000000000000
0000000000000000
0000000000000000
0000000000000000
0000000000000000
0000000000000000
0000000000000000
0000000000000000
0000000000000000
ENDCHAR
STARTCHAR U+00A2
ENCODING 162
SWIDTH 1000 0
DWIDTH 36 0
BBX 62 80 -13 -16
BITMAP
0000000000000000
0000000000000000
0000000000000000
0000000000000000
0000000000000000
0000000000000000
0000000000000000
0000000000000000
0000000000000000
0000000000000000
0000000000000000
0000000000000000
0000000000000000
0000000000000000
0000000000000000
0000000000000000
00000000ff800000
00000000ff800000
00000001ff000000
00000001ff000000
00000001ff000000
00000003fe000000
00000003fe000000
00000003fe000000
000007fffffc0000
000007fffffc0000
000007fffffc0000
00000ffffff80000
00000ffffff80000
00000ffffff80000
00001ffffff00000
00001ffffff00000
0001ff1ff1ff0000
0003fe3fe3fe0000
0003fe3fe3fe0000
0003fe3fe3fe0000
0007fc7fc7fc0000
0007fc7fc7fc0000
0007fc7fc7fc0000
000ff8ff8ff80000
000ff8ff80000000
000ff8ff80000000
001ff1ff00000000
001ff1ff00000000
001ff1ff00000000
003fe3fe00000000
003fe3fe00000000
003fe3fe00000000
007fc7fc7fc00000
007fc7fc7fc00000
007fc7fc7fc00000
00ff8ff8ff800000
00ff8ff8ff800000
00ff8ff8ff800000
01ff1ff1ff000000
01ff1ff1ff000000
001ffffff0000000
003fffffe0000000
003fffffe0000000
003fffffe0000000
007fffffc0000000
007fffffc0000000
007fffffc0000000
00ffffff80000000
0000ff8000000000
0000ff8000000000
0001ff0000000000
0001ff0000000000
0001ff0000000000
0003fe0000000000
0003fe0000000000
0003fe0000000000
0000000000000000
0000000000000000
0000000000000000
0000000000000000
0000000000000000
0000000000000000
0000000000000000
0000000000000000
ENDCHAR
STARTCHAR U+00A1
ENCODING 161
SWIDTH 1000 0
DWIDTH 36 0
BBX 62 80 -13 -16
BITMAP
0000000000000000
0000000000000000
0000000000000000
0000000000000000
0000000000000000
0000000000000000
0000000000000000
0000000000000000
000000001ff00000
000000003fe00000
000000003fe00000
000000003fe00000
000000007fc00000
000000007fc00000
000000007fc00000
00000000ff800000
0000000000000000
0000000000000000
0000000000000000
0000000000000000
0000000000000000
0000000000000000
0000000000000000
0000000000000000
00000007fc000000
00000007fc000000
00000007fc000000
0000000ff8000000
0000000ff8000000
0000000ff8000000
0000001ff0000000
0000001ff0000000
0000001ff0000000
0000003fe0000000
0000003fe0000000
0000003fe0000000
0000007fc0000000
0000007fc0000000
0000007fc0000000
000000ff80000000
000000ff80000000
000000ff80000000
000001ff00000000
000001ff00000000
000001ff00000000
000003fe00000000
000003fe00000000
000003fe00000000
000007fc00000000
000007fc00000000
000007fc00000000
00000ff800000000
00000ff800000000
00000ff800000000
00001ff000000000
00001ff000000000
00001ff000000000
00003fe000000000
00003fe000000000
00003fe000000000
00007fc000000000
00007fc000000000
00007fc000000000
0000ff8000000000
0000000000000000
0000000000000000
0000000000000000
0000000000000000
0000000000000000
0000000000000000
0000000000000000
0000000000000000
0000000000000000
0000000000000000
0000000000000000
0000000000000000
0000000000000000
0000000000000000
0000000000000000
0000000000000000
ENDCHAR
STARTCHAR U+201F
ENCODING 8223
SWIDTH 1000 0
DWIDTH 36 0
BBX 62 80 -13 -16
BITMAP
0000000000000000
0000000000000000
0000000000000000
0000000000000000
0000000000000000
0000000000000000
0000000000000000
0000000000000000
0000001ffffff000
0000003fffffe000
0000003fffffe000
0000003fffffe000
0000007fffffc000
0000007fffffc000
0000007fffffc000
000000ffffff8000
000000ff8ff80000
000000ff8ff80000
000001ff1ff00000
000001ff1ff00000
000001ff1ff00000
000003fe3fe00000
000003fe3fe00000
000003fe7fe00000
0000007fc7fc0000
0000007fc7fc0000
0000007fc7fc0000
000000ff8ff80000
000000ff8ff80000
000000ff8ff80000
000001ff1ff00000
000001ff1ff00000
0000000000000000
0000000000000000
0000000000000000
0000000000000000
0000000000000000
0000000000000000
0000000000000000
0000000000000000
0000000000000000
0000000000000000
0000000000000000
0000000000000000
0000000000000000
0000000000000000
0000000000000000
0000000000000000
0000000000000000
0000000000000000
0000000000000000
0000000000000000
0000000000000000
0000000000000000
0000000000000000
0000000000000000
0000000000000000
0000000000000000
0000000000000000
0000000000000000
0000000000000000
0000000000000000
0000000000000000
0000000000000000
0000000000000000
0000000000000000
0000000000000000
0000000000000000
0000000000000000
0000000000000000
0000000000000000
0000000000000000
0000000000000000
0000000000000000
0000000000000000
0000000000000000
0000000000000000
0000000000000000
0000000000000000
0000000000000000
ENDCHAR
STARTCHAR U+201E
ENCODING 8222
SWIDTH 1000 0
DWIDTH 36 0
BBX 62 80 -13 -16
BITMAP
0000000000000000
0000000000000000
0000000000000000
0000000000000000
0000000000000000
0000000000000000
0000000000000000
0000000000000000
0000000000000000
0000000000000000
0000000000000000
0000000000000000
0000000000000000
0000000000000000
0000000000000000
0000000000000000
0000000000000000
0000000000000000
0000000000000000
0000000000000000
0000000000000000
0000000000000000
0000000000000000
0000000000000000
0000000000000000
0000000000000000
0000000000000000
0000000000000000
0000000000000000
0000000000000000
0000000000000000
0000000000000000
0000000000000000
0000000000000000
0000000000000000
0000000000000000
0000000000000000
0000000000000000
0000000000000000
0000000000000000
0000000000000000
0000000000000000
0000000000000000
0000000000000000
0000000000000000
0000000000000000
0000000000000000
0000000000000000
0000000000000000
0000000000000000
0000000000000000
0000000000000000
0000000000000000
0000000000000000
0000000000000000
0000000000000000
001ff1ff00000000
003fe3fe00000000
003fe3fe00000000
003fe3fe00000000
007fc7fc00000000
007fc7fc00000000
007fc7fc00000000
00ff8ff800000000
00ff8ff800000000
00ff8ff800000000
01ff1ff000000000
01ff1ff000000000
01ff1ff000000000
03fe3fe000000000
03fe3fe000000000
03fe3fe000000000
0000000000000000
0000000000000000
0000000000000000
0000000000000000
0000000000000000
0000000000000000
0000000000000000
0000000000000000
ENDCHAR
STARTCHAR U+201D
ENCODING 8221
SWIDTH 1000 0
DWIDTH 36 0
BBX 62 80 -13 -16
BITMAP
0000000000000000
0000000000000000
0000000000000000
0000000000000000
0000000000000000
0000000000000000
0000000000000000
0000000000000000
0000001fff1fff00
0000003ffe3ffe00
0000003ffe3ffe00
0000003ffe3ffe00
0000007ffc7ffc00
0000007ffc7ffc00
0000007ffc7ffc00
000000fff8fff800
0000000ff80ff800
0000000ff80ff800
0000001ff01ff000
0000001ff01ff000
0000001ff01ff000
0000003fe03fe000
0000003fe03fe000
0000003fe03fe000
000007fc07fc0000
000007fc07fc0000
000007fc07fc0000
00000ff80ff80000
00000ff80ff80000
00000ff80ff80000
00001ff01ff00000
00001ff01ff00000
0000000000000000
0000000000000000
0000000000000000
0000000000000000
0000000000000000
0000000000000000
0000000000000000
0000000000000000
0000000000000000
0000000000000000
0000000000000000
0000000000000000
0000000000000000
0000000000000000
0000000000000000
0000000000000000
0000000000000000
0000000000000000
0000000000000000
0000000000000000
0000000000000000
0000000000000000
0000000000000000
0000000000000000
0000000000000000
0000000000000000
0000000000000000
0000000000000000
0000000000000000
0000000000000000
0000000000000000
0000000000000000
0000000000000000
0000000000000000
0000000000000000
0000000000000000
0000000000000000
0000000000000000
0000000000000000
0000000000000000
0000000000000000
0000000000000000
0000000000000000
0000000000000000
0000000000000000
0000000000000000
0000000000000000
0000000000000000
ENDCHAR
STARTCHAR U+201C
ENCODING 8220
SWIDTH 1000 0
DWIDTH 36 0
BBX 62 80 -13 -16
BITMAP
0000000000000000
0000000000000000
0000000000000000
0000000000000000
0000000000000000
0000000000000000
0000000000000000
0000000000000000
00000001ff01ff00
00000003fe03fe00
00000003fe03fe00
00000003fe03fe00
00000007fc07fc00
00000007fc07fc00
00000007fc07fc00
0000000ff80ff800
000000ff80ff8000
000000ff80ff8000
000001ff01ff0000
000001ff01ff0000
000001ff01ff0000
000003fe03fe0000
000003fe03fe0000
000003fe03fe0000
000007ffc7ffc000
000007ffc7ffc000
000007ffc7ffc000
00000fff8fff8000
00000fff8fff8000
00000fff8fff8000
00001fff1fff0000
00001fff1fff0000
0000000000000000
0000000000000000
0000000000000000
0000000000000000
0000000000000000
0000000000000000
0000000000000000
0000000000000000
0000000000000000
0000000000000000
0000000000000000
0000000000000000
0000000000000000
0000000000000000
0000000000000000
0000000000000000
0000000000000000
0000000000000000
0000000000000000
0000000000000000
0000000000000000
0000000000000000
0000000000000000
0000000000000000
0000000000000000
0000000000000000
0000000000000000
0000000000000000
0000000000000000
0000000000000000
0000000000000000
0000000000000000
0000000000000000
0000000000000000
0000000000000000
0000000000000000
0000000000000000
0000000000000000
0000000000000000
0000000000000000
0000000000000000
0000000000000000
0000000000000000
0000000000000000
0000000000000000
0000000000000000
0000000000000000
0000000000000000
ENDCHAR
STARTCHAR U+201B
ENCODING 8219
SWIDTH 1000 0
DWIDTH 36 0
BBX 62 80 -13 -16
BITMAP
0000000000000000
0000000000000000
0000000000000000
0000000000000000
0000000000000000
0000000000000000
0000000000000000
0000000000000000
000000001ff00000
000000003fe00000
000000003fe00000
000000003fe00000
000000007fc00000
000000007fc00000
000000007fc00000
00000000ff800000
00000000ff800000
00000000ff800000
00000001ff000000
00000001ff000000
00000001ff000000
00000003fe000000
00000003fe000000
00000003fe000000
00000007fc000000
00000007fc000000
00000007fc000000
0000000ff8000000
0000000ff8000000
0000000ff8000000
0000001ff0000000
0000001ff0000000
0000000000000000
0000000000000000
0000000000000000
0000000000000000
0000000000000000
0000000000000000
0000000000000000
0000000000000000
0000000000000000
0000000000000000
0000000000000000
0000000000000000
0000000000000000
0000000000000000
0000000000000000
0000000000000000
0000000000000000
0000000000000000
0000000000000000
0000000000000000
0000000000000000
0000000000000000
0000000000000000
0000000000000000
0000000000000000
0000000000000000
0000000000000000
0000000000000000
0000000000000000
0000000000000000
0000000000000000
0000000000000000
0000000000000000
0000000000000000
0000000000000000
0000000000000000
0000000000000000
0000000000000000
0000000000000000
0000000000000000
0000000000000000
0000000000000000
0000000000000000
0000000000000000
0000000000000000
0000000000000000
0000000000000000
0000000000000000
ENDCHAR
STARTCHAR U+201A
ENCODING 8218
SWIDTH 1000 0
DWIDTH 36 0
BBX 62 80 -13 -16
BITMAP
0000000000000000
0000000000000000
0000000000000000
0000000000000000
0000000000000000
0000000000000000
0000000000000000
0000000000000000
0000000000000000
0000000000000000
0000000000000000
0000000000000000
0000000000000000
0000000000000000
0000000000000000
0000000000000000
0000000000000000
0000000000000000
0000000000000000
0000000000000000
0000000000000000
0000000000000000
0000000000000000
0000000000000000
0000000000000000
0000000000000000
0000000000000000
0000000000000000
0000000000000000
0000000000000000
0000000000000000
0000000000000000
0000000000000000
0000000000000000
0000000000000000
0000000000000000
0000000000000000
0000000000000000
0000000000000000
0000000000000000
000000ff80000000
000000ff80000000
000001ff00000000
000001ff00000000
000001ff00000000
000003fe00000000
000003fe00000000
000003fe00000000
000007fc00000000
000007fc00000000
000007fc00000000
00000ff800000000
00000ff800000000
00000ff800000000
00001ff000000000
00001ff000000000
00001ff000000000
00003fe000000000
00003fe000000000
00003fe000000000
00007fc000000000
00007fc000000000
00007fc000000000
0000ff8000000000
0000000000000000
0000000000000000
0000000000000000
0000000000000000
0000000000000000
0000000000000000
0000000000000000
0000000000000000
0000000000000000
0000000000000000
0000000000000000
0000000000000000
0000000000000000
0000000000000000
0000000000000000
0000000000000000
ENDCHAR
STARTCHAR U+2019
ENCODING 8217
SWIDTH 1000 0
DWIDTH 36 0
BBX 62 80 -13 -16
BITMAP
0000000000000000
0000000000000000
0000000000000000
0000000000000000
0000000000000000
0000000000000000
0000000000000000
0000000000000000
0000001fff000000
0000003ffe000000
0000003ffe000000
0000003ffe000000
0000007ffc000000
0000007ffc000000
0000007ffc000000
000000fff8000000
0000000ff8000000
0000000ff8000000
0000001ff0000000
0000001ff0000000
0000001ff0000000
0000003fe0000000
0000003fe0000000
0000003fe0000000
000007fc00000000
000007fc00000000
000007fc00000000
00000ff800000000
00000ff800000000
00000ff800000000
00001ff000000000
00001ff000000000
0000000000000000
0000000000000000
0000000000000000
0000000000000000
0000000000000000
0000000000000000
0000000000000000
0000000000000000
0000000000000000
0000000000000000
0000000000000000
0000000000000000
0000000000000000
0000000000000000
0000000000000000
0000000000000000
0000000000000000
0000000000000000
0000000000000000
0000000000000000
0000000000000000
0000000000000000
0000000000000000
0000000000000000
0000000000000000
0000000000000000
0000000000000000
0000000000000000
0000000000000000
0000000000000000
0000000000000000
0000000000000000
0000000000000000
0000000000000000
0000000000000000
0000000000000000
0000000000000000
0000000000000000
0000000000000000
0000000000000000
0000000000000000
0000000000000000
0000000000000000
0000000000000000
0000000000000000
0000000000000000
0000000000000000
0000000000000000
ENDCHAR
STARTCHAR U+2018
ENCODING 8216
SWIDTH 1000 0
DWIDTH 36 0
BBX 62 80 -13 -16
BITMAP
0000000000000000
0000000000000000
0000000000000000
0000000000000000
0000000000000000
0000000000000000
0000000000000000
0000000000000000
000000000001ff00
000000000003fe00
000000000003fe00
000000000003fe00
000000000007fc00
000000000007fc00
000000000007fc00
00000000000ff800
0000000000ff8000
0000000000ff8000
0000000001ff0000
0000000001ff0000
0000000001ff0000
0000000003fe0000
0000000003fe0000
0000000003fe0000
0000000007ffc000
0000000007ffc000
0000000007ffc000
000000000fff8000
000000000fff8000
000000000fff8000
000000001fff0000
000000001fff0000
0000000000000000
0000000000000000
0000000000000000
0000000000000000
0000000000000000
0000000000000000
0000000000000000
0000000000000000
0000000000000000
0000000000000000
0000000000000000
0000000000000000
0000000000000000
0000000000000000
0000000000000000
0000000000000000
0000000000000000
0000000000000000
0000000000000000
0000000000000000
0000000000000000
0000000000000000
0000000000000000
0000000000000000
0000000000000000
0000000000000000
0000000000000000
0000000000000000
0000000000000000
0000000000000000
0000000000000000
0000000000000000
0000000000000000
0000000000000000
0000000000000000
0000000000000000
0000000000000000
0000000000000000
0000000000000000
0000000000000000
0000000000000000
0000000000000000
0000000000000000
0000000000000000
0000000000000000
0000000000000000
0000000000000000
0000000000000000
ENDCHAR
STARTCHAR U+2017
ENCODING 8215
SWIDTH 1000 0
DWIDTH 36 0
BBX 62 80 -13 -16
BITMAP
0000000000000000
0000000000000000
0000000000000000
0000000000000000
0000000000000000
0000000000000000
0000000000000000
0000000000000000
0000000000000000
0000000000000000
0000000000000000
0000000000000000
0000000000000000
0000000000000000
0000000000000000
0000000000000000
0000000000000000
0000000000000000
0000000000000000
0000000000000000
0000000000000000
0000000000000000
0000000000000000
0000000000000000
0000000000000000
0000000000000000
0000000000000000
0000000000000000
0000000000000000
0000000000000000
0000000000000000
0000000000000000
0000000000000000
0000000000000000
0000000000000000
0000000000000000
0000000000000000
0000000000000000
0000000000000000
0000000000000000
0000000000000000
0000000000000000
0000000000000000
0000000000000000
0000000000000000
0000000000000000
0000000000000000
0000000000000000
0000000000000000
0000000000000000
0000000000000000
0000000000000000
0000000000000000
0000000000000000
0000000000000000
0000000000000000
01ffffffff000000
03fffffffe000000
03fffffffe000000
03fffffffe000000
07fffffffc000000
07fffffffc000000
07fffffffc000000
0ffffffff8000000
0000000000000000
0000000000000000
0000000000000000
0000000000000000
0000000000000000
0000000000000000
0000000000000000
0000000000000000
7fffffffc0000000
7fffffffc0000000
7fffffffc0000000
ffffffff80000000
ffffffff80000000
ffffffff80000000
ffffffff00000000
ffffffff00000000
ENDCHAR
STARTCHAR U+2016
ENCODING 8214
SWIDTH 1000 0
DWIDTH 36 0
BBX 62 80 -13 -16
BITMAP
0000000000000000
0000000000000000
0000000000000000
0000000000000000
0000000000000000
0000000000000000
0000000000000000
0000000000000000
000000001ffff000
000000003fffe000
000000003fffe000
000000003fffe000
000000007fffc000
000000007fffc000
000000007fffc000
00000000ffff8000
00000000ffff8000
00000000ffff8000
00000001ffff0000
00000001ffff0000
00000001ffff0000
00000003fffe0000
00000003fffe0000
00000003fffe0000
00000007fffc0000
00000007fffc0000
00000007fffc0000
0000000ffff80000
0000000ffff80000
0000000ffff80000
0000001ffff00000
0000001ffff00000
0000001ffff00000
0000003fffe00000
0000003fffe00000
0000003fffe00000
0000007fffc00000
0000007fffc00000
0000007fffc00000
000000ffff800000
000000ffff800000
000000ffff800000
000001ffff000000
000001ffff000000
000001ffff000000
000003fffe000000
000003fffe000000
000003fffe000000
000007fffc000000
000007fffc000000
000007fffc000000
00000ffff8000000
00000ffff8000000
00000ffff8000000
00001ffff0000000
00001ffff0000000
00001ffff0000000
00003fffe0000000
00003fffe0000000
00003fffe0000000
00007fffc0000000
00007fffc0000000
00007fffc0000000
0000ffff80000000
0000000000000000
0000000000000000
0000000000000000
0000000000000000
0000000000000000
0000000000000000
0000000000000000
0000000000000000
0000000000000000
0000000000000000
0000000000000000
0000000000000000
0000000000000000
0000000000000000
0000000000000000
0000000000000000
ENDCHAR
STARTCHAR U+2015
ENCODING 8213
SWIDTH 1000 0
DWIDTH 36 0
BBX 62 80 -13 -16
BITMAP
0000000000000000
0000000000000000
0000000000000000
0000000000000000
0000000000000000
0000000000000000
0000000000000000
0000000000000000
0000000000000000
0000000000000000
0000000000000000
0000000000000000
0000000000000000
0000000000000000
0000000000000000
0000000000000000
0000000000000000
0000000000000000
0000000000000000
0000000000000000
0000000000000000
0000000000000000
0000000000000000
0000000000000000
0000000000000000
0000000000000000
0000000000000000
0000000000000000
0000000000000000
0000000000000000
0000000000000000
0000000000000000
0001fffffffff000
0003ffffffffe000
0003ffffffffe000
0003ffffffffe000
0007ffffffffc000
0007ffffffffc000
0007ffffffffc000
000fffffffff8000
0000000000000000
0000000000000000
0000000000000000
0000000000000000
0000000000000000
0000000000000000
0000000000000000
0000000000000000
0000000000000000
0000000000000000
0000000000000000
0000000000000000
0000000000000000
0000000000000000
0000000000000000
0000000000000000
0000000000000000
0000000000000000
0000000000000000
0000000000000000
0000000000000000
0000000000000000
0000000000000000
0000000000000000
0000000000000000
0000000000000000
0000000000000000
0000000000000000
0000000000000000
0000000000000000
0000000000000000
0000000000000000
0000000000000000
0000000000000000
0000000000000000
0000000000000000
0000000000000000
0000000000000000
0000000000000000
0000000000000000
ENDCHAR
STARTCHAR U+2014
ENCODING 8212
SWIDTH 1000 0
DWIDTH 36 0
BBX 62 80 -13 -16
BITMAP
0000000000000000
0000000000000000
0000000000000000
0000000000000000
0000000000000000
0000000000000000
0000000000000000
0000000000000000
0000000000000000
0000000000000000
0000000000000000
0000000000000000
0000000000000000
0000000000000000
0000000000000000
0000000000000000
0000000000000000
0000000000000000
0000000000000000
0000000000000000
0000000000000000
0000000000000000
0000000000000000
0000000000000000
0000000000000000
0000000000000000
0000000000000000
0000000000000000
0000000000000000
0000000000000000
0000000000000000
0000000000000000
0001ffffffff0000
0003fffffffe0000
0003fffffffe0000
0003fffffffe0000
0007fffffffc0000
0007fffffffc0000
0007fffffffc0000
000ffffffff80000
0000000000000000
0000000000000000
0000000000000000
0000000000000000
0000000000000000
0000000000000000
0000000000000000
0000000000000000
0000000000000000
0000000000000000
0000000000000000
0000000000000000
0000000000000000
0000000000000000
0000000000000000
0000000000000000
0000000000000000
0000000000000000
0000000000000000
0000000000000000
0000000000000000
0000000000000000
0000000000000000
0000000000000000
0000000000000000
0000000000000000
0000000000000000
0000000000000000
0000000000000000
0000000000000000
0000000000000000
0000000000000000
0000000000000000
0000000000000000
0000000000000000
0000000000000000
0000000000000000
0000000000000000
0000000000000000
0000000000000000
ENDCHAR
STARTCHAR U+2013
ENCODING 8211
SWIDTH 1000 0
DWIDTH 36 0
BBX 62 80 -13 -16
BITMAP
0000000000000000
0000000000000000
0000000000000000
0000000000000000
0000000000000000
0000000000000000
0000000000000000
0000000000000000
0000000000000000
0000000000000000
0000000000000000
0000000000000000
0000000000000000
0000000000000000
0000000000000000
0000000000000000
0000000000000000
0000000000000000
0000000000000000
0000000000000000
0000000000000000
0000000000000000
0000000000000000
0000000000000000
0000000000000000
0000000000000000
0000000000000000
0000000000000000
0000000000000000
0000000000000000
0000000000000000
0000000000000000
000001fffff00000
000003ffffe00000
000003ffffe00000
000003ffffe00000
000007ffffc00000
000007ffffc00000
000007ffffc00000
00000fffff800000
0000000000000000
0000000000000000
0000000000000000
0000000000000000
0000000000000000
0000000000000000
0000000000000000
0000000000000000
0000000000000000
0000000000000000
0000000000000000
0000000000000000
0000000000000000
0000000000000000
0000000000000000
0000000000000000
0000000000000000
0000000000000000
0000000000000000
0000000000000000
0000000000000000
0000000000000000
0000000000000000
0000000000000000
0000000000000000
0000000000000000
0000000000000000
0000000000000000
0000000000000000
0000000000000000
0000000000000000
0000000000000000
0000000000000000
0000000000000000
0000000000000000
0000000000000000
0000000000000000
0000000000000000
0000000000000000
0000000000000000
ENDCHAR
STARTCHAR U+2012
ENCODING 8210
SWIDTH 1000 0
DWIDTH 36 0
BBX 62 80 -13 -16
BITMAP
0000000000000000
0000000000000000
0000000000000000
0000000000000000
0000000000000000
0000000000000000
0000000000000000
0000000000000000
0000000000000000
0000000000000000
0000000000000000
0000000000000000
0000000000000000
0000000000000000
0000000000000000
0000000000000000
0000000000000000
0000000000000000
0000000000000000
0000000000000000
0000000000000000
0000000000000000
0000000000000000
0000000000000000
0000000000000000
0000000000000000
0000000000000000
0000000000000000
0000000000000000
0000000000000000
0000000000000000
0000000000000000
00001ffffff00000
00003fffffe00000
00003fffffe00000
00003fffffe00000
00007fffffc00000
00007fffffc00000
00007fffffc00000
0000ffffff800000
0000000000000000
0000000000000000
0000000000000000
0000000000000000
0000000000000000
0000000000000000
0000000000000000
0000000000000000
0000000000000000
0000000000000000
0000000000000000
0000000000000000
0000000000000000
0000000000000000
0000000000000000
0000000000000000
0000000000000000
0000000000000000
0000000000000000
0000000000000000
0000000000000000
0000000000000000
0000000000000000
0000000000000000
0000000000000000
0000000000000000
0000000000000000
0000000000000000
0000000000000000
0000000000000000
0000000000000000
0000000000000000
0000000000000000
0000000000000000
0000000000000000
0000000000000000
0000000000000000
0000000000000000
0000000000000000
0000000000000000
ENDCHAR
STARTCHAR U+2011
ENCODING 8209
SWIDTH 1000 0
DWIDTH 36 0
BBX 62 80 -13 -16
BITMAP
0000000000000000
0000000000000000
0000000000000000
0000000000000000
0000000000000000
0000000000000000
0000000000000000
0000000000000000
0000000000000000
0000000000000000
0000000000000000
0000000000000000
0000000000000000
0000000000000000
0000000000000000
0000000000000000
0000000000000000
0000000000000000
0000000000000000
0000000000000000
0000000000000000
0000000000000000
0000000000000000
0000000000000000
0000000000000000
0000000000000000
0000000000000000
0000000000000000
0000000000000000
0000000000000000
0000000000000000
0000000000000000
000001ffff000000
000003fffe000000
000003fffe000000
000003fffe000000
000007fffc000000
000007fffc000000
000007fffc000000
00000ffff8000000
0000000000000000
0000000000000000
0000000000000000
0000000000000000
0000000000000000
0000000000000000
0000000000000000
0000000000000000
0000000000000000
0000000000000000
0000000000000000
0000000000000000
0000000000000000
0000000000000000
0000000000000000
0000000000000000
0000000000000000
0000000000000000
0000000000000000
0000000000000000
0000000000000000
0000000000000000
0000000000000000
0000000000000000
0000000000000000
0000000000000000
0000000000000000
0000000000000000
0000000000000000
0000000000000000
0000000000000000
0000000000000000
0000000000000000
0000000000000000
0000000000000000
0000000000000000
0000000000000000
0000000000000000
0000000000000000
0000000000000000
ENDCHAR
STARTCHAR U+2010
ENCODING 8208
SWIDTH 1000 0
DWIDTH 36 0
BBX 62 80 -13 -16
BITMAP
0000000000000000
0000000000000000
0000000000000000
0000000000000000
0000000000000000
0000000000000000
0000000000000000
0000000000000000
0000000000000000
0000000000000000
0000000000000000
0000000000000000
0000000000000000
0000000000000000
0000000000000000
0000000000000000
0000000000000000
0000000000000000
0000000000000000
0000000000000000
0000000000000000
0000000000000000
0000000000000000
0000000000000000
0000000000000000
0000000000000000
0000000000000000
0000000000000000
0000000000000000
0000000000000000
0000000000000000
0000000000000000
000001ffff000000
000003fffe000000
000003fffe000000
000003fffe000000
000007fffc000000
000007fffc000000
000007fffc000000
00000ffff8000000
0000000000000000
0000000000000000
0000000000000000
0000000000000000
0000000000000000
0000000000000000
0000000000000000
0000000000000000
0000000000000000
0000000000000000
0000000000000000
0000000000000000
0000000000000000
0000000000000000
0000000000000000
0000000000000000
0000000000000000
0000000000000000
0000000000000000
0000000000000000
0000000000000000
0000000000000000
0000000000000000
0000000000000000
0000000000000000
0000000000000000
0000000000000000
0000000000000000
0000000000000000
0000000000000000
0000000000000000
0000000000000000
0000000000000000
0000000000000000
0000000000000000
0000000000000000
0000000000000000
0000000000000000
0000000000000000
0000000000000000
ENDCHAR
STARTCHAR U+007F
ENCODING 127
SWIDTH 1000 0
DWIDTH 36 0
BBX 62 80 -13 -16
BITMAP
0000000000000000
0000000000000000
0000000000000000
0000000000000000
0000000000000000
0000000000000000
0000000000000000
0000000000000000
000001ffff000000
000003fffe000000
000003fffe000000
000003fffe000000
000007fffc000000
000007fffc000000
000007fffc000000
00000ffff8000000
00000ff8ff800000
00000ff8ff800000
00001ff1ff000000
00001ff1ff000000
00001ff1ff000000
00003fe3fe000000
00003fe3fe000000
00003fe3fe000000
00007fc7fc000000
00007fc7fc000000
00007fc7fc000000
0000ff8ff8000000
0000ff8ff8000000
0000ff8ff8000000
0001ff1ff0000000
0001ff1ff0000000
0001ff1ff0000000
0003fe3fe0000000
0003fe3fe0000000
0003fe3fe0000000
0007fc7fc0000000
0007fc7fc0000000
0007fc7fc0000000
000ff8ff80000000
000ffffff8000000
000ffffff8000000
001ffffff0000000
001ffffff0000000
001ffffff0000000
003fffffe0000000
003fffffe0000000
003fffffe0000000
00007fc000000000
00007fc000000000
00007fc000000000
0000ff8000000000
0000ff8000000000
0000ff8000000000
0001ff0000000000
0001ff0000000000
0001ff0000000000
0003fe0000000000
0003fe0000000000
0003fe0000000000
0007fc0000000000
0007fc0000000000
0007fc0000000000
000ff80000000000
000ff80000000000
000ff80000000000
001ff00000000000
001ff00000000000
001ff00000000000
003fe00000000000
003fe00000000000
003fe00000000000
007fc00000000000
007fc00000000000
007fc00000000000
00ff800000000000
00ff800000000000
00ff800000000000
01ff000000000000
01ff000000000000
ENDCHAR
STARTCHAR U+007E
ENCODING 126
SWIDTH 1000 0
DWIDTH 36 0
BBX 62 80 -13 -16
BITMAP
0000000000000000
0000000000000000
0000000000000000
0000000000000000
0000000000000000
0000000000000000
0000000000000000
0000000000000000
0000001fff01ff00
0000003ffe03fe00
0000003ffe03fe00
0000003ffe03fe00
0000007ffc07fc00
0000007ffc07fc00
0000007ffc07fc00
000000fff80ff800
00000ff8ff8ff800
00000ff8ff8ff800
00001ff1ff1ff000
00001ff1ff1ff000
00001ff1ff1ff000
00003fe3fe3fe000
00003fe3fe3fe000
00003fe3fe3fe000
00007fc07ffc0000
00007fc07ffc0000
00007fc07ffc0000
0000ff80fff80000
0000ff80fff80000
0000ff80fff80000
0001ff01fff00000
0001ff01fff00000
0000000000000000
0000000000000000
0000000000000000
0000000000000000
0000000000000000
0000000000000000
0000000000000000
0000000000000000
0000000000000000
0000000000000000
0000000000000000
0000000000000000
0000000000000000
0000000000000000
0000000000000000
0000000000000000
0000000000000000
0000000000000000
0000000000000000
0000000000000000
0000000000000000
0000000000000000
0000000000000000
0000000000000000
0000000000000000
0000000000000000
0000000000000000
0000000000000000
0000000000000000
0000000000000000
0000000000000000
0000000000000000
0000000000000000
0000000000000000
0000000000000000
0000000000000000
0000000000000000
0000000000000000
0000000000000000
0000000000000000
0000000000000000
0000000000000000
0000000000000000
0000000000000000
0000000000000000
0000000000000000
0000000000000000
0000000000000000
ENDCHAR
STARTCHAR U+007D
ENCODING 125
SWIDTH 1000 0
DWIDTH 36 0
BBX 62 80 -13 -16
BITMAP
0000000000000000
0000000000000000
0000000000000000
0000000000000000
0000000000000000
0000000000000000
0000000000000000
0000000000000000
000001ffff000000
000003fffe000000
000003fffe000000
000003fffe000000
000007fffc000000
000007fffc000000
000007fffc000000
00000ffff8000000
00000000ff800000
00000000ff800000
00000001ff000000
00000001ff000000
00000001ff000000
00000003fe000000
00000003fe000000
00000003fe000000
0000007fc0000000
0000007fc0000000
0000007fc0000000
000000ff80000000
000000ff80000000
000000ff80000000
000001ff00000000
000001ff00000000
0000001fff000000
0000003ffe000000
0000003ffe000000
0000003ffe000000
0000007ffc000000
0000007ffc000000
0000007ffc000000
000000fff8000000
00000ff800000000
00000ff800000000
00001ff000000000
00001ff000000000
00001ff000000000
00003fe000000000
00003fe000000000
00003fe000000000
000007fc00000000
000007fc00000000
000007fc00000000
00000ff800000000
00000ff800000000
00000ff800000000
00001ff000000000
00001ff000000000
01ffff0000000000
03fffe0000000000
03fffe0000000000
03fffe0000000000
07fffc0000000000
07fffc0000000000
07fffc0000000000
0ffff80000000000
0000000000000000
0000000000000000
0000000000000000
0000000000000000
0000000000000000
0000000000000000
0000000000000000
0000000000000000
0000000000000000
0000000000000000
0000000000000000
0000000000000000
0000000000000000
0000000000000000
0000000000000000
0000000000000000
ENDCHAR
STARTCHAR U+007C
ENCODING 124
SWIDTH 1000 0
DWIDTH 36 0
BBX 62 80 -13 -16
BITMAP
0000000000000000
0000000000000000
0000000000000000
0000000000000000
0000000000000000
0000000000000000
0000000000000000
0000000000000000
000000001ff00000
000000003fe00000
000000003fe00000
000000003fe00000
000000007fc00000
000000007fc00000
000000007fc00000
00000000ff800000
00000000ff800000
00000000ff800000
00000001ff000000
00000001ff000000
00000001ff000000
00000003fe000000
00000003fe000000
00000003fe000000
00000007fc000000
00000007fc000000
00000007fc000000
0000000ff8000000
0000000ff8000000
0000000ff8000000
0000001ff0000000
0000001ff0000000
0000001ff0000000
0000003fe0000000
0000003fe0000000
0000003fe0000000
0000007fc0000000
0000007fc0000000
0000007fc0000000
000000ff80000000
000000ff80000000
000000ff80000000
000001ff00000000
000001ff00000000
000001ff00000000
000003fe00000000
000003fe00000000
000003fe00000000
000007fc00000000
000007fc00000000
000007fc00000000
00000ff800000000
00000ff800000000
00000ff800000000
00001ff000000000
00001ff000000000
00001ff000000000
00003fe000000000
00003fe000000000
00003fe000000000
00007fc000000000
00007fc000000000
00007fc000000000
0000ff8000000000
0000000000000000
0000000000000000
0000000000000000
0000000000000000
0000000000000000
0000000000000000
0000000000000000
0000000000000000
0000000000000000
0000000000000000
0000000000000000
0000000000000000
0000000000000000
0000000000000000
0000000000000000
0000000000000000
ENDCHAR
STARTCHAR U+007B
ENCODING 123
SWIDTH 1000 0
DWIDTH 36 0
BBX 62 80 -13 -16
BITMAP
0000000000000000
0000000000000000
0000000000000000
0000000000000000
0000000000000000
0000000000000000
0000000000000000
0000000000000000
0000000001ffff00
0000000003fffe00
0000000003fffe00
0000000003fffe00
0000000007fffc00
0000000007fffc00
0000000007fffc00
000000000ffff800
00000000ff800000
00000000ff800000
00000001ff000000
00000001ff000000
00000001ff000000
00000003fe000000
00000003fe000000
00000003fe000000
000000007fc00000
000000007fc00000
000000007fc00000
00000000ff800000
00000000ff800000
00000000ff800000
00000001ff000000
00000001ff000000
000001fff0000000
000003ffe0000000
000003ffe0000000
000003ffe0000000
000007ffc0000000
000007ffc0000000
000007ffc0000000
00000fff80000000
0000000ff8000000
0000000ff8000000
0000001ff0000000
0000001ff0000000
0000001ff0000000
0000003fe0000000
0000003fe0000000
0000003fe0000000
000007fc00000000
000007fc00000000
000007fc00000000
00000ff800000000
00000ff800000000
00000ff800000000
00001ff000000000
00001ff000000000
000001ffff000000
000003fffe000000
000003fffe000000
000003fffe000000
000007fffc000000
000007fffc000000
000007fffc000000
00000ffff8000000
0000000000000000
0000000000000000
0000000000000000
0000000000000000
0000000000000000
0000000000000000
0000000000000000
0000000000000000
0000000000000000
0000000000000000
0000000000000000
0000000000000000
0000000000000000
0000000000000000
0000000000000000
0000000000000000
ENDCHAR
STARTCHAR U+007A
ENCODING 122
SWIDTH 1000 0
DWIDTH 36 0
BBX 62 80 -13 -16
BITMAP
0000000000000000
0000000000000000
0000000000000000
0000000000000000
0000000000000000
0000000000000000
0000000000000000
0000000000000000
0000000000000000
0000000000000000
0000000000000000
0000000000000000
0000000000000000
0000000000000000
0000000000000000
0000000000000000
0000000000000000
0000000000000000
0000000000000000
0000000000000000
0000000000000000
0000000000000000
0000000000000000
0000000000000000
00007fffffffc000
00007fffffffc000
00007fffffffc000
0000ffffffff8000
0000ffffffff8000
0000ffffffff8000
0001ffffffff0000
0001ffffffff0000
000000001ff00000
000000003fe00000
000000003fe00000
000000003fe00000
000000007fc00000
000000007fc00000
000000007fc00000
00000000ff800000
000000fff8000000
000000fff8000000
000001fff0000000
000001fff0000000
000001fff0000000
000003ffe0000000
000003ffe0000000
000003ffe0000000
00007fc000000000
00007fc000000000
00007fc000000000
0000ff8000000000
0000ff8000000000
0000ff8000000000
0001ff0000000000
0001ff0000000000
01ffffffff000000
03fffffffe000000
03fffffffe000000
03fffffffe000000
07fffffffc000000
07fffffffc000000
07fffffffc000000
0ffffffff8000000
0000000000000000
0000000000000000
0000000000000000
0000000000000000
0000000000000000
0000000000000000
0000000000000000
0000000000000000
0000000000000000
0000000000000000
0000000000000000
0000000000000000
0000000000000000
0000000000000000
0000000000000000
0000000000000000
ENDCHAR
STARTCHAR U+0079
ENCODING 121
SWIDTH 1000 0
DWIDTH 36 0
BBX 62 80 -13 -16
BITMAP
0000000000000000
0000000000000000
0000000000000000
0000000000000000
0000000000000000
0000000000000000
0000000000000000
0000000000000000
0000000000000000
0000000000000000
0000000000000000
0000000000000000
0000000000000000
0000000000000000
0000000000000000
0000000000000000
0000000000000000
0000000000000000
0000000000000000
0000000000000000
0000000000000000
0000000000000000
0000000000000000
0000000000000000
00007fc007fc0000
00007fc007fc0000
00007fc007fc0000
0000ff800ff80000
0000ff800ff80000
0000ff800ff80000
0001ff001ff00000
0001ff001ff00000
0001ff001ff00000
0003fe003fe00000
0003fe003fe00000
0003fe003fe00000
0007fc007fc00000
0007fc007fc00000
0007fc007fc00000
000ff800ff800000
000ff80fff800000
000ff80fff800000
001ff01fff000000
001ff01fff000000
001ff01fff000000
003fe03ffe000000
003fe03ffe000000
003fe03ffe000000
0007fffffc000000
0007fffffc000000
0007fffffc000000
000ffffff8000000
000ffffff8000000
000ffffff8000000
001ffffff0000000
001ffffff0000000
0000001ff0000000
0000003fe0000000
0000003fe0000000
0000003fe0000000
0000007fc0000000
0000007fc0000000
0000007fc0000000
000000ff80000000
0ff800ff80000000
0ff800ff80000000
1ff001ff00000000
1ff001ff00000000
1ff001ff00000000
3fe003fe00000000
3fe003fe00000000
3fe003fe00000000
07ffffc000000000
07ffffc000000000
07ffffc000000000
0fffff8000000000
0fffff8000000000
0fffff8000000000
1fffff0000000000
1fffff0000000000
ENDCHAR
STARTCHAR U+0078
ENCODING 120
SWIDTH 1000 0
DWIDTH 36 0
BBX 62 80 -13 -16
BITMAP
0000000000000000
0000000000000000
0000000000000000
0000000000000000
0000000000000000
0000000000000000
0000000000000000
0000000000000000
0000000000000000
0000000000000000
0000000000000000
0000000000000000
0000000000000000
0000000000000000
0000000000000000
0000000000000000
0000000000000000
0000000000000000
0000000000000000
0000000000000000
0000000000000000
0000000000000000
0000000000000000
0000000000000000
00007fc007fc0000
00007fc007fc0000
00007fc007fc0000
0000ff800ff80000
0000ff800ff80000
0000ff800ff80000
0001ff001ff00000
0001ff001ff00000
00001ff1ff000000
00003fe3fe000000
00003fe3fe000000
00003fe3fe000000
00007fc7fc000000
00007fc7fc000000
00007fc7fc000000
0000ff8ff8000000
00000fff80000000
00000fff80000000
00001fff00000000
00001fff00000000
00001fff00000000
00003ffe00000000
00003ffe00000000
00003ffe00000000
0007fc7fc0000000
0007fc7fc0000000
0007fc7fc0000000
000ff8ff80000000
000ff8ff80000000
000ff8ff80000000
001ff1ff00000000
001ff1ff00000000
01ff001ff0000000
03fe003fe0000000
03fe003fe0000000
03fe003fe0000000
07fc007fc0000000
07fc007fc0000000
07fc007fc0000000
0ff800ff80000000
0000000000000000
0000000000000000
0000000000000000
0000000000000000
0000000000000000
0000000000000000
0000000000000000
0000000000000000
0000000000000000
0000000000000000
0000000000000000
0000000000000000
0000000000000000
0000000000000000
0000000000000000
0000000000000000
ENDCHAR
STARTCHAR U+0077
ENCODING 119
SWIDTH 1000 0
DWIDTH 36 0
BBX 62 80 -13 -16
BITMAP
0000000000000000
0000000000000000
0000000000000000
0000000000000000
0000000000000000
0000000000000000
0000000000000000
0000000000000000
0000000000000000
0000000000000000
0000000000000000
0000000000000000
0000000000000000
0000000000000000
0000000000000000
0000000000000000
0000000000000000
0000000000000000
0000000000000000
0000000000000000
0000000000000000
0000000000000000
0000000000000000
0000000000000000
00007fc0007fc000
00007fc0007fc000
00007fc0007fc000
0000ff8000ff8000
0000ff8000ff8000
0000ff8000ff8000
0001ff0001ff0000
0001ff0001ff0000
0001ff0001ff0000
0003fe0003fe0000
0003fe0003fe0000
0003fe0003fe0000
0007fc0007fc0000
0007fc0007fc0000
0007fc0007fc0000
000ff8000ff80000
000ff8ff8ff80000
000ff8ff8ff80000
001ff1ff1ff00000
001ff1ff1ff00000
001ff1ff1ff00000
003fe3fe3fe00000
003fe3fe3fe00000
003fe3fe3fe00000
007fffffffc00000
007fffffffc00000
007fffffffc00000
00ffffffff800000
00ffffffff800000
00ffffffff800000
01ffffffff000000
01ffffffff000000
001ff01ff0000000
003fe03fe0000000
003fe03fe0000000
003fe03fe0000000
007fc07fc0000000
007fc07fc0000000
007fc07fc0000000
00ff80ff80000000
0000000000000000
0000000000000000
0000000000000000
0000000000000000
0000000000000000
0000000000000000
0000000000000000
0000000000000000
0000000000000000
0000000000000000
0000000000000000
0000000000000000
0000000000000000
0000000000000000
0000000000000000
0000000000000000
ENDCHAR
STARTCHAR U+0076
ENCODING 118
SWIDTH 1000 0
DWIDTH 36 0
BBX 62 80 -13 -16
BITMAP
0000000000000000
0000000000000000
0000000000000000
0000000000000000
0000000000000000
0000000000000000
0000000000000000
0000000000000000
0000000000000000
0000000000000000
0000000000000000
0000000000000000
0000000000000000
0000000000000000
0000000000000000
0000000000000000
0000000000000000
0000000000000000
0000000000000000
0000000000000000
0000000000000000
0000000000000000
0000000000000000
0000000000000000
00007fc0007fc000
00007fc0007fc000
00007fc0007fc000
0000ff8000ff8000
0000ff8000ff8000
0000ff8000ff8000
0001ff0001ff0000
0001ff0001ff0000
0001ff0001ff0000
0003fe0003fe0000
0003fe0003fe0000
0003fe0003fe0000
0007fc0007fc0000
0007fc0007fc0000
0007fc0007fc0000
000ff8000ff80000
0000ff80ff800000
0000ff80ff800000
0001ff01ff000000
0001ff01ff000000
0001ff01ff000000
0003fe03fe000000
0003fe03fe000000
0003fe03fe000000
00007fffc0000000
00007fffc0000000
00007fffc0000000
0000ffff80000000
0000ffff80000000
0000ffff80000000
0001ffff00000000
0001ffff00000000
00001ff000000000
00003fe000000000
00003fe000000000
00003fe000000000
00007fc000000000
00007fc000000000
00007fc000000000
0000ff8000000000
0000000000000000
0000000000000000
0000000000000000
0000000000000000
0000000000000000
0000000000000000
0000000000000000
0000000000000000
0000000000000000
0000000000000000
0000000000000000
0000000000000000
0000000000000000
0000000000000000
0000000000000000
0000000000000000
ENDCHAR
STARTCHAR U+0075
ENCODING 117
SWIDTH 1000 0
DWIDTH 36 0
BBX 62 80 -13 -16
BITMAP
0000000000000000
0000000000000000
0000000000000000
0000000000000000
0000000000000000
0000000000000000
0000000000000000
0000000000000000
0000000000000000
0000000000000000
0000000000000000
0000000000000000
0000000000000000
0000000000000000
0000000000000000
0000000000000000
0000000000000000
0000000000000000
0000000000000000
0000000000000000
0000000000000000
0000000000000000
0000000000000000
0000000000000000
00007fc007fc0000
00007fc007fc0000
00007fc007fc0000
0000ff800ff80000
0000ff800ff80000
0000ff800ff80000
0001ff001ff00000
0001ff001ff00000
0001ff001ff00000
0003fe003fe00000
0003fe003fe00000
0003fe003fe00000
0007fc007fc00000
0007fc007fc00000
0007fc007fc00000
000ff800ff800000
000ff800ff800000
000ff800ff800000
001ff001ff000000
001ff001ff000000
001ff001ff000000
003fe003fe000000
003fe003fe000000
003fe003fe000000
007fc007fc000000
007fc007fc000000
007fc007fc000000
00ff800ff8000000
00ff800ff8000000
00ff800ff8000000
01ff001ff0000000
01ff001ff0000000
001fffffff000000
003ffffffe000000
003ffffffe000000
003ffffffe000000
007ffffffc000000
007ffffffc000000
007ffffffc000000
00fffffff8000000
0000000000000000
0000000000000000
0000000000000000
0000000000000000
0000000000000000
0000000000000000
0000000000000000
0000000000000000
0000000000000000
0000000000000000
0000000000000000
0000000000000000
0000000000000000
0000000000000000
0000000000000000
0000000000000000
ENDCHAR
STARTCHAR U+0074
ENCODING 116
SWIDTH 1000 0
DWIDTH 36 0
BBX 62 80 -13 -16
BITMAP
0000000000000000
0000000000000000
0000000000000000
0000000000000000
0000000000000000
0000000000000000
0000000000000000
0000000000000000
00000001ff000000
00000003fe000000
00000003fe000000
00000003fe000000
00000007fc000000
00000007fc000000
00000007fc000000
0000000ff8000000
0000000ff8000000
0000000ff8000000
0000001ff0000000
0000001ff0000000
0000001ff0000000
0000003fe0000000
0000003fe0000000
0000003fe0000000
00007fffffc00000
00007fffffc00000
00007fffffc00000
0000ffffff800000
0000ffffff800000
0000ffffff800000
0001ffffff000000
0001ffffff000000
000001ff00000000
000003fe00000000
000003fe00000000
000003fe00000000
000007fc00000000
000007fc00000000
000007fc00000000
00000ff800000000
00000ff800000000
00000ff800000000
00001ff000000000
00001ff000000000
00001ff000000000
00003fe000000000
00003fe000000000
00003fe000000000
00007fc7fc000000
00007fc7fc000000
00007fc7fc000000
0000ff8ff8000000
0000ff8ff8000000
0000ff8ff8000000
0001ff1ff0000000
0001ff1ff0000000
00001fff00000000
00003ffe00000000
00003ffe00000000
00003ffe00000000
00007ffc00000000
00007ffc00000000
00007ffc00000000
0000fff800000000
0000000000000000
0000000000000000
0000000000000000
0000000000000000
0000000000000000
0000000000000000
0000000000000000
0000000000000000
0000000000000000
0000000000000000
0000000000000000
0000000000000000
0000000000000000
0000000000000000
0000000000000000
0000000000000000
ENDCHAR
STARTCHAR U+0073
ENCODING 115
SWIDTH 1000 0
DWIDTH 36 0
BBX 62 80 -13 -16
BITMAP
0000000000000000
0000000000000000
0000000000000000
0000000000000000
0000000000000000
0000000000000000
0000000000000000
0000000000000000
0000000000000000
0000000000000000
0000000000000000
0000000000000000
0000000000000000
0000000000000000
0000000000000000
0000000000000000
0000000000000000
0000000000000000
0000000000000000
0000000000000000
0000000000000000
0000000000000000
0000000000000000
0000000000000000
000007fffffc0000
000007fffffc0000
000007fffffc0000
00000ffffff80000
00000ffffff80000
00000ffffff80000
00001ffffff00000
00001ffffff00000
0001ff0000000000
0003fe0000000000
0003fe0000000000
0003fe0000000000
0007fc0000000000
0007fc0000000000
0007fc0000000000
000ff80000000000
0000ffffff800000
0000ffffff800000
0001ffffff000000
0001ffffff000000
0001ffffff000000
0003fffffe000000
0003fffffe000000
0003fffffe000000
000000007fc00000
000000007fc00000
000000007fc00000
00000000ff800000
00000000ff800000
00000000ff800000
00000001ff000000
00000001ff000000
01fffffff0000000
03ffffffe0000000
03ffffffe0000000
03ffffffe0000000
07ffffffc0000000
07ffffffc0000000
07ffffffc0000000
0fffffff80000000
0000000000000000
0000000000000000
0000000000000000
0000000000000000
0000000000000000
0000000000000000
0000000000000000
0000000000000000
0000000000000000
0000000000000000
0000000000000000
0000000000000000
0000000000000000
0000000000000000
0000000000000000
0000000000000000
ENDCHAR
STARTCHAR U+0072
ENCODING 114
SWIDTH 1000 0
DWIDTH 36 0
BBX 62 80 -13 -16
BITMAP
0000000000000000
0000000000000000
0000000000000000
0000000000000000
0000000000000000
0000000000000000
0000000000000000
0000000000000000
0000000000000000
0000000000000000
0000000000000000
0000000000000000
0000000000000000
0000000000000000
0000000000000000
0000000000000000
0000000000000000
0000000000000000
0000000000000000
0000000000000000
0000000000000000
0000000000000000
0000000000000000
0000000000000000
00007fc7fffc0000
00007fc7fffc0000
00007fc7fffc0000
0000ff8ffff80000
0000ff8ffff80000
0000ff8ffff80000
0001ff1ffff00000
0001ff1ffff00000
00001fff01ff0000
00003ffe03fe0000
00003ffe03fe0000
00003ffe03fe0000
00007ffc07fc0000
00007ffc07fc0000
00007ffc07fc0000
0000fff80ff80000
0000ff8000000000
0000ff8000000000
0001ff0000000000
0001ff0000000000
0001ff0000000000
0003fe0000000000
0003fe0000000000
0003fe0000000000
0007fc0000000000
0007fc0000000000
0007fc0000000000
000ff80000000000
000ff80000000000
000ff80000000000
001ff00000000000
001ff00000000000
001ff00000000000
003fe00000000000
003fe00000000000
003fe00000000000
007fc00000000000
007fc00000000000
007fc00000000000
00ff800000000000
0000000000000000
0000000000000000
0000000000000000
0000000000000000
0000000000000000
0000000000000000
0000000000000000
0000000000000000
0000000000000000
0000000000000000
0000000000000000
0000000000000000
0000000000000000
0000000000000000
0000000000000000
0000000000000000
ENDCHAR
STARTCHAR U+0071
ENCODING 113
SWIDTH 1000 0
DWIDTH 36 0
BBX 62 80 -13 -16
BITMAP
0000000000000000
0000000000000000
0000000000000000
0000000000000000
0000000000000000
0000000000000000
0000000000000000
0000000000000000
0000000000000000
0000000000000000
0000000000000000
0000000000000000
0000000000000000
0000000000000000
0000000000000000
0000000000000000
0000000000000000
0000000000000000
0000000000000000
0000000000000000
0000000000000000
0000000000000000
0000000000000000
0000000000000000
000007ffffffc000
000007ffffffc000
000007ffffffc000
00000fffffff8000
00000fffffff8000
00000fffffff8000
00001fffffff0000
00001fffffff0000
0001ff001fff0000
0003fe003ffe0000
0003fe003ffe0000
0003fe003ffe0000
0007fc007ffc0000
0007fc007ffc0000
0007fc007ffc0000
000ff800fff80000
000ff800fff80000
000ff800fff80000
001ff001fff00000
001ff001fff00000
001ff001fff00000
003fe003ffe00000
003fe003ffe00000
003fe003ffe00000
0007ffffffc00000
0007ffffffc00000
0007ffffffc00000
000fffffff800000
000fffffff800000
000fffffff800000
001fffffff000000
001fffffff000000
00000001ff000000
00000003fe000000
00000003fe000000
00000003fe000000
00000007fc000000
00000007fc000000
00000007fc000000
0000000ff8000000
0000000ff8000000
0000000ff8000000
0000001ff0000000
0000001ff0000000
0000001ff0000000
0000003fe0000000
0000003fe0000000
0000003fe0000000
0000007fc0000000
0000007fc0000000
0000007fc0000000
000000ff80000000
000000ff80000000
000000ff80000000
000001ff00000000
000001ff00000000
ENDCHAR
STARTCHAR U+0070
ENCODING 112
SWIDTH 1000 0
DWIDTH 36 0
BBX 62 80 -13 -16
BITMAP
0000000000000000
0000000000000000
0000000000000000
0000000000000000
0000000000000000
0000000000000000
0000000000000000
0000000000000000
0000000000000000
0000000000000000
0000000000000000
0000000000000000
0000000000000000
0000000000000000
0000000000000000
0000000000000000
0000000000000000
0000000000000000
0000000000000000
0000000000000000
0000000000000000
0000000000000000
0000000000000000
0000000000000000
00007ffffffc0000
00007ffffffc0000
00007ffffffc0000
0000fffffff80000
0000fffffff80000
0000fffffff80000
0001fffffff00000
0001fffffff00000
0001fff001ff0000
0003ffe003fe0000
0003ffe003fe0000
0003ffe003fe0000
0007ffc007fc0000
0007ffc007fc0000
0007ffc007fc0000
000fff800ff80000
000fff800ff80000
000fff800ff80000
001fff001ff00000
001fff001ff00000
001fff001ff00000
003ffe003fe00000
003ffe003fe00000
003ffe003fe00000
007ffffffc000000
007ffffffc000000
007ffffffc000000
00fffffff8000000
00fffffff8000000
00fffffff8000000
01fffffff0000000
01fffffff0000000
01ff000000000000
03fe000000000000
03fe000000000000
03fe000000000000
07fc000000000000
07fc000000000000
07fc000000000000
0ff8000000000000
0ff8000000000000
0ff8000000000000
1ff0000000000000
1ff0000000000000
1ff0000000000000
3fe0000000000000
3fe0000000000000
3fe0000000000000
7fc0000000000000
7fc0000000000000
7fc0000000000000
ff80000000000000
ff80000000000000
ff80000000000000
ff00000000000000
ff00000000000000
ENDCHAR
STARTCHAR U+006f
ENCODING 111
SWIDTH 1000 0
DWIDTH 36 0
BBX 62 80 -13 -16
BITMAP
0000000000000000
0000000000000000
0000000000000000
0000000000000000
0000000000000000
0000000000000000
0000000000000000
0000000000000000
0000000000000000
0000000000000000
0000000000000000
0000000000000000
0000000000000000
0000000000000000
0000000000000000
0000000000000000
0000000000000000
0000000000000000
0000000000000000
0000000000000000
0000000000000000
0000000000000000
0000000000000000
0000000000000000
000007fffffc0000
000007fffffc0000
000007fffffc0000
00000ffffff80000
00000ffffff80000
00000ffffff80000
00001ffffff00000
00001ffffff00000
0001ff0001ff0000
0003fe0003fe0000
0003fe0003fe0000
0003fe0003fe0000
0007fc0007fc0000
0007fc0007fc0000
0007fc0007fc0000
000ff8000ff80000
000ff8000ff80000
000ff8000ff80000
001ff0001ff00000
001ff0001ff00000
001ff0001ff00000
003fe0003fe00000
003fe0003fe00000
003fe0003fe00000
007fc0007fc00000
007fc0007fc00000
007fc0007fc00000
00ff8000ff800000
00ff8000ff800000
00ff8000ff800000
01ff0001ff000000
01ff0001ff000000
001ffffff0000000
003fffffe0000000
003fffffe0000000
003fffffe0000000
007fffffc0000000
007fffffc0000000
007fffffc0000000
00ffffff80000000
0000000000000000
0000000000000000
0000000000000000
0000000000000000
0000000000000000
0000000000000000
0000000000000000
0000000000000000
0000000000000000
0000000000000000
0000000000000000
0000000000000000
0000000000000000
0000000000000000
0000000000000000
0000000000000000
ENDCHAR
STARTCHAR U+006e
ENCODING 110
SWIDTH 1000 0
DWIDTH 36 0
BBX 62 80 -13 -16
BITMAP
0000000000000000
0000000000000000
0000000000000000
0000000000000000
0000000000000000
0000000000000000
0000000000000000
0000000000000000
0000000000000000
0000000000000000
0000000000000000
0000000000000000
0000000000000000
0000000000000000
0000000000000000
0000000000000000
0000000000000000
0000000000000000
0000000000000000
0000000000000000
0000000000000000
0000000000000000
0000000000000000
0000000000000000
00007ffffffc0000
00007ffffffc0000
00007ffffffc0000
0000fffffff80000
0000fffffff80000
0000fffffff80000
0001fffffff00000
0001fffffff00000
0001fff001ff0000
0003ffe003fe0000
0003ffe003fe0000
0003ffe003fe0000
0007ffc007fc0000
0007ffc007fc0000
0007ffc007fc0000
000fff800ff80000
000ff8000ff80000
000ff8000ff80000
001ff0001ff00000
001ff0001ff00000
001ff0001ff00000
003fe0003fe00000
003fe0003fe00000
003fe0003fe00000
007fc0007fc00000
007fc0007fc00000
007fc0007fc00000
00ff8000ff800000
00ff8000ff800000
00ff8000ff800000
01ff0001ff000000
01ff0001ff000000
01ff0001ff000000
03fe0003fe000000
03fe0003fe000000
03fe0003fe000000
07fc0007fc000000
07fc0007fc000000
07fc0007fc000000
0ff8000ff8000000
0000000000000000
0000000000000000
0000000000000000
0000000000000000
0000000000000000
0000000000000000
0000000000000000
0000000000000000
0000000000000000
0000000000000000
0000000000000000
0000000000000000
0000000000000000
0000000000000000
0000000000000000
0000000000000000
ENDCHAR
STARTCHAR U+006d
ENCODING 109
SWIDTH 1000 0
DWIDTH 36 0
BBX 62 80 -13 -16
BITMAP
0000000000000000
0000000000000000
0000000000000000
0000000000000000
0000000000000000
0000000000000000
0000000000000000
0000000000000000
0000000000000000
0000000000000000
0000000000000000
0000000000000000
0000000000000000
0000000000000000
0000000000000000
0000000000000000
0000000000000000
0000000000000000
0000000000000000
0000000000000000
0000000000000000
0000000000000000
0000000000000000
0000000000000000
00007ffc07fc0000
00007ffc07fc0000
00007ffc07fc0000
0000fff80ff80000
0000fff80ff80000
0000fff80ff80000
0001fff01ff00000
0001fff01ff00000
0001ffffffff0000
0003fffffffe0000
0003fffffffe0000
0003fffffffe0000
0007fffffffc0000
0007fffffffc0000
0007fffffffc0000
000ffffffff80000
000ff8ff8ff80000
000ff8ff8ff80000
001ff1ff1ff00000
001ff1ff1ff00000
001ff1ff1ff00000
003fe3fe3fe00000
003fe3fe3fe00000
003fe3fe3fe00000
007fc7fc7fc00000
007fc7fc7fc00000
007fc7fc7fc00000
00ff8ff8ff800000
00ff8ff8ff800000
00ff8ff8ff800000
01ff1ff1ff000000
01ff1ff1ff000000
01ff0001ff000000
03fe0003fe000000
03fe0003fe000000
03fe0003fe000000
07fc0007fc000000
07fc0007fc000000
07fc0007fc000000
0ff8000ff8000000
0000000000000000
0000000000000000
0000000000000000
0000000000000000
0000000000000000
0000000000000000
0000000000000000
0000000000000000
0000000000000000
0000000000000000
0000000000000000
0000000000000000
0000000000000000
0000000000000000
0000000000000000
0000000000000000
ENDCHAR
STARTCHAR U+006c
ENCODING 108
SWIDTH 1000 0
DWIDTH 36 0
BBX 62 80 -13 -16
BITMAP
0000000000000000
0000000000000000
0000000000000000
0000000000000000
0000000000000000
0000000000000000
0000000000000000
0000000000000000
00000001fff00000
00000003ffe00000
00000003ffe00000
00000003ffe00000
00000007ffc00000
00000007ffc00000
00000007ffc00000
0000000fff800000
00000000ff800000
00000000ff800000
00000001ff000000
00000001ff000000
00000001ff000000
00000003fe000000
00000003fe000000
00000003fe000000
00000007fc000000
00000007fc000000
00000007fc000000
0000000ff8000000
0000000ff8000000
0000000ff8000000
0000001ff0000000
0000001ff0000000
0000001ff0000000
0000003fe0000000
0000003fe0000000
0000003fe0000000
0000007fc0000000
0000007fc0000000
0000007fc0000000
000000ff80000000
000000ff80000000
000000ff80000000
000001ff00000000
000001ff00000000
000001ff00000000
000003fe00000000
000003fe00000000
000003fe00000000
000007fc00000000
000007fc00000000
000007fc00000000
00000ff800000000
00000ff800000000
00000ff800000000
00001ff000000000
00001ff000000000
0001ffff00000000
0003fffe00000000
0003fffe00000000
0003fffe00000000
0007fffc00000000
0007fffc00000000
0007fffc00000000
000ffff800000000
0000000000000000
0000000000000000
0000000000000000
0000000000000000
0000000000000000
0000000000000000
0000000000000000
0000000000000000
0000000000000000
0000000000000000
0000000000000000
0000000000000000
0000000000000000
0000000000000000
0000000000000000
0000000000000000
ENDCHAR
STARTCHAR U+006b
ENCODING 107
SWIDTH 1000 0
DWIDTH 36 0
BBX 62 80 -13 -16
BITMAP
0000000000000000
0000000000000000
0000000000000000
0000000000000000
0000000000000000
0000000000000000
0000000000000000
0000000000000000
000001ff00000000
000003fe00000000
000003fe00000000
000003fe00000000
000007fc00000000
000007fc00000000
000007fc00000000
00000ff800000000
00000ff800000000
00000ff800000000
00001ff000000000
00001ff000000000
00001ff000000000
00003fe000000000
00003fe000000000
00003fe000000000
00007fc07fc00000
00007fc07fc00000
00007fc07fc00000
0000ff80ff800000
0000ff80ff800000
0000ff80ff800000
0001ff01ff000000
0001ff01ff000000
0001ff1ff0000000
0003fe3fe0000000
0003fe3fe0000000
0003fe3fe0000000
0007fc7fc0000000
0007fc7fc0000000
0007fc7fc0000000
000ff8ff80000000
000ffff800000000
000ffff800000000
001ffff000000000
001ffff000000000
001ffff000000000
003fffe000000000
003fffe000000000
003fffe000000000
007fc07fc0000000
007fc07fc0000000
007fc07fc0000000
00ff80ff80000000
00ff80ff80000000
00ff80ff80000000
01ff01ff00000000
01ff01ff00000000
01ff00037f000000
03fe0003fe000000
03fe0003fe000000
03fe0003fe000000
07fc0007fc000000
07fc0007fc000000
07fc0007fc000000
0ff8000ff8000000
0000000000000000
0000000000000000
0000000000000000
0000000000000000
0000000000000000
0000000000000000
0000000000000000
0000000000000000
0000000000000000
0000000000000000
0000000000000000
0000000000000000
0000000000000000
0000000000000000
0000000000000000
0000000000000000
ENDCHAR
STARTCHAR U+006a
ENCODING 106
SWIDTH 1000 0
DWIDTH 36 0
BBX 62 80 -13 -16
BITMAP
0000000000000000
0000000000000000
0000000000000000
0000000000000000
0000000000000000
0000000000000000
0000000000000000
0000000000000000
00000000001ff000
00000000003fe000
00000000003fe000
00000000003fe000
00000000007fc000
00000000007fc000
00000000007fc000
0000000000ff8000
0000000000000000
0000000000000000
0000000000000000
0000000000000000
0000000000000000
0000000000000000
0000000000000000
0000000000000000
0000000007fc0000
0000000007fc0000
0000000007fc0000
000000000ff80000
000000000ff80000
000000000ff80000
000000001ff00000
000000001ff00000
000000001ff00000
000000003fe00000
000000003fe00000
000000003fe00000
000000007fc00000
000000007fc00000
000000007fc00000
00000000ff800000
00000000ff800000
00000000ff800000
00000001ff000000
00000001ff000000
00000001ff000000
00000003fe000000
00000003fe000000
00000003fe000000
00000007fc000000
00000007fc000000
00000007fc000000
0000000ff8000000
0000000ff8000000
0000000ff8000000
0000001ff0000000
0000001ff0000000
01ff001ff0000000
03fe003fe0000000
03fe003fe0000000
03fe003fe0000000
07fc007fc0000000
07fc007fc0000000
07fc007fc0000000
0ff800ff80000000
0ff800ff80000000
0ff800ff80000000
1ff001ff00000000
1ff001ff00000000
1ff001ff00000000
3fe003fe00000000
3fe003fe00000000
3fe003fe00000000
07ffffc000000000
07ffffc000000000
07ffffc000000000
0fffff8000000000
0fffff8000000000
0fffff8000000000
1fffff0000000000
1fffff0000000000
ENDCHAR
STARTCHAR U+0069
ENCODING 105
SWIDTH 1000 0
DWIDTH 36 0
BBX 62 80 -13 -16
BITMAP
0000000000000000
0000000000000000
0000000000000000
0000000000000000
0000000000000000
0000000000000000
0000000000000000
0000000000000000
000000001ff00000
000000003fe00000
000000003fe00000
000000003fe00000
000000007fc00000
000000007fc00000
000000007fc00000
00000000ff800000
0000000000000000
0000000000000000
0000000000000000
0000000000000000
0000000000000000
0000000000000000
0000000000000000
0000000000000000
0000007ffc000000
0000007ffc000000
0000007ffc000000
000000fff8000000
000000fff8000000
000000fff8000000
000001fff0000000
000001fff0000000
0000001ff0000000
0000003fe0000000
0000003fe0000000
0000003fe0000000
0000007fc0000000
0000007fc0000000
0000007fc0000000
000000ff80000000
000000ff80000000
000000ff80000000
000001ff00000000
000001ff00000000
000001ff00000000
000003fe00000000
000003fe00000000
000003fe00000000
000007fc00000000
000007fc00000000
000007fc00000000
00000ff800000000
00000ff800000000
00000ff800000000
00001ff000000000
00001ff000000000
001ffffff0000000
003fffffe0000000
003fffffe0000000
003fffffe0000000
007fffffc0000000
007fffffc0000000
007fffffc0000000
00ffffff80000000
0000000000000000
0000000000000000
0000000000000000
0000000000000000
0000000000000000
0000000000000000
0000000000000000
0000000000000000
0000000000000000
0000000000000000
0000000000000000
0000000000000000
0000000000000000
0000000000000000
0000000000000000
0000000000000000
ENDCHAR
STARTCHAR U+0068
ENCODING 104
SWIDTH 1000 0
DWIDTH 36 0
BBX 62 80 -13 -16
BITMAP
0000000000000000
0000000000000000
0000000000000000
0000000000000000
0000000000000000
0000000000000000
0000000000000000
0000000000000000
000001ff00000000
000003fe00000000
000003fe00000000
000003fe00000000
000007fc00000000
000007fc00000000
000007fc00000000
00000ff800000000
00000ff800000000
00000ff800000000
00001ff000000000
00001ff000000000
00001ff000000000
00003fe000000000
00003fe000000000
00003fe000000000
00007ffffffc0000
00007ffffffc0000
00007ffffffc0000
0000fffffff80000
0000fffffff80000
0000fffffff80000
0001fffffff00000
0001fffffff00000
0001fff001ff0000
0003ffe003fe0000
0003ffe003fe0000
0003ffe003fe0000
0007ffc007fc0000
0007ffc007fc0000
0007ffc007fc0000
000fff800ff80000
000ff8000ff80000
000ff8000ff80000
001ff0001ff00000
001ff0001ff00000
001ff0001ff00000
003fe0003fe00000
003fe0003fe00000
003fe0003fe00000
007fc0007fc00000
007fc0007fc00000
007fc0007fc00000
00ff8000ff800000
00ff8000ff800000
00ff8000ff800000
01ff0001ff000000
01ff0001ff000000
01ff0001ff000000
03fe0003fe000000
03fe0003fe000000
03fe0003fe000000
07fc0007fc000000
07fc0007fc000000
07fc0007fc000000
0ff8000ff8000000
0000000000000000
0000000000000000
0000000000000000
0000000000000000
0000000000000000
0000000000000000
0000000000000000
0000000000000000
0000000000000000
0000000000000000
0000000000000000
0000000000000000
0000000000000000
0000000000000000
0000000000000000
0000000000000000
ENDCHAR
STARTCHAR U+0067
ENCODING 103
SWIDTH 1000 0
DWIDTH 36 0
BBX 62 80 -13 -16
BITMAP
0000000000000000
0000000000000000
0000000000000000
0000000000000000
0000000000000000
0000000000000000
0000000000000000
0000000000000000
0000000000000000
0000000000000000
0000000000000000
0000000000000000
0000000000000000
0000000000000000
0000000000000000
0000000000000000
0000000000000000
0000000000000000
0000000000000000
0000000000000000
0000000000000000
0000000000000000
0000000000000000
0000000000000000
000007ffffffc000
000007ffffffc000
000007ffffffc000
00000fffffff8000
00000fffffff8000
00000fffffff8000
00001fffffff0000
00001fffffff0000
0001ff001ff00000
0003fe003fe00000
0003fe003fe00000
0003fe003fe00000
0007fc007fc00000
0007fc007fc00000
0007fc007fc00000
000ff800ff800000
0000fffff8000000
0000fffff8000000
0001fffff0000000
0001fffff0000000
0001fffff0000000
0003ffffe0000000
0003ffffe0000000
0003ffffe0000000
007fc00000000000
007fc00000000000
007fc00000000000
00ff800000000000
00ff800000000000
00ff800000000000
01ff000000000000
01ff000000000000
001ffffff0000000
003fffffe0000000
003fffffe0000000
003fffffe0000000
007fffffc0000000
007fffffc0000000
007fffffc0000000
00ffffff80000000
0ff8000ff8000000
0ff8000ff8000000
1ff0001ff0000000
1ff0001ff0000000
1ff0001ff0000000
3fe0003fe0000000
3fe0003fe0000000
3fe0003fe0000000
07fffffc00000000
07fffffc00000000
07fffffc00000000
0ffffff800000000
0ffffff800000000
0ffffff800000000
1ffffff000000000
1ffffff000000000
ENDCHAR
STARTCHAR U+0066
ENCODING 102
SWIDTH 1000 0
DWIDTH 36 0
BBX 62 80 -13 -16
BITMAP
0000000000000000
0000000000000000
0000000000000000
0000000000000000
0000000000000000
0000000000000000
0000000000000000
0000000000000000
000000001ffff000
000000003fffe000
000000003fffe000
000000003fffe000
000000007fffc000
000000007fffc000
000000007fffc000
00000000ffff8000
0000000ff80ff800
0000000ff80ff800
0000001ff01ff000
0000001ff01ff000
0000001ff01ff000
0000003fe03fe000
0000003fe03fe000
0000003fe03fe000
0000007fc0000000
0000007fc0000000
0000007fc0000000
000000ff80000000
000000ff80000000
000000ff80000000
000001ff00000000
000001ff00000000
0001ffffff000000
0003fffffe000000
0003fffffe000000
0003fffffe000000
0007fffffc000000
0007fffffc000000
0007fffffc000000
000ffffff8000000
00000ff800000000
00000ff800000000
00001ff000000000
00001ff000000000
00001ff000000000
00003fe000000000
00003fe000000000
00003fe000000000
00007fc000000000
00007fc000000000
00007fc000000000
0000ff8000000000
0000ff8000000000
0000ff8000000000
0001ff0000000000
0001ff0000000000
0001ff0000000000
0003fe0000000000
0003fe0000000000
0003fe0000000000
0007fc0000000000
0007fc0000000000
0007fc0000000000
000ff80000000000
0000000000000000
0000000000000000
0000000000000000
0000000000000000
0000000000000000
0000000000000000
0000000000000000
0000000000000000
0000000000000000
0000000000000000
0000000000000000
0000000000000000
0000000000000000
0000000000000000
0000000000000000
0000000000000000
ENDCHAR
STARTCHAR U+0065
ENCODING 101
SWIDTH 1000 0
DWIDTH 36 0
BBX 62 80 -13 -16
BITMAP
0000000000000000
0000000000000000
0000000000000000
0000000000000000
0000000000000000
0000000000000000
0000000000000000
0000000000000000
0000000000000000
0000000000000000
0000000000000000
0000000000000000
0000000000000000
0000000000000000
0000000000000000
0000000000000000
0000000000000000
0000000000000000
0000000000000000
0000000000000000
0000000000000000
0000000000000000
0000000000000000
0000000000000000
000007fffffc0000
000007fffffc0000
000007fffffc0000
00000ffffff80000
00000ffffff80000
00000ffffff80000
00001ffffff00000
00001ffffff00000
0001ff0001ff0000
0003fe0003fe0000
0003fe0003fe0000
0003fe0003fe0000
0007fc0007fc0000
0007fc0007fc0000
0007fc0007fc0000
000ff8000ff80000
000ffffffff80000
000ffffffff80000
001ffffffff00000
001ffffffff00000
001ffffffff00000
003fffffffe00000
003fffffffe00000
003fffffffe00000
007fc00000000000
007fc00000000000
007fc00000000000
00ff800000000000
00ff800000000000
00ff800000000000
01ff000000000000
01ff000000000000
001ffffff0000000
003fffffe0000000
003fffffe0000000
003fffffe0000000
007fffffc0000000
007fffffc0000000
007fffffc0000000
00ffffff80000000
0000000000000000
0000000000000000
0000000000000000
0000000000000000
0000000000000000
0000000000000000
0000000000000000
0000000000000000
0000000000000000
0000000000000000
0000000000000000
0000000000000000
0000000000000000
0000000000000000
0000000000000000
0000000000000000
ENDCHAR
STARTCHAR U+0064
ENCODING 100
SWIDTH 1000 0
DWIDTH 36 0
BBX 62 80 -13 -16
BITMAP
0000000000000000
0000000000000000
0000000000000000
0000000000000000
0000000000000000
0000000000000000
0000000000000000
0000000000000000
000000000001ff00
000000000003fe00
000000000003fe00
000000000003fe00
000000000007fc00
000000000007fc00
000000000007fc00
00000000000ff800
00000000000ff800
00000000000ff800
00000000001ff000
00000000001ff000
00000000001ff000
00000000003fe000
00000000003fe000
00000000003fe000
000007ffffffc000
000007ffffffc000
000007ffffffc000
00000fffffff8000
00000fffffff8000
00000fffffff8000
00001fffffff0000
00001fffffff0000
0001ff001fff0000
0003fe003ffe0000
0003fe003ffe0000
0003fe003ffe0000
0007fc007ffc0000
0007fc007ffc0000
0007fc007ffc0000
000ff800fff80000
000ff8000ff80000
000ff8000ff80000
001ff0001ff00000
001ff0001ff00000
001ff0001ff00000
003fe0003fe00000
003fe0003fe00000
003fe0003fe00000
007fc007ffc00000
007fc007ffc00000
007fc007ffc00000
00ff800fff800000
00ff800fff800000
00ff800fff800000
01ff001fff000000
01ff001fff000000
001fffffff000000
003ffffffe000000
003ffffffe000000
003ffffffe000000
007ffffffc000000
007ffffffc000000
007ffffffc000000
00fffffff8000000
0000000000000000
0000000000000000
0000000000000000
0000000000000000
0000000000000000
0000000000000000
0000000000000000
0000000000000000
0000000000000000
0000000000000000
0000000000000000
0000000000000000
0000000000000000
0000000000000000
0000000000000000
0000000000000000
ENDCHAR
ENDFONT
